<?xml version="1.0" encoding="UTF-8" standalone="no"?>
<!DOCTYPE svg PUBLIC "-//W3C//DTD SVG 1.1//EN"
 "http://www.w3.org/Graphics/SVG/1.1/DTD/svg11.dtd">
<!-- Generated by graphviz version 2.43.0 (0)
 -->
<!-- Title: g4db::G4DarkBreMModel Pages: 1 -->
<svg width="642pt" height="192pt"
 viewBox="0.00 0.00 642.00 191.50" xmlns="http://www.w3.org/2000/svg" xmlns:xlink="http://www.w3.org/1999/xlink">
<g id="graph0" class="graph" transform="scale(1 1) rotate(0) translate(4 187.5)">
<title>g4db::G4DarkBreMModel</title>
<!-- Node1 -->
<g id="node1" class="node">
<title>Node1</title>
<g id="a_node1"><a xlink:title=" ">
<polygon fill="#bfbfbf" stroke="black" points="495,-85 495,-104 634,-104 634,-85 495,-85"/>
<text text-anchor="middle" x="564.5" y="-92" font-family="Helvetica,sans-Serif" font-size="10.00">g4db::G4DarkBreMModel</text>
</a>
</g>
</g>
<!-- Node2 -->
<g id="node2" class="node">
<title>Node2</title>
<g id="a_node2"><a xlink:href="classg4db_1_1PrototypeModel.html" target="_top" xlink:title="Abstract class representing a model for dark brem.">
<polygon fill="none" stroke="black" points="189.5,-164 189.5,-183 313.5,-183 313.5,-164 189.5,-164"/>
<text text-anchor="middle" x="251.5" y="-171" font-family="Helvetica,sans-Serif" font-size="10.00">g4db::PrototypeModel</text>
</a>
</g>
</g>
<!-- Node2&#45;&gt;Node1 -->
<g id="edge1" class="edge">
<title>Node2&#45;&gt;Node1</title>
<path fill="none" stroke="midnightblue" d="M322.69,-162.17C367.37,-154.13 426.19,-142.03 477,-126.5 498.59,-119.9 522.64,-110.86 539.89,-104.08"/>
<polygon fill="midnightblue" stroke="midnightblue" points="322.04,-158.73 312.8,-163.92 323.26,-165.62 322.04,-158.73"/>
</g>
<!-- Node3 -->
<g id="node3" class="node">
<title>Node3</title>
<g id="a_node3"><a xlink:title=" ">
<polygon fill="none" stroke="#bfbfbf" points="182,-104 182,-145 321,-145 321,-104 182,-104"/>
<text text-anchor="start" x="190" y="-133" font-family="Helvetica,sans-Serif" font-size="10.00">std::map&lt; int, std</text>
<text text-anchor="start" x="190" y="-122" font-family="Helvetica,sans-Serif" font-size="10.00">::map&lt; double, unsigned</text>
<text text-anchor="middle" x="251.5" y="-111" font-family="Helvetica,sans-Serif" font-size="10.00"> int &gt; &gt;</text>
</a>
</g>
</g>
<!-- Node3&#45;&gt;Node1 -->
<g id="edge2" class="edge">
<title>Node3&#45;&gt;Node1</title>
<path fill="none" stroke="#9a32cd" stroke-dasharray="5,2" d="M331.34,-116.9C381.74,-112.03 446.47,-105.79 494.77,-101.13"/>
<polygon fill="#9a32cd" stroke="#9a32cd" points="330.75,-113.44 321.14,-117.88 331.43,-120.4 330.75,-113.44"/>
<text text-anchor="middle" x="428.5" y="-114.5" font-family="Helvetica,sans-Serif" font-size="10.00"> currentDataPoints_</text>
</g>
<!-- Node4 -->
<g id="node4" class="node">
<title>Node4</title>
<g id="a_node4"><a xlink:title=" ">
<polygon fill="none" stroke="#bfbfbf" points="141,-44 141,-85 362,-85 362,-44 141,-44"/>
<text text-anchor="start" x="149" y="-73" font-family="Helvetica,sans-Serif" font-size="10.00">std::map&lt; int, std</text>
<text text-anchor="start" x="149" y="-62" font-family="Helvetica,sans-Serif" font-size="10.00">::map&lt; double, std::</text>
<text text-anchor="middle" x="251.5" y="-51" font-family="Helvetica,sans-Serif" font-size="10.00">vector&lt; g4db::OutgoingKinematics &gt; &gt; &gt;</text>
</a>
</g>
</g>
<!-- Node4&#45;&gt;Node1 -->
<g id="edge3" class="edge">
<title>Node4&#45;&gt;Node1</title>
<path fill="none" stroke="#9a32cd" stroke-dasharray="5,2" d="M372.3,-76.06C413.69,-80.05 458.64,-84.39 494.56,-87.85"/>
<polygon fill="#9a32cd" stroke="#9a32cd" points="372.44,-72.55 362.15,-75.08 371.76,-79.52 372.44,-72.55"/>
<text text-anchor="middle" x="428.5" y="-88.5" font-family="Helvetica,sans-Serif" font-size="10.00"> madGraphData_</text>
</g>
<!-- Node5 -->
<g id="node5" class="node">
<title>Node5</title>
<g id="a_node5"><a xlink:title="STL class.">
<polygon fill="none" stroke="#bfbfbf" points="219,-6 219,-25 284,-25 284,-6 219,-6"/>
<text text-anchor="middle" x="251.5" y="-13" font-family="Helvetica,sans-Serif" font-size="10.00">std::string</text>
</a>
</g>
</g>
<!-- Node5&#45;&gt;Node1 -->
<g id="edge4" class="edge">
<title>Node5&#45;&gt;Node1</title>
<path fill="none" stroke="#9a32cd" stroke-dasharray="5,2" d="M294.23,-18.06C340.01,-21.76 415.19,-30.52 477,-50.5 503.29,-59 531.4,-74.67 548.2,-84.83"/>
<polygon fill="#9a32cd" stroke="#9a32cd" points="294.33,-14.55 284.09,-17.28 293.79,-21.53 294.33,-14.55"/>
<text text-anchor="middle" x="428.5" y="-64.5" font-family="Helvetica,sans-Serif" font-size="10.00"> method_name_</text>
<text text-anchor="middle" x="428.5" y="-53.5" font-family="Helvetica,sans-Serif" font-size="10.00">library_path_</text>
</g>
<!-- Node6 -->
<g id="node6" class="node">
<title>Node6</title>
<g id="a_node6"><a xlink:title="STL class.">
<polygon fill="none" stroke="#bfbfbf" points="0,-0.5 0,-30.5 104,-30.5 104,-0.5 0,-0.5"/>
<text text-anchor="start" x="8" y="-18.5" font-family="Helvetica,sans-Serif" font-size="10.00">std::basic_string&lt;</text>
<text text-anchor="middle" x="52" y="-7.5" font-family="Helvetica,sans-Serif" font-size="10.00"> char &gt;</text>
</a>
</g>
</g>
<!-- Node6&#45;&gt;Node5 -->
<g id="edge5" class="edge">
<title>Node6&#45;&gt;Node5</title>
<path fill="none" stroke="midnightblue" d="M114.14,-15.5C148.75,-15.5 190.61,-15.5 218.74,-15.5"/>
<polygon fill="midnightblue" stroke="midnightblue" points="114.12,-12 104.12,-15.5 114.12,-19 114.12,-12"/>
</g>
</g>
</svg>
