<?xml version="1.0" encoding="UTF-8" standalone="no"?>
<!DOCTYPE svg PUBLIC "-//W3C//DTD SVG 1.1//EN"
 "http://www.w3.org/Graphics/SVG/1.1/DTD/svg11.dtd">
<!-- Generated by graphviz version 2.43.0 (0)
 -->
<!-- Title: g4db::example::APrimePhysics Pages: 1 -->
<svg width="1793pt" height="261pt"
 viewBox="0.00 0.00 1793.00 261.00" xmlns="http://www.w3.org/2000/svg" xmlns:xlink="http://www.w3.org/1999/xlink">
<g id="graph0" class="graph" transform="scale(1 1) rotate(0) translate(4 257)">
<title>g4db::example::APrimePhysics</title>
<!-- Node1 -->
<g id="node1" class="node">
<title>Node1</title>
<g id="a_node1"><a xlink:title="basic physics constructor which simply creates the A&#39; and the dark brem">
<polygon fill="#bfbfbf" stroke="black" points="1618,-195.5 1618,-214.5 1785,-214.5 1785,-195.5 1618,-195.5"/>
<text text-anchor="middle" x="1701.5" y="-202.5" font-family="Helvetica,sans-Serif" font-size="10.00">g4db::example::APrimePhysics</text>
</a>
</g>
</g>
<!-- Node2 -->
<g id="node2" class="node">
<title>Node2</title>
<g id="a_node2"><a xlink:title=" ">
<polygon fill="none" stroke="#bfbfbf" points="1337,-233.5 1337,-252.5 1467,-252.5 1467,-233.5 1337,-233.5"/>
<text text-anchor="middle" x="1402" y="-240.5" font-family="Helvetica,sans-Serif" font-size="10.00">G4VPhysicsConstructor</text>
</a>
</g>
</g>
<!-- Node2&#45;&gt;Node1 -->
<g id="edge1" class="edge">
<title>Node2&#45;&gt;Node1</title>
<path fill="none" stroke="midnightblue" d="M1477.53,-234.23C1514.4,-229.81 1559.56,-224.28 1600,-219 1610.74,-217.6 1622.12,-216.06 1633.22,-214.54"/>
<polygon fill="midnightblue" stroke="midnightblue" points="1476.87,-230.78 1467.36,-235.44 1477.7,-237.73 1476.87,-230.78"/>
</g>
<!-- Node3 -->
<g id="node3" class="node">
<title>Node3</title>
<g id="a_node3"><a xlink:title="STL class.">
<polygon fill="none" stroke="#bfbfbf" points="755,-190.5 755,-209.5 820,-209.5 820,-190.5 755,-190.5"/>
<text text-anchor="middle" x="787.5" y="-197.5" font-family="Helvetica,sans-Serif" font-size="10.00">std::string</text>
</a>
</g>
</g>
<!-- Node3&#45;&gt;Node1 -->
<g id="edge2" class="edge">
<title>Node3&#45;&gt;Node1</title>
<path fill="none" stroke="#9a32cd" stroke-dasharray="5,2" d="M830.52,-200.23C971.45,-201 1429.11,-203.51 1617.9,-204.55"/>
<polygon fill="#9a32cd" stroke="#9a32cd" points="830.18,-196.73 820.16,-200.17 830.14,-203.73 830.18,-196.73"/>
<text text-anchor="middle" x="1237.5" y="-206" font-family="Helvetica,sans-Serif" font-size="10.00"> library_path_</text>
</g>
<!-- Node6 -->
<g id="node6" class="node">
<title>Node6</title>
<g id="a_node6"><a xlink:href="classG4DarkBremsstrahlung.html" target="_top" xlink:title=" ">
<polygon fill="none" stroke="black" points="1055,-123.5 1055,-142.5 1186,-142.5 1186,-123.5 1055,-123.5"/>
<text text-anchor="middle" x="1120.5" y="-130.5" font-family="Helvetica,sans-Serif" font-size="10.00">G4DarkBremsstrahlung</text>
</a>
</g>
</g>
<!-- Node3&#45;&gt;Node6 -->
<g id="edge11" class="edge">
<title>Node3&#45;&gt;Node6</title>
<path fill="none" stroke="#9a32cd" stroke-dasharray="5,2" d="M830.21,-191.61C849.05,-187.9 871.62,-183.58 892,-180 956.26,-168.7 973.33,-171.25 1037,-157 1054.76,-153.02 1074.33,-147.39 1089.95,-142.58"/>
<polygon fill="#9a32cd" stroke="#9a32cd" points="829.29,-188.22 820.16,-193.6 830.65,-195.09 829.29,-188.22"/>
<text text-anchor="middle" x="964.5" y="-183" font-family="Helvetica,sans-Serif" font-size="10.00"> PROCESS_NAME</text>
</g>
<!-- Node4 -->
<g id="node4" class="node">
<title>Node4</title>
<g id="a_node4"><a xlink:title="STL class.">
<polygon fill="none" stroke="#bfbfbf" points="461.5,-185 461.5,-215 565.5,-215 565.5,-185 461.5,-185"/>
<text text-anchor="start" x="469.5" y="-203" font-family="Helvetica,sans-Serif" font-size="10.00">std::basic_string&lt;</text>
<text text-anchor="middle" x="513.5" y="-192" font-family="Helvetica,sans-Serif" font-size="10.00"> char &gt;</text>
</a>
</g>
</g>
<!-- Node4&#45;&gt;Node3 -->
<g id="edge3" class="edge">
<title>Node4&#45;&gt;Node3</title>
<path fill="none" stroke="midnightblue" d="M575.74,-200C631.27,-200 710.94,-200 754.7,-200"/>
<polygon fill="midnightblue" stroke="midnightblue" points="575.66,-196.5 565.66,-200 575.66,-203.5 575.66,-196.5"/>
</g>
<!-- Node5 -->
<g id="node5" class="node">
<title>Node5</title>
<g id="a_node5"><a xlink:title=" ">
<polygon fill="none" stroke="#bfbfbf" points="1289,-152.5 1289,-171.5 1515,-171.5 1515,-152.5 1289,-152.5"/>
<text text-anchor="middle" x="1402" y="-159.5" font-family="Helvetica,sans-Serif" font-size="10.00">std::unique_ptr&lt; G4DarkBremsstrahlung &gt;</text>
</a>
</g>
</g>
<!-- Node5&#45;&gt;Node1 -->
<g id="edge4" class="edge">
<title>Node5&#45;&gt;Node1</title>
<path fill="none" stroke="#9a32cd" stroke-dasharray="5,2" d="M1525.31,-170.25C1550.12,-172.74 1575.97,-175.94 1600,-180 1622.69,-183.84 1647.82,-190.09 1667.27,-195.38"/>
<polygon fill="#9a32cd" stroke="#9a32cd" points="1525.41,-166.74 1515.12,-169.26 1524.73,-173.71 1525.41,-166.74"/>
<text text-anchor="middle" x="1566.5" y="-183" font-family="Helvetica,sans-Serif" font-size="10.00"> the_process_</text>
</g>
<!-- Node6&#45;&gt;Node5 -->
<g id="edge5" class="edge">
<title>Node6&#45;&gt;Node5</title>
<path fill="none" stroke="#9a32cd" stroke-dasharray="5,2" d="M1196.39,-140.77C1231.11,-144.37 1272.68,-148.69 1309.26,-152.48"/>
<polygon fill="#9a32cd" stroke="#9a32cd" points="1196.63,-137.28 1186.33,-139.73 1195.91,-144.24 1196.63,-137.28"/>
<text text-anchor="middle" x="1237.5" y="-152" font-family="Helvetica,sans-Serif" font-size="10.00"> ptr</text>
</g>
<!-- Node7 -->
<g id="node7" class="node">
<title>Node7</title>
<g id="a_node7"><a xlink:title=" ">
<polygon fill="none" stroke="#bfbfbf" points="730,-148.5 730,-167.5 845,-167.5 845,-148.5 730,-148.5"/>
<text text-anchor="middle" x="787.5" y="-155.5" font-family="Helvetica,sans-Serif" font-size="10.00">G4VDiscreteProcess</text>
</a>
</g>
</g>
<!-- Node7&#45;&gt;Node6 -->
<g id="edge6" class="edge">
<title>Node7&#45;&gt;Node6</title>
<path fill="none" stroke="midnightblue" d="M855.22,-152.96C913.46,-148.56 997.42,-142.22 1054.99,-137.87"/>
<polygon fill="midnightblue" stroke="midnightblue" points="854.73,-149.49 845.02,-153.73 855.26,-156.47 854.73,-149.49"/>
</g>
<!-- Node8 -->
<g id="node8" class="node">
<title>Node8</title>
<g id="a_node8"><a xlink:href="classg4db_1_1ElementXsecCache.html" target="_top" xlink:title="The cache of already computed cross sections.">
<polygon fill="none" stroke="black" points="717.5,-110.5 717.5,-129.5 857.5,-129.5 857.5,-110.5 717.5,-110.5"/>
<text text-anchor="middle" x="787.5" y="-117.5" font-family="Helvetica,sans-Serif" font-size="10.00">g4db::ElementXsecCache</text>
</a>
</g>
</g>
<!-- Node8&#45;&gt;Node6 -->
<g id="edge7" class="edge">
<title>Node8&#45;&gt;Node6</title>
<path fill="none" stroke="#9a32cd" stroke-dasharray="5,2" d="M867.88,-117.49C916.72,-116.64 980.57,-116.8 1037,-121 1044.79,-121.58 1052.97,-122.45 1061.02,-123.46"/>
<polygon fill="#9a32cd" stroke="#9a32cd" points="867.62,-113.99 857.69,-117.68 867.76,-120.99 867.62,-113.99"/>
<text text-anchor="middle" x="964.5" y="-124" font-family="Helvetica,sans-Serif" font-size="10.00"> element_xsec_cache_</text>
</g>
<!-- Node9 -->
<g id="node9" class="node">
<title>Node9</title>
<g id="a_node9"><a xlink:title=" ">
<polygon fill="none" stroke="#bfbfbf" points="433,-138.5 433,-157.5 594,-157.5 594,-138.5 433,-138.5"/>
<text text-anchor="middle" x="513.5" y="-145.5" font-family="Helvetica,sans-Serif" font-size="10.00">std::map&lt; key_t, G4double &gt;</text>
</a>
</g>
</g>
<!-- Node9&#45;&gt;Node8 -->
<g id="edge8" class="edge">
<title>Node9&#45;&gt;Node8</title>
<path fill="none" stroke="#9a32cd" stroke-dasharray="5,2" d="M604.49,-138.74C641.23,-134.95 683.06,-130.65 717.34,-127.12"/>
<polygon fill="#9a32cd" stroke="#9a32cd" points="603.86,-135.28 594.27,-139.79 604.58,-142.25 603.86,-135.28"/>
<text text-anchor="middle" x="647.5" y="-141" font-family="Helvetica,sans-Serif" font-size="10.00"> the_cache_</text>
</g>
<!-- Node10 -->
<g id="node10" class="node">
<title>Node10</title>
<g id="a_node10"><a xlink:title=" ">
<polygon fill="none" stroke="#bfbfbf" points="451,-66 451,-96 576,-96 576,-66 451,-66"/>
<text text-anchor="start" x="459" y="-84" font-family="Helvetica,sans-Serif" font-size="10.00">std::shared_ptr&lt; g4db</text>
<text text-anchor="middle" x="513.5" y="-73" font-family="Helvetica,sans-Serif" font-size="10.00">::PrototypeModel &gt;</text>
</a>
</g>
</g>
<!-- Node10&#45;&gt;Node6 -->
<g id="edge17" class="edge">
<title>Node10&#45;&gt;Node6</title>
<path fill="none" stroke="#9a32cd" stroke-dasharray="5,2" d="M586.41,-80.24C659.09,-80.08 774.54,-81.46 874,-90 946.96,-96.26 965.04,-100.44 1037,-114 1051.44,-116.72 1067.19,-120.22 1081.02,-123.46"/>
<polygon fill="#9a32cd" stroke="#9a32cd" points="586,-76.75 576.01,-80.28 586.02,-83.75 586,-76.75"/>
<text text-anchor="middle" x="787.5" y="-93" font-family="Helvetica,sans-Serif" font-size="10.00"> model_</text>
</g>
<!-- Node10&#45;&gt;Node8 -->
<g id="edge9" class="edge">
<title>Node10&#45;&gt;Node8</title>
<path fill="none" stroke="#9a32cd" stroke-dasharray="5,2" d="M586.23,-91.29C627.61,-97.22 679.29,-104.63 719.79,-110.43"/>
<polygon fill="#9a32cd" stroke="#9a32cd" points="586.62,-87.8 576.22,-89.85 585.62,-94.73 586.62,-87.8"/>
<text text-anchor="middle" x="647.5" y="-109" font-family="Helvetica,sans-Serif" font-size="10.00"> model_</text>
</g>
<!-- Node12 -->
<g id="node12" class="node">
<title>Node12</title>
<g id="a_node12"><a xlink:href="classg4db_1_1ElementXsecInterpolation.html" target="_top" xlink:title="Interpolation of cross sections by element.">
<polygon fill="none" stroke="black" points="701,-25.5 701,-44.5 874,-44.5 874,-25.5 701,-25.5"/>
<text text-anchor="middle" x="787.5" y="-32.5" font-family="Helvetica,sans-Serif" font-size="10.00">g4db::ElementXsecInterpolation</text>
</a>
</g>
</g>
<!-- Node10&#45;&gt;Node12 -->
<g id="edge16" class="edge">
<title>Node10&#45;&gt;Node12</title>
<path fill="none" stroke="#9a32cd" stroke-dasharray="5,2" d="M577.71,-63.51C589.07,-60.73 600.84,-58.09 612,-56 640.79,-50.6 672.53,-46.3 700.95,-43.03"/>
<polygon fill="#9a32cd" stroke="#9a32cd" points="576.71,-60.15 567.86,-65.97 578.41,-66.94 576.71,-60.15"/>
<text text-anchor="middle" x="647.5" y="-59" font-family="Helvetica,sans-Serif" font-size="10.00"> model_</text>
</g>
<!-- Node11 -->
<g id="node11" class="node">
<title>Node11</title>
<g id="a_node11"><a xlink:href="classg4db_1_1PrototypeModel.html" target="_top" xlink:title="Abstract class representing a model for dark brem.">
<polygon fill="none" stroke="black" points="199.5,-71.5 199.5,-90.5 323.5,-90.5 323.5,-71.5 199.5,-71.5"/>
<text text-anchor="middle" x="261.5" y="-78.5" font-family="Helvetica,sans-Serif" font-size="10.00">g4db::PrototypeModel</text>
</a>
</g>
</g>
<!-- Node11&#45;&gt;Node10 -->
<g id="edge10" class="edge">
<title>Node11&#45;&gt;Node10</title>
<path fill="none" stroke="#9a32cd" stroke-dasharray="5,2" d="M333.84,-81C370.71,-81 415.28,-81 450.67,-81"/>
<polygon fill="#9a32cd" stroke="#9a32cd" points="333.66,-77.5 323.66,-81 333.66,-84.5 333.66,-77.5"/>
<text text-anchor="middle" x="390.5" y="-84" font-family="Helvetica,sans-Serif" font-size="10.00"> ptr</text>
</g>
<!-- Node12&#45;&gt;Node6 -->
<g id="edge12" class="edge">
<title>Node12&#45;&gt;Node6</title>
<path fill="none" stroke="#9a32cd" stroke-dasharray="5,2" d="M884.21,-28.64C931.97,-29 989.52,-34.93 1037,-56 1071.03,-71.1 1099.99,-106.2 1112.66,-123.3"/>
<polygon fill="#9a32cd" stroke="#9a32cd" points="884.18,-25.14 874.18,-28.65 884.18,-32.14 884.18,-25.14"/>
<text text-anchor="middle" x="964.5" y="-59" font-family="Helvetica,sans-Serif" font-size="10.00"> element_xsec_interpolation_</text>
</g>
<!-- Node13 -->
<g id="node13" class="node">
<title>Node13</title>
<g id="a_node13"><a xlink:title=" ">
<polygon fill="none" stroke="#bfbfbf" points="439,-0.5 439,-41.5 588,-41.5 588,-0.5 439,-0.5"/>
<text text-anchor="start" x="447" y="-29.5" font-family="Helvetica,sans-Serif" font-size="10.00">std::map&lt; int, g4db</text>
<text text-anchor="start" x="447" y="-18.5" font-family="Helvetica,sans-Serif" font-size="10.00">::ElementXsecInterpolation</text>
<text text-anchor="middle" x="513.5" y="-7.5" font-family="Helvetica,sans-Serif" font-size="10.00">::SampleSet &gt;</text>
</a>
</g>
</g>
<!-- Node13&#45;&gt;Node12 -->
<g id="edge13" class="edge">
<title>Node13&#45;&gt;Node12</title>
<path fill="none" stroke="#9a32cd" stroke-dasharray="5,2" d="M598.57,-19.53C625.56,-19.59 655.56,-20.2 683,-22 695.02,-22.79 707.78,-24.04 720.08,-25.47"/>
<polygon fill="#9a32cd" stroke="#9a32cd" points="598.38,-16.03 588.39,-19.54 598.39,-23.03 598.38,-16.03"/>
<text text-anchor="middle" x="647.5" y="-25" font-family="Helvetica,sans-Serif" font-size="10.00"> the_samples_</text>
</g>
<!-- Node14 -->
<g id="node14" class="node">
<title>Node14</title>
<g id="a_node14"><a xlink:href="classg4db_1_1ElementXsecInterpolation_1_1SampleSet.html" target="_top" xlink:title="A sample set is two parallel vectors limited to operate for our interpolation goal.">
<polygon fill="none" stroke="black" points="175,-6 175,-36 348,-36 348,-6 175,-6"/>
<text text-anchor="start" x="183" y="-24" font-family="Helvetica,sans-Serif" font-size="10.00">g4db::ElementXsecInterpolation</text>
<text text-anchor="middle" x="261.5" y="-13" font-family="Helvetica,sans-Serif" font-size="10.00">::SampleSet</text>
</a>
</g>
</g>
<!-- Node14&#45;&gt;Node13 -->
<g id="edge14" class="edge">
<title>Node14&#45;&gt;Node13</title>
<path fill="none" stroke="#9a32cd" stroke-dasharray="5,2" d="M358.29,-21C384.92,-21 413.43,-21 438.6,-21"/>
<polygon fill="#9a32cd" stroke="#9a32cd" points="358.19,-17.5 348.19,-21 358.19,-24.5 358.19,-17.5"/>
<text text-anchor="middle" x="390.5" y="-24" font-family="Helvetica,sans-Serif" font-size="10.00"> elements</text>
</g>
<!-- Node15 -->
<g id="node15" class="node">
<title>Node15</title>
<g id="a_node15"><a xlink:title=" ">
<polygon fill="none" stroke="#bfbfbf" points="0,-11.5 0,-30.5 124,-30.5 124,-11.5 0,-11.5"/>
<text text-anchor="middle" x="62" y="-18.5" font-family="Helvetica,sans-Serif" font-size="10.00">std::vector&lt; double &gt;</text>
</a>
</g>
</g>
<!-- Node15&#45;&gt;Node14 -->
<g id="edge15" class="edge">
<title>Node15&#45;&gt;Node14</title>
<path fill="none" stroke="#9a32cd" stroke-dasharray="5,2" d="M134.51,-21C147.65,-21 161.49,-21 174.99,-21"/>
<polygon fill="#9a32cd" stroke="#9a32cd" points="134.14,-17.5 124.14,-21 134.14,-24.5 134.14,-17.5"/>
<text text-anchor="middle" x="149.5" y="-35" font-family="Helvetica,sans-Serif" font-size="10.00"> y_</text>
<text text-anchor="middle" x="149.5" y="-24" font-family="Helvetica,sans-Serif" font-size="10.00">x_</text>
</g>
</g>
</svg>
