<?xml version="1.0" encoding="UTF-8" standalone="no"?>
<!DOCTYPE svg PUBLIC "-//W3C//DTD SVG 1.1//EN"
 "http://www.w3.org/Graphics/SVG/1.1/DTD/svg11.dtd">
<!-- Generated by graphviz version 2.43.0 (0)
 -->
<!-- Title: G4DarkBremsstrahlung Pages: 1 -->
<svg width="1194pt" height="223pt"
 viewBox="0.00 0.00 1194.00 222.50" xmlns="http://www.w3.org/2000/svg" xmlns:xlink="http://www.w3.org/1999/xlink">
<g id="graph0" class="graph" transform="scale(1 1) rotate(0) translate(4 218.5)">
<title>G4DarkBremsstrahlung</title>
<!-- Node1 -->
<g id="node1" class="node">
<title>Node1</title>
<g id="a_node1"><a xlink:title=" ">
<polygon fill="#bfbfbf" stroke="black" points="1055,-118 1055,-137 1186,-137 1186,-118 1055,-118"/>
<text text-anchor="middle" x="1120.5" y="-125" font-family="Helvetica,sans-Serif" font-size="10.00">G4DarkBremsstrahlung</text>
</a>
</g>
</g>
<!-- Node2 -->
<g id="node2" class="node">
<title>Node2</title>
<g id="a_node2"><a xlink:title=" ">
<polygon fill="none" stroke="#bfbfbf" points="730,-195 730,-214 845,-214 845,-195 730,-195"/>
<text text-anchor="middle" x="787.5" y="-202" font-family="Helvetica,sans-Serif" font-size="10.00">G4VDiscreteProcess</text>
</a>
</g>
</g>
<!-- Node2&#45;&gt;Node1 -->
<g id="edge1" class="edge">
<title>Node2&#45;&gt;Node1</title>
<path fill="none" stroke="midnightblue" d="M855.24,-202.09C906.09,-198.73 977.31,-190.69 1037,-171.5 1062.5,-163.3 1089.4,-147.39 1105.3,-137.12"/>
<polygon fill="midnightblue" stroke="midnightblue" points="854.79,-198.62 845.02,-202.73 855.22,-205.6 854.79,-198.62"/>
</g>
<!-- Node3 -->
<g id="node3" class="node">
<title>Node3</title>
<g id="a_node3"><a xlink:href="classg4db_1_1ElementXsecCache.html" target="_top" xlink:title="The cache of already computed cross sections.">
<polygon fill="none" stroke="black" points="717.5,-157 717.5,-176 857.5,-176 857.5,-157 717.5,-157"/>
<text text-anchor="middle" x="787.5" y="-164" font-family="Helvetica,sans-Serif" font-size="10.00">g4db::ElementXsecCache</text>
</a>
</g>
</g>
<!-- Node3&#45;&gt;Node1 -->
<g id="edge2" class="edge">
<title>Node3&#45;&gt;Node1</title>
<path fill="none" stroke="#9a32cd" stroke-dasharray="5,2" d="M867.93,-159.89C916.79,-155.48 980.64,-149.11 1037,-141.5 1046.5,-140.22 1056.59,-138.67 1066.33,-137.07"/>
<polygon fill="#9a32cd" stroke="#9a32cd" points="867.39,-156.43 857.74,-160.8 868.01,-163.4 867.39,-156.43"/>
<text text-anchor="middle" x="964.5" y="-159.5" font-family="Helvetica,sans-Serif" font-size="10.00"> element_xsec_cache_</text>
</g>
<!-- Node4 -->
<g id="node4" class="node">
<title>Node4</title>
<g id="a_node4"><a xlink:title=" ">
<polygon fill="none" stroke="#bfbfbf" points="433,-185 433,-204 594,-204 594,-185 433,-185"/>
<text text-anchor="middle" x="513.5" y="-192" font-family="Helvetica,sans-Serif" font-size="10.00">std::map&lt; key_t, G4double &gt;</text>
</a>
</g>
</g>
<!-- Node4&#45;&gt;Node3 -->
<g id="edge3" class="edge">
<title>Node4&#45;&gt;Node3</title>
<path fill="none" stroke="#9a32cd" stroke-dasharray="5,2" d="M604.49,-185.24C641.23,-181.45 683.06,-177.15 717.34,-173.62"/>
<polygon fill="#9a32cd" stroke="#9a32cd" points="603.86,-181.78 594.27,-186.29 604.58,-188.75 603.86,-181.78"/>
<text text-anchor="middle" x="647.5" y="-186.5" font-family="Helvetica,sans-Serif" font-size="10.00"> the_cache_</text>
</g>
<!-- Node5 -->
<g id="node5" class="node">
<title>Node5</title>
<g id="a_node5"><a xlink:title=" ">
<polygon fill="none" stroke="#bfbfbf" points="451,-112.5 451,-142.5 576,-142.5 576,-112.5 451,-112.5"/>
<text text-anchor="start" x="459" y="-130.5" font-family="Helvetica,sans-Serif" font-size="10.00">std::shared_ptr&lt; g4db</text>
<text text-anchor="middle" x="513.5" y="-119.5" font-family="Helvetica,sans-Serif" font-size="10.00">::PrototypeModel &gt;</text>
</a>
</g>
</g>
<!-- Node5&#45;&gt;Node1 -->
<g id="edge13" class="edge">
<title>Node5&#45;&gt;Node1</title>
<path fill="none" stroke="#9a32cd" stroke-dasharray="5,2" d="M586.21,-127.5C705.02,-127.5 940.91,-127.5 1054.88,-127.5"/>
<polygon fill="#9a32cd" stroke="#9a32cd" points="586.12,-124 576.12,-127.5 586.12,-131 586.12,-124"/>
<text text-anchor="middle" x="787.5" y="-130.5" font-family="Helvetica,sans-Serif" font-size="10.00"> model_</text>
</g>
<!-- Node5&#45;&gt;Node3 -->
<g id="edge4" class="edge">
<title>Node5&#45;&gt;Node3</title>
<path fill="none" stroke="#9a32cd" stroke-dasharray="5,2" d="M586.23,-137.79C627.61,-143.72 679.29,-151.13 719.79,-156.93"/>
<polygon fill="#9a32cd" stroke="#9a32cd" points="586.62,-134.3 576.22,-136.35 585.62,-141.23 586.62,-134.3"/>
<text text-anchor="middle" x="647.5" y="-154.5" font-family="Helvetica,sans-Serif" font-size="10.00"> model_</text>
</g>
<!-- Node9 -->
<g id="node9" class="node">
<title>Node9</title>
<g id="a_node9"><a xlink:href="classg4db_1_1ElementXsecInterpolation.html" target="_top" xlink:title="Interpolation of cross sections by element.">
<polygon fill="none" stroke="black" points="701,-72 701,-91 874,-91 874,-72 701,-72"/>
<text text-anchor="middle" x="787.5" y="-79" font-family="Helvetica,sans-Serif" font-size="10.00">g4db::ElementXsecInterpolation</text>
</a>
</g>
</g>
<!-- Node5&#45;&gt;Node9 -->
<g id="edge12" class="edge">
<title>Node5&#45;&gt;Node9</title>
<path fill="none" stroke="#9a32cd" stroke-dasharray="5,2" d="M577.71,-110.01C589.07,-107.23 600.84,-104.59 612,-102.5 640.79,-97.1 672.53,-92.8 700.95,-89.53"/>
<polygon fill="#9a32cd" stroke="#9a32cd" points="576.71,-106.65 567.86,-112.47 578.41,-113.44 576.71,-106.65"/>
<text text-anchor="middle" x="647.5" y="-105.5" font-family="Helvetica,sans-Serif" font-size="10.00"> model_</text>
</g>
<!-- Node6 -->
<g id="node6" class="node">
<title>Node6</title>
<g id="a_node6"><a xlink:href="classg4db_1_1PrototypeModel.html" target="_top" xlink:title="Abstract class representing a model for dark brem.">
<polygon fill="none" stroke="black" points="199.5,-118 199.5,-137 323.5,-137 323.5,-118 199.5,-118"/>
<text text-anchor="middle" x="261.5" y="-125" font-family="Helvetica,sans-Serif" font-size="10.00">g4db::PrototypeModel</text>
</a>
</g>
</g>
<!-- Node6&#45;&gt;Node5 -->
<g id="edge5" class="edge">
<title>Node6&#45;&gt;Node5</title>
<path fill="none" stroke="#9a32cd" stroke-dasharray="5,2" d="M333.84,-127.5C370.71,-127.5 415.28,-127.5 450.67,-127.5"/>
<polygon fill="#9a32cd" stroke="#9a32cd" points="333.66,-124 323.66,-127.5 333.66,-131 333.66,-124"/>
<text text-anchor="middle" x="390.5" y="-130.5" font-family="Helvetica,sans-Serif" font-size="10.00"> ptr</text>
</g>
<!-- Node7 -->
<g id="node7" class="node">
<title>Node7</title>
<g id="a_node7"><a xlink:title="STL class.">
<polygon fill="none" stroke="#bfbfbf" points="755,-20 755,-39 820,-39 820,-20 755,-20"/>
<text text-anchor="middle" x="787.5" y="-27" font-family="Helvetica,sans-Serif" font-size="10.00">std::string</text>
</a>
</g>
</g>
<!-- Node7&#45;&gt;Node1 -->
<g id="edge6" class="edge">
<title>Node7&#45;&gt;Node1</title>
<path fill="none" stroke="#9a32cd" stroke-dasharray="5,2" d="M830.5,-31.15C881.13,-34.36 968.01,-43.79 1037,-71.5 1065.27,-82.85 1093.66,-105.07 1108.65,-117.84"/>
<polygon fill="#9a32cd" stroke="#9a32cd" points="830.45,-27.65 820.26,-30.56 830.04,-34.63 830.45,-27.65"/>
<text text-anchor="middle" x="964.5" y="-74.5" font-family="Helvetica,sans-Serif" font-size="10.00"> PROCESS_NAME</text>
</g>
<!-- Node8 -->
<g id="node8" class="node">
<title>Node8</title>
<g id="a_node8"><a xlink:title="STL class.">
<polygon fill="none" stroke="#bfbfbf" points="461.5,-0.5 461.5,-30.5 565.5,-30.5 565.5,-0.5 461.5,-0.5"/>
<text text-anchor="start" x="469.5" y="-18.5" font-family="Helvetica,sans-Serif" font-size="10.00">std::basic_string&lt;</text>
<text text-anchor="middle" x="513.5" y="-7.5" font-family="Helvetica,sans-Serif" font-size="10.00"> char &gt;</text>
</a>
</g>
</g>
<!-- Node8&#45;&gt;Node7 -->
<g id="edge7" class="edge">
<title>Node8&#45;&gt;Node7</title>
<path fill="none" stroke="midnightblue" d="M575.74,-18.65C631.27,-21.51 710.94,-25.61 754.7,-27.86"/>
<polygon fill="midnightblue" stroke="midnightblue" points="575.83,-15.15 565.66,-18.13 575.47,-22.14 575.83,-15.15"/>
</g>
<!-- Node9&#45;&gt;Node1 -->
<g id="edge8" class="edge">
<title>Node9&#45;&gt;Node1</title>
<path fill="none" stroke="#9a32cd" stroke-dasharray="5,2" d="M884.27,-84.89C930.7,-87.73 987.08,-92.94 1037,-102.5 1056.11,-106.16 1077.08,-112.55 1093.1,-117.95"/>
<polygon fill="#9a32cd" stroke="#9a32cd" points="884.4,-81.39 874.21,-84.31 883.99,-88.38 884.4,-81.39"/>
<text text-anchor="middle" x="964.5" y="-105.5" font-family="Helvetica,sans-Serif" font-size="10.00"> element_xsec_interpolation_</text>
</g>
<!-- Node10 -->
<g id="node10" class="node">
<title>Node10</title>
<g id="a_node10"><a xlink:title=" ">
<polygon fill="none" stroke="#bfbfbf" points="439,-50 439,-91 588,-91 588,-50 439,-50"/>
<text text-anchor="start" x="447" y="-79" font-family="Helvetica,sans-Serif" font-size="10.00">std::map&lt; int, g4db</text>
<text text-anchor="start" x="447" y="-68" font-family="Helvetica,sans-Serif" font-size="10.00">::ElementXsecInterpolation</text>
<text text-anchor="middle" x="513.5" y="-57" font-family="Helvetica,sans-Serif" font-size="10.00">::SampleSet &gt;</text>
</a>
</g>
</g>
<!-- Node10&#45;&gt;Node9 -->
<g id="edge9" class="edge">
<title>Node10&#45;&gt;Node9</title>
<path fill="none" stroke="#9a32cd" stroke-dasharray="5,2" d="M598.37,-68.67C602.98,-68.6 607.55,-68.55 612,-68.5 643.55,-68.18 651.51,-66.53 683,-68.5 695.2,-69.26 708.16,-70.53 720.64,-71.98"/>
<polygon fill="#9a32cd" stroke="#9a32cd" points="598.17,-65.17 588.23,-68.83 598.28,-72.17 598.17,-65.17"/>
<text text-anchor="middle" x="647.5" y="-71.5" font-family="Helvetica,sans-Serif" font-size="10.00"> the_samples_</text>
</g>
<!-- Node11 -->
<g id="node11" class="node">
<title>Node11</title>
<g id="a_node11"><a xlink:href="classg4db_1_1ElementXsecInterpolation_1_1SampleSet.html" target="_top" xlink:title="A sample set is two parallel vectors limited to operate for our interpolation goal.">
<polygon fill="none" stroke="black" points="175,-55.5 175,-85.5 348,-85.5 348,-55.5 175,-55.5"/>
<text text-anchor="start" x="183" y="-73.5" font-family="Helvetica,sans-Serif" font-size="10.00">g4db::ElementXsecInterpolation</text>
<text text-anchor="middle" x="261.5" y="-62.5" font-family="Helvetica,sans-Serif" font-size="10.00">::SampleSet</text>
</a>
</g>
</g>
<!-- Node11&#45;&gt;Node10 -->
<g id="edge10" class="edge">
<title>Node11&#45;&gt;Node10</title>
<path fill="none" stroke="#9a32cd" stroke-dasharray="5,2" d="M358.29,-70.5C384.92,-70.5 413.43,-70.5 438.6,-70.5"/>
<polygon fill="#9a32cd" stroke="#9a32cd" points="358.19,-67 348.19,-70.5 358.19,-74 358.19,-67"/>
<text text-anchor="middle" x="390.5" y="-73.5" font-family="Helvetica,sans-Serif" font-size="10.00"> elements</text>
</g>
<!-- Node12 -->
<g id="node12" class="node">
<title>Node12</title>
<g id="a_node12"><a xlink:title=" ">
<polygon fill="none" stroke="#bfbfbf" points="0,-61 0,-80 124,-80 124,-61 0,-61"/>
<text text-anchor="middle" x="62" y="-68" font-family="Helvetica,sans-Serif" font-size="10.00">std::vector&lt; double &gt;</text>
</a>
</g>
</g>
<!-- Node12&#45;&gt;Node11 -->
<g id="edge11" class="edge">
<title>Node12&#45;&gt;Node11</title>
<path fill="none" stroke="#9a32cd" stroke-dasharray="5,2" d="M134.51,-70.5C147.65,-70.5 161.49,-70.5 174.99,-70.5"/>
<polygon fill="#9a32cd" stroke="#9a32cd" points="134.14,-67 124.14,-70.5 134.14,-74 134.14,-67"/>
<text text-anchor="middle" x="149.5" y="-84.5" font-family="Helvetica,sans-Serif" font-size="10.00"> y_</text>
<text text-anchor="middle" x="149.5" y="-73.5" font-family="Helvetica,sans-Serif" font-size="10.00">x_</text>
</g>
</g>
</svg>
