<?xml version="1.0" encoding="UTF-8" standalone="no"?>
<!DOCTYPE svg PUBLIC "-//W3C//DTD SVG 1.1//EN"
 "http://www.w3.org/Graphics/SVG/1.1/DTD/svg11.dtd">
<!-- Generated by graphviz version 2.43.0 (0)
 -->
<!-- Title: g4db::ElementXsecInterpolation Pages: 1 -->
<svg width="870pt" height="101pt"
 viewBox="0.00 0.00 870.00 100.50" xmlns="http://www.w3.org/2000/svg" xmlns:xlink="http://www.w3.org/1999/xlink">
<g id="graph0" class="graph" transform="scale(1 1) rotate(0) translate(4 96.5)">
<title>g4db::ElementXsecInterpolation</title>
<!-- Node1 -->
<g id="node1" class="node">
<title>Node1</title>
<g id="a_node1"><a xlink:title="Interpolation of cross sections by element.">
<polygon fill="#bfbfbf" stroke="black" points="689,-33 689,-52 862,-52 862,-33 689,-33"/>
<text text-anchor="middle" x="775.5" y="-40" font-family="Helvetica,sans-Serif" font-size="10.00">g4db::ElementXsecInterpolation</text>
</a>
</g>
</g>
<!-- Node2 -->
<g id="node2" class="node">
<title>Node2</title>
<g id="a_node2"><a xlink:title=" ">
<polygon fill="none" stroke="#bfbfbf" points="433,-50 433,-91 582,-91 582,-50 433,-50"/>
<text text-anchor="start" x="441" y="-79" font-family="Helvetica,sans-Serif" font-size="10.00">std::map&lt; int, g4db</text>
<text text-anchor="start" x="441" y="-68" font-family="Helvetica,sans-Serif" font-size="10.00">::ElementXsecInterpolation</text>
<text text-anchor="middle" x="507.5" y="-57" font-family="Helvetica,sans-Serif" font-size="10.00">::SampleSet &gt;</text>
</a>
</g>
</g>
<!-- Node2&#45;&gt;Node1 -->
<g id="edge1" class="edge">
<title>Node2&#45;&gt;Node1</title>
<path fill="none" stroke="#9a32cd" stroke-dasharray="5,2" d="M592.49,-61.66C623.21,-58.43 657.98,-54.76 688.85,-51.52"/>
<polygon fill="#9a32cd" stroke="#9a32cd" points="591.82,-58.21 582.24,-62.74 592.55,-65.17 591.82,-58.21"/>
<text text-anchor="middle" x="635.5" y="-63.5" font-family="Helvetica,sans-Serif" font-size="10.00"> the_samples_</text>
</g>
<!-- Node3 -->
<g id="node3" class="node">
<title>Node3</title>
<g id="a_node3"><a xlink:href="classg4db_1_1ElementXsecInterpolation_1_1SampleSet.html" target="_top" xlink:title="A sample set is two parallel vectors limited to operate for our interpolation goal.">
<polygon fill="none" stroke="black" points="175,-55.5 175,-85.5 348,-85.5 348,-55.5 175,-55.5"/>
<text text-anchor="start" x="183" y="-73.5" font-family="Helvetica,sans-Serif" font-size="10.00">g4db::ElementXsecInterpolation</text>
<text text-anchor="middle" x="261.5" y="-62.5" font-family="Helvetica,sans-Serif" font-size="10.00">::SampleSet</text>
</a>
</g>
</g>
<!-- Node3&#45;&gt;Node2 -->
<g id="edge2" class="edge">
<title>Node3&#45;&gt;Node2</title>
<path fill="none" stroke="#9a32cd" stroke-dasharray="5,2" d="M358.32,-70.5C383.07,-70.5 409.34,-70.5 432.77,-70.5"/>
<polygon fill="#9a32cd" stroke="#9a32cd" points="358.18,-67 348.18,-70.5 358.18,-74 358.18,-67"/>
<text text-anchor="middle" x="390.5" y="-73.5" font-family="Helvetica,sans-Serif" font-size="10.00"> elements</text>
</g>
<!-- Node4 -->
<g id="node4" class="node">
<title>Node4</title>
<g id="a_node4"><a xlink:title=" ">
<polygon fill="none" stroke="#bfbfbf" points="0,-61 0,-80 124,-80 124,-61 0,-61"/>
<text text-anchor="middle" x="62" y="-68" font-family="Helvetica,sans-Serif" font-size="10.00">std::vector&lt; double &gt;</text>
</a>
</g>
</g>
<!-- Node4&#45;&gt;Node3 -->
<g id="edge3" class="edge">
<title>Node4&#45;&gt;Node3</title>
<path fill="none" stroke="#9a32cd" stroke-dasharray="5,2" d="M134.51,-70.5C147.65,-70.5 161.49,-70.5 174.99,-70.5"/>
<polygon fill="#9a32cd" stroke="#9a32cd" points="134.14,-67 124.14,-70.5 134.14,-74 134.14,-67"/>
<text text-anchor="middle" x="149.5" y="-84.5" font-family="Helvetica,sans-Serif" font-size="10.00"> y_</text>
<text text-anchor="middle" x="149.5" y="-73.5" font-family="Helvetica,sans-Serif" font-size="10.00">x_</text>
</g>
<!-- Node5 -->
<g id="node5" class="node">
<title>Node5</title>
<g id="a_node5"><a xlink:title=" ">
<polygon fill="none" stroke="#bfbfbf" points="445,-0.5 445,-30.5 570,-30.5 570,-0.5 445,-0.5"/>
<text text-anchor="start" x="453" y="-18.5" font-family="Helvetica,sans-Serif" font-size="10.00">std::shared_ptr&lt; g4db</text>
<text text-anchor="middle" x="507.5" y="-7.5" font-family="Helvetica,sans-Serif" font-size="10.00">::PrototypeModel &gt;</text>
</a>
</g>
</g>
<!-- Node5&#45;&gt;Node1 -->
<g id="edge4" class="edge">
<title>Node5&#45;&gt;Node1</title>
<path fill="none" stroke="#9a32cd" stroke-dasharray="5,2" d="M580.43,-22.46C608.67,-25.23 641.36,-28.47 671,-31.5 676.84,-32.1 682.87,-32.72 688.94,-33.35"/>
<polygon fill="#9a32cd" stroke="#9a32cd" points="580.54,-18.96 570.24,-21.47 579.85,-25.92 580.54,-18.96"/>
<text text-anchor="middle" x="635.5" y="-34.5" font-family="Helvetica,sans-Serif" font-size="10.00"> model_</text>
</g>
<!-- Node6 -->
<g id="node6" class="node">
<title>Node6</title>
<g id="a_node6"><a xlink:href="classg4db_1_1PrototypeModel.html" target="_top" xlink:title="Abstract class representing a model for dark brem.">
<polygon fill="none" stroke="black" points="199.5,-6 199.5,-25 323.5,-25 323.5,-6 199.5,-6"/>
<text text-anchor="middle" x="261.5" y="-13" font-family="Helvetica,sans-Serif" font-size="10.00">g4db::PrototypeModel</text>
</a>
</g>
</g>
<!-- Node6&#45;&gt;Node5 -->
<g id="edge5" class="edge">
<title>Node6&#45;&gt;Node5</title>
<path fill="none" stroke="#9a32cd" stroke-dasharray="5,2" d="M333.95,-15.5C369.1,-15.5 411.06,-15.5 444.79,-15.5"/>
<polygon fill="#9a32cd" stroke="#9a32cd" points="333.76,-12 323.76,-15.5 333.76,-19 333.76,-12"/>
<text text-anchor="middle" x="390.5" y="-18.5" font-family="Helvetica,sans-Serif" font-size="10.00"> ptr</text>
</g>
</g>
</svg>
