<?xml version="1.0" encoding="UTF-8" standalone="no"?>
<!DOCTYPE svg PUBLIC "-//W3C//DTD SVG 1.1//EN"
 "http://www.w3.org/Graphics/SVG/1.1/DTD/svg11.dtd">
<!-- Generated by graphviz version 2.43.0 (0)
 -->
<!-- Title: G4DarkBremsstrahlung Pages: 1 -->
<svg width="1194pt" height="273pt"
 viewBox="0.00 0.00 1194.00 272.50" xmlns="http://www.w3.org/2000/svg" xmlns:xlink="http://www.w3.org/1999/xlink">
<g id="graph0" class="graph" transform="scale(1 1) rotate(0) translate(4 268.5)">
<title>G4DarkBremsstrahlung</title>
<!-- Node1 -->
<g id="node1" class="node">
<title>Node1</title>
<g id="a_node1"><a xlink:title=" ">
<polygon fill="#bfbfbf" stroke="black" points="1055,-133 1055,-152 1186,-152 1186,-133 1055,-133"/>
<text text-anchor="middle" x="1120.5" y="-140" font-family="Helvetica,sans-Serif" font-size="10.00">G4DarkBremsstrahlung</text>
</a>
</g>
</g>
<!-- Node2 -->
<g id="node2" class="node">
<title>Node2</title>
<g id="a_node2"><a xlink:title=" ">
<polygon fill="none" stroke="#bfbfbf" points="730,-245 730,-264 845,-264 845,-245 730,-245"/>
<text text-anchor="middle" x="787.5" y="-252" font-family="Helvetica,sans-Serif" font-size="10.00">G4VDiscreteProcess</text>
</a>
</g>
</g>
<!-- Node2&#45;&gt;Node1 -->
<g id="edge1" class="edge">
<title>Node2&#45;&gt;Node1</title>
<path fill="none" stroke="midnightblue" d="M855.24,-260.48C907.36,-262.3 980.21,-258.42 1037,-230.5 1073.65,-212.48 1102.33,-170.85 1113.92,-152.04"/>
<polygon fill="midnightblue" stroke="midnightblue" points="855.25,-256.98 845.11,-260.04 854.95,-263.97 855.25,-256.98"/>
</g>
<!-- Node3 -->
<g id="node3" class="node">
<title>Node3</title>
<g id="a_node3"><a xlink:href="classg4db_1_1ElementXsecCache.html" target="_top" xlink:title="The cache of already computed cross sections.">
<polygon fill="none" stroke="black" points="717.5,-153 717.5,-172 857.5,-172 857.5,-153 717.5,-153"/>
<text text-anchor="middle" x="787.5" y="-160" font-family="Helvetica,sans-Serif" font-size="10.00">g4db::ElementXsecCache</text>
</a>
</g>
</g>
<!-- Node3&#45;&gt;Node1 -->
<g id="edge2" class="edge">
<title>Node3&#45;&gt;Node1</title>
<path fill="none" stroke="#9a32cd" stroke-dasharray="5,2" d="M867.99,-157.7C925.23,-154.24 1001.49,-149.63 1054.98,-146.4"/>
<polygon fill="#9a32cd" stroke="#9a32cd" points="867.66,-154.21 857.89,-158.31 868.08,-161.2 867.66,-154.21"/>
<text text-anchor="middle" x="964.5" y="-158.5" font-family="Helvetica,sans-Serif" font-size="10.00"> element_xsec_cache_</text>
</g>
<!-- Node4 -->
<g id="node4" class="node">
<title>Node4</title>
<g id="a_node4"><a xlink:title=" ">
<polygon fill="none" stroke="#bfbfbf" points="433,-161 433,-180 594,-180 594,-161 433,-161"/>
<text text-anchor="middle" x="513.5" y="-168" font-family="Helvetica,sans-Serif" font-size="10.00">std::map&lt; key_t, G4double &gt;</text>
</a>
</g>
</g>
<!-- Node4&#45;&gt;Node3 -->
<g id="edge3" class="edge">
<title>Node4&#45;&gt;Node3</title>
<path fill="none" stroke="#9a32cd" stroke-dasharray="5,2" d="M604.24,-170.2C629.7,-169.91 657.45,-169.39 683,-168.5 694.15,-168.11 705.97,-167.56 717.49,-166.94"/>
<polygon fill="#9a32cd" stroke="#9a32cd" points="604.19,-166.7 594.23,-170.31 604.27,-173.7 604.19,-166.7"/>
<text text-anchor="middle" x="647.5" y="-172.5" font-family="Helvetica,sans-Serif" font-size="10.00"> the_cache_</text>
</g>
<!-- Node5 -->
<g id="node5" class="node">
<title>Node5</title>
<g id="a_node5"><a xlink:title=" ">
<polygon fill="none" stroke="#bfbfbf" points="451,-110.5 451,-140.5 576,-140.5 576,-110.5 451,-110.5"/>
<text text-anchor="start" x="459" y="-128.5" font-family="Helvetica,sans-Serif" font-size="10.00">std::shared_ptr&lt; g4db</text>
<text text-anchor="middle" x="513.5" y="-117.5" font-family="Helvetica,sans-Serif" font-size="10.00">::PrototypeModel &gt;</text>
</a>
</g>
</g>
<!-- Node5&#45;&gt;Node1 -->
<g id="edge14" class="edge">
<title>Node5&#45;&gt;Node1</title>
<path fill="none" stroke="#9a32cd" stroke-dasharray="5,2" d="M586.61,-126.45C659.2,-127.52 774.38,-129.5 874,-132.5 935.4,-134.35 1005.4,-137.28 1054.9,-139.49"/>
<polygon fill="#9a32cd" stroke="#9a32cd" points="586.26,-122.95 576.21,-126.3 586.16,-129.95 586.26,-122.95"/>
<text text-anchor="middle" x="787.5" y="-135.5" font-family="Helvetica,sans-Serif" font-size="10.00"> model_</text>
</g>
<!-- Node5&#45;&gt;Node3 -->
<g id="edge4" class="edge">
<title>Node5&#45;&gt;Node3</title>
<path fill="none" stroke="#9a32cd" stroke-dasharray="5,2" d="M586.3,-135.27C626.85,-140.78 677.27,-147.64 717.37,-153.1"/>
<polygon fill="#9a32cd" stroke="#9a32cd" points="586.6,-131.78 576.22,-133.9 585.66,-138.71 586.6,-131.78"/>
<text text-anchor="middle" x="647.5" y="-150.5" font-family="Helvetica,sans-Serif" font-size="10.00"> model_</text>
</g>
<!-- Node9 -->
<g id="node9" class="node">
<title>Node9</title>
<g id="a_node9"><a xlink:href="classg4db_1_1ElementXsecInterpolation.html" target="_top" xlink:title="Interpolation of cross sections by element.">
<polygon fill="none" stroke="black" points="701,-68 701,-87 874,-87 874,-68 701,-68"/>
<text text-anchor="middle" x="787.5" y="-75" font-family="Helvetica,sans-Serif" font-size="10.00">g4db::ElementXsecInterpolation</text>
</a>
</g>
</g>
<!-- Node5&#45;&gt;Node9 -->
<g id="edge12" class="edge">
<title>Node5&#45;&gt;Node9</title>
<path fill="none" stroke="#9a32cd" stroke-dasharray="5,2" d="M573.25,-107.7C585.95,-104.28 599.36,-101 612,-98.5 640.74,-92.83 672.46,-88.45 700.89,-85.21"/>
<polygon fill="#9a32cd" stroke="#9a32cd" points="571.97,-104.42 563.26,-110.45 573.83,-111.17 571.97,-104.42"/>
<text text-anchor="middle" x="647.5" y="-101.5" font-family="Helvetica,sans-Serif" font-size="10.00"> model_</text>
</g>
<!-- Node6 -->
<g id="node6" class="node">
<title>Node6</title>
<g id="a_node6"><a xlink:href="classg4db_1_1PrototypeModel.html" target="_top" xlink:title="Abstract class representing a model for dark brem.">
<polygon fill="none" stroke="black" points="199.5,-116 199.5,-135 323.5,-135 323.5,-116 199.5,-116"/>
<text text-anchor="middle" x="261.5" y="-123" font-family="Helvetica,sans-Serif" font-size="10.00">g4db::PrototypeModel</text>
</a>
</g>
</g>
<!-- Node6&#45;&gt;Node5 -->
<g id="edge5" class="edge">
<title>Node6&#45;&gt;Node5</title>
<path fill="none" stroke="#9a32cd" stroke-dasharray="5,2" d="M333.84,-125.5C370.71,-125.5 415.28,-125.5 450.67,-125.5"/>
<polygon fill="#9a32cd" stroke="#9a32cd" points="333.66,-122 323.66,-125.5 333.66,-129 333.66,-122"/>
<text text-anchor="middle" x="390.5" y="-128.5" font-family="Helvetica,sans-Serif" font-size="10.00"> ptr</text>
</g>
<!-- Node7 -->
<g id="node7" class="node">
<title>Node7</title>
<g id="a_node7"><a xlink:title="STL class.">
<polygon fill="none" stroke="#bfbfbf" points="755,-18 755,-37 820,-37 820,-18 755,-18"/>
<text text-anchor="middle" x="787.5" y="-25" font-family="Helvetica,sans-Serif" font-size="10.00">std::string</text>
</a>
</g>
</g>
<!-- Node7&#45;&gt;Node1 -->
<g id="edge6" class="edge">
<title>Node7&#45;&gt;Node1</title>
<path fill="none" stroke="#9a32cd" stroke-dasharray="5,2" d="M830.18,-25.69C881.47,-25.13 970,-29.72 1037,-62.5 1071.23,-79.25 1100.31,-115.54 1112.87,-132.89"/>
<polygon fill="#9a32cd" stroke="#9a32cd" points="830.06,-22.19 820.12,-25.87 830.19,-29.19 830.06,-22.19"/>
<text text-anchor="middle" x="964.5" y="-65.5" font-family="Helvetica,sans-Serif" font-size="10.00"> PROCESS_NAME</text>
</g>
<!-- Node8 -->
<g id="node8" class="node">
<title>Node8</title>
<g id="a_node8"><a xlink:title="STL class.">
<polygon fill="none" stroke="#bfbfbf" points="461.5,-0.5 461.5,-30.5 565.5,-30.5 565.5,-0.5 461.5,-0.5"/>
<text text-anchor="start" x="469.5" y="-18.5" font-family="Helvetica,sans-Serif" font-size="10.00">std::basic_string&lt;</text>
<text text-anchor="middle" x="513.5" y="-7.5" font-family="Helvetica,sans-Serif" font-size="10.00"> char &gt;</text>
</a>
</g>
</g>
<!-- Node8&#45;&gt;Node7 -->
<g id="edge7" class="edge">
<title>Node8&#45;&gt;Node7</title>
<path fill="none" stroke="midnightblue" d="M575.74,-18.2C631.27,-20.65 710.94,-24.17 754.7,-26.1"/>
<polygon fill="midnightblue" stroke="midnightblue" points="575.81,-14.7 565.66,-17.76 575.5,-21.69 575.81,-14.7"/>
</g>
<!-- Node9&#45;&gt;Node1 -->
<g id="edge8" class="edge">
<title>Node9&#45;&gt;Node1</title>
<path fill="none" stroke="#9a32cd" stroke-dasharray="5,2" d="M884.19,-76.6C931.07,-78.41 987.87,-83.99 1037,-98.5 1062.84,-106.13 1089.86,-122.37 1105.66,-132.84"/>
<polygon fill="#9a32cd" stroke="#9a32cd" points="884.15,-73.1 874.03,-76.26 883.91,-80.09 884.15,-73.1"/>
<text text-anchor="middle" x="964.5" y="-101.5" font-family="Helvetica,sans-Serif" font-size="10.00"> element_xsec_interpolation_</text>
</g>
<!-- Node10 -->
<g id="node10" class="node">
<title>Node10</title>
<g id="a_node10"><a xlink:title=" ">
<polygon fill="none" stroke="#bfbfbf" points="439,-50 439,-91 588,-91 588,-50 439,-50"/>
<text text-anchor="start" x="447" y="-79" font-family="Helvetica,sans-Serif" font-size="10.00">std::map&lt; int, g4db</text>
<text text-anchor="start" x="447" y="-68" font-family="Helvetica,sans-Serif" font-size="10.00">::ElementXsecInterpolation</text>
<text text-anchor="middle" x="513.5" y="-57" font-family="Helvetica,sans-Serif" font-size="10.00">::SampleSet &gt;</text>
</a>
</g>
</g>
<!-- Node10&#45;&gt;Node9 -->
<g id="edge9" class="edge">
<title>Node10&#45;&gt;Node9</title>
<path fill="none" stroke="#9a32cd" stroke-dasharray="5,2" d="M598.35,-65.01C602.97,-64.81 607.54,-64.64 612,-64.5 643.54,-63.53 651.51,-62.53 683,-64.5 695.2,-65.26 708.16,-66.53 720.64,-67.98"/>
<polygon fill="#9a32cd" stroke="#9a32cd" points="598.04,-61.52 588.21,-65.48 598.36,-68.51 598.04,-61.52"/>
<text text-anchor="middle" x="647.5" y="-67.5" font-family="Helvetica,sans-Serif" font-size="10.00"> the_samples_</text>
</g>
<!-- Node11 -->
<g id="node11" class="node">
<title>Node11</title>
<g id="a_node11"><a xlink:href="classg4db_1_1ElementXsecInterpolation_1_1SampleSet.html" target="_top" xlink:title="A sample set is two parallel vectors limited to operate for our interpolation goal.">
<polygon fill="none" stroke="black" points="175,-63.5 175,-93.5 348,-93.5 348,-63.5 175,-63.5"/>
<text text-anchor="start" x="183" y="-81.5" font-family="Helvetica,sans-Serif" font-size="10.00">g4db::ElementXsecInterpolation</text>
<text text-anchor="middle" x="261.5" y="-70.5" font-family="Helvetica,sans-Serif" font-size="10.00">::SampleSet</text>
</a>
</g>
</g>
<!-- Node11&#45;&gt;Node10 -->
<g id="edge10" class="edge">
<title>Node11&#45;&gt;Node10</title>
<path fill="none" stroke="#9a32cd" stroke-dasharray="5,2" d="M358.29,-75.43C384.92,-74.58 413.43,-73.67 438.6,-72.86"/>
<polygon fill="#9a32cd" stroke="#9a32cd" points="358.07,-71.94 348.19,-75.76 358.29,-78.94 358.07,-71.94"/>
<text text-anchor="middle" x="390.5" y="-78.5" font-family="Helvetica,sans-Serif" font-size="10.00"> elements</text>
</g>
<!-- Node12 -->
<g id="node12" class="node">
<title>Node12</title>
<g id="a_node12"><a xlink:title=" ">
<polygon fill="none" stroke="#bfbfbf" points="0,-138 0,-157 124,-157 124,-138 0,-138"/>
<text text-anchor="middle" x="62" y="-145" font-family="Helvetica,sans-Serif" font-size="10.00">std::vector&lt; double &gt;</text>
</a>
</g>
</g>
<!-- Node12&#45;&gt;Node1 -->
<g id="edge13" class="edge">
<title>Node12&#45;&gt;Node1</title>
<path fill="none" stroke="#9a32cd" stroke-dasharray="5,2" d="M87.65,-162.16C124.1,-182.42 195.15,-216.5 260.5,-216.5 260.5,-216.5 260.5,-216.5 788.5,-216.5 905.38,-216.5 1040.01,-172.01 1094.6,-152.02"/>
<polygon fill="#9a32cd" stroke="#9a32cd" points="89.15,-158.99 78.73,-157.09 85.7,-165.08 89.15,-158.99"/>
<text text-anchor="middle" x="513.5" y="-219.5" font-family="Helvetica,sans-Serif" font-size="10.00"> partial_sum_sigma_</text>
</g>
<!-- Node12&#45;&gt;Node11 -->
<g id="edge11" class="edge">
<title>Node12&#45;&gt;Node11</title>
<path fill="none" stroke="#9a32cd" stroke-dasharray="5,2" d="M97.86,-134.39C119.91,-126.18 149.04,-115.5 175,-106.5 187.4,-102.2 200.86,-97.71 213.36,-93.61"/>
<polygon fill="#9a32cd" stroke="#9a32cd" points="96.41,-131.19 88.27,-137.97 98.86,-137.75 96.41,-131.19"/>
<text text-anchor="middle" x="149.5" y="-130.5" font-family="Helvetica,sans-Serif" font-size="10.00"> y_</text>
<text text-anchor="middle" x="149.5" y="-119.5" font-family="Helvetica,sans-Serif" font-size="10.00">x_</text>
</g>
</g>
</svg>
