<?xml version="1.0" encoding="UTF-8" standalone="no"?>
<!DOCTYPE svg PUBLIC "-//W3C//DTD SVG 1.1//EN"
 "http://www.w3.org/Graphics/SVG/1.1/DTD/svg11.dtd">
<!-- Generated by graphviz version 2.43.0 (0)
 -->
<!-- Title: g4db::example::APrimePhysics Pages: 1 -->
<svg width="1793pt" height="273pt"
 viewBox="0.00 0.00 1793.00 272.50" xmlns="http://www.w3.org/2000/svg" xmlns:xlink="http://www.w3.org/1999/xlink">
<g id="graph0" class="graph" transform="scale(1 1) rotate(0) translate(4 268.5)">
<title>g4db::example::APrimePhysics</title>
<!-- Node1 -->
<g id="node1" class="node">
<title>Node1</title>
<g id="a_node1"><a xlink:title="basic physics constructor which simply creates the A&#39; and the dark brem">
<polygon fill="#bfbfbf" stroke="black" points="1618,-86 1618,-105 1785,-105 1785,-86 1618,-86"/>
<text text-anchor="middle" x="1701.5" y="-93" font-family="Helvetica,sans-Serif" font-size="10.00">g4db::example::APrimePhysics</text>
</a>
</g>
</g>
<!-- Node2 -->
<g id="node2" class="node">
<title>Node2</title>
<g id="a_node2"><a xlink:title=" ">
<polygon fill="none" stroke="#bfbfbf" points="1337,-124 1337,-143 1467,-143 1467,-124 1337,-124"/>
<text text-anchor="middle" x="1402" y="-131" font-family="Helvetica,sans-Serif" font-size="10.00">G4VPhysicsConstructor</text>
</a>
</g>
</g>
<!-- Node2&#45;&gt;Node1 -->
<g id="edge1" class="edge">
<title>Node2&#45;&gt;Node1</title>
<path fill="none" stroke="midnightblue" d="M1477.56,-125.36C1514.44,-121.19 1559.6,-115.87 1600,-110.5 1612.59,-108.83 1626.05,-106.91 1638.89,-105.01"/>
<polygon fill="midnightblue" stroke="midnightblue" points="1476.94,-121.91 1467.39,-126.51 1477.72,-128.87 1476.94,-121.91"/>
</g>
<!-- Node3 -->
<g id="node3" class="node">
<title>Node3</title>
<g id="a_node3"><a xlink:title="STL class.">
<polygon fill="none" stroke="#bfbfbf" points="755,-21 755,-40 820,-40 820,-21 755,-21"/>
<text text-anchor="middle" x="787.5" y="-28" font-family="Helvetica,sans-Serif" font-size="10.00">std::string</text>
</a>
</g>
</g>
<!-- Node3&#45;&gt;Node1 -->
<g id="edge2" class="edge">
<title>Node3&#45;&gt;Node1</title>
<path fill="none" stroke="#9a32cd" stroke-dasharray="5,2" d="M830.18,-32.52C941.46,-38.04 1254.85,-54.48 1515,-76.5 1548.71,-79.35 1585.81,-83.04 1617.91,-86.41"/>
<polygon fill="#9a32cd" stroke="#9a32cd" points="830.21,-29.02 820.05,-32.02 829.86,-36.01 830.21,-29.02"/>
<text text-anchor="middle" x="1237.5" y="-61.5" font-family="Helvetica,sans-Serif" font-size="10.00"> library_path_</text>
</g>
<!-- Node6 -->
<g id="node6" class="node">
<title>Node6</title>
<g id="a_node6"><a xlink:href="classG4DarkBremsstrahlung.html" target="_top" xlink:title=" ">
<polygon fill="none" stroke="black" points="1055,-114 1055,-133 1186,-133 1186,-114 1055,-114"/>
<text text-anchor="middle" x="1120.5" y="-121" font-family="Helvetica,sans-Serif" font-size="10.00">G4DarkBremsstrahlung</text>
</a>
</g>
</g>
<!-- Node3&#45;&gt;Node6 -->
<g id="edge11" class="edge">
<title>Node3&#45;&gt;Node6</title>
<path fill="none" stroke="#9a32cd" stroke-dasharray="5,2" d="M830.29,-35.69C896.05,-44.01 1018.15,-60.14 1037,-67.5 1065.38,-78.58 1093.73,-100.89 1108.68,-113.76"/>
<polygon fill="#9a32cd" stroke="#9a32cd" points="830.61,-32.2 820.25,-34.42 829.73,-39.15 830.61,-32.2"/>
<text text-anchor="middle" x="964.5" y="-70.5" font-family="Helvetica,sans-Serif" font-size="10.00"> PROCESS_NAME</text>
</g>
<!-- Node4 -->
<g id="node4" class="node">
<title>Node4</title>
<g id="a_node4"><a xlink:title="STL class.">
<polygon fill="none" stroke="#bfbfbf" points="461.5,-0.5 461.5,-30.5 565.5,-30.5 565.5,-0.5 461.5,-0.5"/>
<text text-anchor="start" x="469.5" y="-18.5" font-family="Helvetica,sans-Serif" font-size="10.00">std::basic_string&lt;</text>
<text text-anchor="middle" x="513.5" y="-7.5" font-family="Helvetica,sans-Serif" font-size="10.00"> char &gt;</text>
</a>
</g>
</g>
<!-- Node4&#45;&gt;Node3 -->
<g id="edge3" class="edge">
<title>Node4&#45;&gt;Node3</title>
<path fill="none" stroke="midnightblue" d="M575.74,-18.88C631.27,-21.94 710.94,-26.33 754.7,-28.75"/>
<polygon fill="midnightblue" stroke="midnightblue" points="575.84,-15.38 565.66,-18.32 575.45,-22.37 575.84,-15.38"/>
</g>
<!-- Node5 -->
<g id="node5" class="node">
<title>Node5</title>
<g id="a_node5"><a xlink:title=" ">
<polygon fill="none" stroke="#bfbfbf" points="1289,-86 1289,-105 1515,-105 1515,-86 1289,-86"/>
<text text-anchor="middle" x="1402" y="-93" font-family="Helvetica,sans-Serif" font-size="10.00">std::unique_ptr&lt; G4DarkBremsstrahlung &gt;</text>
</a>
</g>
</g>
<!-- Node5&#45;&gt;Node1 -->
<g id="edge4" class="edge">
<title>Node5&#45;&gt;Node1</title>
<path fill="none" stroke="#9a32cd" stroke-dasharray="5,2" d="M1525.11,-95.5C1556.29,-95.5 1589.09,-95.5 1617.77,-95.5"/>
<polygon fill="#9a32cd" stroke="#9a32cd" points="1525.05,-92 1515.05,-95.5 1525.05,-99 1525.05,-92"/>
<text text-anchor="middle" x="1566.5" y="-98.5" font-family="Helvetica,sans-Serif" font-size="10.00"> the_process_</text>
</g>
<!-- Node6&#45;&gt;Node5 -->
<g id="edge5" class="edge">
<title>Node6&#45;&gt;Node5</title>
<path fill="none" stroke="#9a32cd" stroke-dasharray="5,2" d="M1196.56,-115.98C1230.23,-112.61 1270.33,-108.59 1306.06,-105.01"/>
<polygon fill="#9a32cd" stroke="#9a32cd" points="1195.93,-112.53 1186.33,-117.01 1196.62,-119.49 1195.93,-112.53"/>
<text text-anchor="middle" x="1237.5" y="-117.5" font-family="Helvetica,sans-Serif" font-size="10.00"> ptr</text>
</g>
<!-- Node7 -->
<g id="node7" class="node">
<title>Node7</title>
<g id="a_node7"><a xlink:title=" ">
<polygon fill="none" stroke="#bfbfbf" points="730,-245 730,-264 845,-264 845,-245 730,-245"/>
<text text-anchor="middle" x="787.5" y="-252" font-family="Helvetica,sans-Serif" font-size="10.00">G4VDiscreteProcess</text>
</a>
</g>
</g>
<!-- Node7&#45;&gt;Node6 -->
<g id="edge6" class="edge">
<title>Node7&#45;&gt;Node6</title>
<path fill="none" stroke="midnightblue" d="M855.27,-261.94C907.86,-264.66 981.35,-261.27 1037,-230.5 1078.26,-207.68 1105.59,-154.73 1115.43,-133.04"/>
<polygon fill="midnightblue" stroke="midnightblue" points="855.23,-258.43 845.04,-261.32 854.81,-265.42 855.23,-258.43"/>
</g>
<!-- Node8 -->
<g id="node8" class="node">
<title>Node8</title>
<g id="a_node8"><a xlink:href="classg4db_1_1ElementXsecCache.html" target="_top" xlink:title="The cache of already computed cross sections.">
<polygon fill="none" stroke="black" points="717.5,-153 717.5,-172 857.5,-172 857.5,-153 717.5,-153"/>
<text text-anchor="middle" x="787.5" y="-160" font-family="Helvetica,sans-Serif" font-size="10.00">g4db::ElementXsecCache</text>
</a>
</g>
</g>
<!-- Node8&#45;&gt;Node6 -->
<g id="edge7" class="edge">
<title>Node8&#45;&gt;Node6</title>
<path fill="none" stroke="#9a32cd" stroke-dasharray="5,2" d="M867.93,-155.89C916.79,-151.48 980.64,-145.11 1037,-137.5 1046.5,-136.22 1056.59,-134.67 1066.33,-133.07"/>
<polygon fill="#9a32cd" stroke="#9a32cd" points="867.39,-152.43 857.74,-156.8 868.01,-159.4 867.39,-152.43"/>
<text text-anchor="middle" x="964.5" y="-155.5" font-family="Helvetica,sans-Serif" font-size="10.00"> element_xsec_cache_</text>
</g>
<!-- Node9 -->
<g id="node9" class="node">
<title>Node9</title>
<g id="a_node9"><a xlink:title=" ">
<polygon fill="none" stroke="#bfbfbf" points="433,-161 433,-180 594,-180 594,-161 433,-161"/>
<text text-anchor="middle" x="513.5" y="-168" font-family="Helvetica,sans-Serif" font-size="10.00">std::map&lt; key_t, G4double &gt;</text>
</a>
</g>
</g>
<!-- Node9&#45;&gt;Node8 -->
<g id="edge8" class="edge">
<title>Node9&#45;&gt;Node8</title>
<path fill="none" stroke="#9a32cd" stroke-dasharray="5,2" d="M604.24,-170.2C629.7,-169.91 657.45,-169.39 683,-168.5 694.15,-168.11 705.97,-167.56 717.49,-166.94"/>
<polygon fill="#9a32cd" stroke="#9a32cd" points="604.19,-166.7 594.23,-170.31 604.27,-173.7 604.19,-166.7"/>
<text text-anchor="middle" x="647.5" y="-172.5" font-family="Helvetica,sans-Serif" font-size="10.00"> the_cache_</text>
</g>
<!-- Node10 -->
<g id="node10" class="node">
<title>Node10</title>
<g id="a_node10"><a xlink:title=" ">
<polygon fill="none" stroke="#bfbfbf" points="451,-110.5 451,-140.5 576,-140.5 576,-110.5 451,-110.5"/>
<text text-anchor="start" x="459" y="-128.5" font-family="Helvetica,sans-Serif" font-size="10.00">std::shared_ptr&lt; g4db</text>
<text text-anchor="middle" x="513.5" y="-117.5" font-family="Helvetica,sans-Serif" font-size="10.00">::PrototypeModel &gt;</text>
</a>
</g>
</g>
<!-- Node10&#45;&gt;Node6 -->
<g id="edge18" class="edge">
<title>Node10&#45;&gt;Node6</title>
<path fill="none" stroke="#9a32cd" stroke-dasharray="5,2" d="M586.21,-125.26C705.02,-124.87 940.91,-124.09 1054.88,-123.71"/>
<polygon fill="#9a32cd" stroke="#9a32cd" points="586.11,-121.76 576.12,-125.3 586.13,-128.76 586.11,-121.76"/>
<text text-anchor="middle" x="787.5" y="-127.5" font-family="Helvetica,sans-Serif" font-size="10.00"> model_</text>
</g>
<!-- Node10&#45;&gt;Node8 -->
<g id="edge9" class="edge">
<title>Node10&#45;&gt;Node8</title>
<path fill="none" stroke="#9a32cd" stroke-dasharray="5,2" d="M586.3,-135.27C626.85,-140.78 677.27,-147.64 717.37,-153.1"/>
<polygon fill="#9a32cd" stroke="#9a32cd" points="586.6,-131.78 576.22,-133.9 585.66,-138.71 586.6,-131.78"/>
<text text-anchor="middle" x="647.5" y="-150.5" font-family="Helvetica,sans-Serif" font-size="10.00"> model_</text>
</g>
<!-- Node12 -->
<g id="node12" class="node">
<title>Node12</title>
<g id="a_node12"><a xlink:href="classg4db_1_1ElementXsecInterpolation.html" target="_top" xlink:title="Interpolation of cross sections by element.">
<polygon fill="none" stroke="black" points="701,-68 701,-87 874,-87 874,-68 701,-68"/>
<text text-anchor="middle" x="787.5" y="-75" font-family="Helvetica,sans-Serif" font-size="10.00">g4db::ElementXsecInterpolation</text>
</a>
</g>
</g>
<!-- Node10&#45;&gt;Node12 -->
<g id="edge16" class="edge">
<title>Node10&#45;&gt;Node12</title>
<path fill="none" stroke="#9a32cd" stroke-dasharray="5,2" d="M573.25,-107.7C585.95,-104.28 599.36,-101 612,-98.5 640.74,-92.83 672.46,-88.45 700.89,-85.21"/>
<polygon fill="#9a32cd" stroke="#9a32cd" points="571.97,-104.42 563.26,-110.45 573.83,-111.17 571.97,-104.42"/>
<text text-anchor="middle" x="647.5" y="-101.5" font-family="Helvetica,sans-Serif" font-size="10.00"> model_</text>
</g>
<!-- Node11 -->
<g id="node11" class="node">
<title>Node11</title>
<g id="a_node11"><a xlink:href="classg4db_1_1PrototypeModel.html" target="_top" xlink:title="Abstract class representing a model for dark brem.">
<polygon fill="none" stroke="black" points="199.5,-116 199.5,-135 323.5,-135 323.5,-116 199.5,-116"/>
<text text-anchor="middle" x="261.5" y="-123" font-family="Helvetica,sans-Serif" font-size="10.00">g4db::PrototypeModel</text>
</a>
</g>
</g>
<!-- Node11&#45;&gt;Node10 -->
<g id="edge10" class="edge">
<title>Node11&#45;&gt;Node10</title>
<path fill="none" stroke="#9a32cd" stroke-dasharray="5,2" d="M333.84,-125.5C370.71,-125.5 415.28,-125.5 450.67,-125.5"/>
<polygon fill="#9a32cd" stroke="#9a32cd" points="333.66,-122 323.66,-125.5 333.66,-129 333.66,-122"/>
<text text-anchor="middle" x="390.5" y="-128.5" font-family="Helvetica,sans-Serif" font-size="10.00"> ptr</text>
</g>
<!-- Node12&#45;&gt;Node6 -->
<g id="edge12" class="edge">
<title>Node12&#45;&gt;Node6</title>
<path fill="none" stroke="#9a32cd" stroke-dasharray="5,2" d="M884.27,-80.89C930.7,-83.73 987.08,-88.94 1037,-98.5 1056.11,-102.16 1077.08,-108.55 1093.1,-113.95"/>
<polygon fill="#9a32cd" stroke="#9a32cd" points="884.4,-77.39 874.21,-80.31 883.99,-84.38 884.4,-77.39"/>
<text text-anchor="middle" x="964.5" y="-101.5" font-family="Helvetica,sans-Serif" font-size="10.00"> element_xsec_interpolation_</text>
</g>
<!-- Node13 -->
<g id="node13" class="node">
<title>Node13</title>
<g id="a_node13"><a xlink:title=" ">
<polygon fill="none" stroke="#bfbfbf" points="439,-50 439,-91 588,-91 588,-50 439,-50"/>
<text text-anchor="start" x="447" y="-79" font-family="Helvetica,sans-Serif" font-size="10.00">std::map&lt; int, g4db</text>
<text text-anchor="start" x="447" y="-68" font-family="Helvetica,sans-Serif" font-size="10.00">::ElementXsecInterpolation</text>
<text text-anchor="middle" x="513.5" y="-57" font-family="Helvetica,sans-Serif" font-size="10.00">::SampleSet &gt;</text>
</a>
</g>
</g>
<!-- Node13&#45;&gt;Node12 -->
<g id="edge13" class="edge">
<title>Node13&#45;&gt;Node12</title>
<path fill="none" stroke="#9a32cd" stroke-dasharray="5,2" d="M598.35,-65.01C602.97,-64.81 607.54,-64.64 612,-64.5 643.54,-63.53 651.51,-62.53 683,-64.5 695.2,-65.26 708.16,-66.53 720.64,-67.98"/>
<polygon fill="#9a32cd" stroke="#9a32cd" points="598.04,-61.52 588.21,-65.48 598.36,-68.51 598.04,-61.52"/>
<text text-anchor="middle" x="647.5" y="-67.5" font-family="Helvetica,sans-Serif" font-size="10.00"> the_samples_</text>
</g>
<!-- Node14 -->
<g id="node14" class="node">
<title>Node14</title>
<g id="a_node14"><a xlink:href="classg4db_1_1ElementXsecInterpolation_1_1SampleSet.html" target="_top" xlink:title="A sample set is two parallel vectors limited to operate for our interpolation goal.">
<polygon fill="none" stroke="black" points="175,-63.5 175,-93.5 348,-93.5 348,-63.5 175,-63.5"/>
<text text-anchor="start" x="183" y="-81.5" font-family="Helvetica,sans-Serif" font-size="10.00">g4db::ElementXsecInterpolation</text>
<text text-anchor="middle" x="261.5" y="-70.5" font-family="Helvetica,sans-Serif" font-size="10.00">::SampleSet</text>
</a>
</g>
</g>
<!-- Node14&#45;&gt;Node13 -->
<g id="edge14" class="edge">
<title>Node14&#45;&gt;Node13</title>
<path fill="none" stroke="#9a32cd" stroke-dasharray="5,2" d="M358.29,-75.43C384.92,-74.58 413.43,-73.67 438.6,-72.86"/>
<polygon fill="#9a32cd" stroke="#9a32cd" points="358.07,-71.94 348.19,-75.76 358.29,-78.94 358.07,-71.94"/>
<text text-anchor="middle" x="390.5" y="-78.5" font-family="Helvetica,sans-Serif" font-size="10.00"> elements</text>
</g>
<!-- Node15 -->
<g id="node15" class="node">
<title>Node15</title>
<g id="a_node15"><a xlink:title=" ">
<polygon fill="none" stroke="#bfbfbf" points="0,-138 0,-157 124,-157 124,-138 0,-138"/>
<text text-anchor="middle" x="62" y="-145" font-family="Helvetica,sans-Serif" font-size="10.00">std::vector&lt; double &gt;</text>
</a>
</g>
</g>
<!-- Node15&#45;&gt;Node6 -->
<g id="edge17" class="edge">
<title>Node15&#45;&gt;Node6</title>
<path fill="none" stroke="#9a32cd" stroke-dasharray="5,2" d="M87.65,-162.16C124.1,-182.42 195.15,-216.5 260.5,-216.5 260.5,-216.5 260.5,-216.5 788.5,-216.5 901.07,-216.5 930.96,-205.29 1037,-167.5 1062.08,-158.56 1088.88,-143.02 1104.91,-133"/>
<polygon fill="#9a32cd" stroke="#9a32cd" points="89.15,-158.99 78.73,-157.09 85.7,-165.08 89.15,-158.99"/>
<text text-anchor="middle" x="513.5" y="-219.5" font-family="Helvetica,sans-Serif" font-size="10.00"> partial_sum_sigma_</text>
</g>
<!-- Node15&#45;&gt;Node14 -->
<g id="edge15" class="edge">
<title>Node15&#45;&gt;Node14</title>
<path fill="none" stroke="#9a32cd" stroke-dasharray="5,2" d="M97.86,-134.39C119.91,-126.18 149.04,-115.5 175,-106.5 187.4,-102.2 200.86,-97.71 213.36,-93.61"/>
<polygon fill="#9a32cd" stroke="#9a32cd" points="96.41,-131.19 88.27,-137.97 98.86,-137.75 96.41,-131.19"/>
<text text-anchor="middle" x="149.5" y="-130.5" font-family="Helvetica,sans-Serif" font-size="10.00"> y_</text>
<text text-anchor="middle" x="149.5" y="-119.5" font-family="Helvetica,sans-Serif" font-size="10.00">x_</text>
</g>
</g>
</svg>
