<?xml version="1.0" encoding="UTF-8" standalone="no"?>
<!DOCTYPE svg PUBLIC "-//W3C//DTD SVG 1.1//EN"
 "http://www.w3.org/Graphics/SVG/1.1/DTD/svg11.dtd">
<!-- Generated by graphviz version 2.43.0 (0)
 -->
<!-- Title: include/G4DarkBreM/G4APrime.h Pages: 1 -->
<svg width="941pt" height="106pt"
 viewBox="0.00 0.00 940.50 106.00" xmlns="http://www.w3.org/2000/svg" xmlns:xlink="http://www.w3.org/1999/xlink">
<g id="graph0" class="graph" transform="scale(1 1) rotate(0) translate(4 102)">
<title>include/G4DarkBreM/G4APrime.h</title>
<!-- Node1 -->
<g id="node1" class="node">
<title>Node1</title>
<g id="a_node1"><a xlink:title="Class creating the A&#39; particle in Geant.">
<polygon fill="#bfbfbf" stroke="black" points="502.5,-67.5 502.5,-97.5 619.5,-97.5 619.5,-67.5 502.5,-67.5"/>
<text text-anchor="start" x="510.5" y="-85.5" font-family="Helvetica,sans-Serif" font-size="10.00">include/G4DarkBreM</text>
<text text-anchor="middle" x="561" y="-74.5" font-family="Helvetica,sans-Serif" font-size="10.00">/G4APrime.h</text>
</a>
</g>
</g>
<!-- Node2 -->
<g id="node2" class="node">
<title>Node2</title>
<g id="a_node2"><a xlink:href="G4APrime_8cxx.html" target="_top" xlink:title="Class creating the A&#39; particle in Geant.">
<polygon fill="none" stroke="black" points="0,-6 0,-25 168,-25 168,-6 0,-6"/>
<text text-anchor="middle" x="84" y="-13" font-family="Helvetica,sans-Serif" font-size="10.00">src/G4DarkBreM/G4APrime.cxx</text>
</a>
</g>
</g>
<!-- Node1&#45;&gt;Node2 -->
<g id="edge1" class="edge">
<title>Node1&#45;&gt;Node2</title>
<path fill="none" stroke="midnightblue" d="M492.35,-72.97C415.47,-63.31 287.2,-46.83 177,-31 164.06,-29.14 150.13,-27.03 137.08,-25"/>
<polygon fill="midnightblue" stroke="midnightblue" points="492.03,-76.46 502.39,-74.23 492.9,-69.52 492.03,-76.46"/>
</g>
<!-- Node3 -->
<g id="node3" class="node">
<title>Node3</title>
<g id="a_node3"><a xlink:href="G4DarkBreMModel_8cxx.html" target="_top" xlink:title="Source file for dark brem model with some static functions that are helpful to be documented.">
<polygon fill="none" stroke="black" points="186,-0.5 186,-30.5 338,-30.5 338,-0.5 186,-0.5"/>
<text text-anchor="start" x="194" y="-18.5" font-family="Helvetica,sans-Serif" font-size="10.00">src/G4DarkBreM/G4DarkBre</text>
<text text-anchor="middle" x="262" y="-7.5" font-family="Helvetica,sans-Serif" font-size="10.00">MModel.cxx</text>
</a>
</g>
</g>
<!-- Node1&#45;&gt;Node3 -->
<g id="edge2" class="edge">
<title>Node1&#45;&gt;Node3</title>
<path fill="none" stroke="midnightblue" d="M492.23,-66.55C442.37,-55.71 375.4,-41.15 326.54,-30.53"/>
<polygon fill="midnightblue" stroke="midnightblue" points="491.77,-70.03 502.28,-68.74 493.26,-63.19 491.77,-70.03"/>
</g>
<!-- Node4 -->
<g id="node4" class="node">
<title>Node4</title>
<g id="a_node4"><a xlink:href="G4DarkBremsstrahlung_8cxx.html" target="_top" xlink:title="Class providing the Dark Bremsstrahlung process class.">
<polygon fill="none" stroke="black" points="356.5,-6 356.5,-25 589.5,-25 589.5,-6 356.5,-6"/>
<text text-anchor="middle" x="473" y="-13" font-family="Helvetica,sans-Serif" font-size="10.00">src/G4DarkBreM/G4DarkBremsstrahlung.cxx</text>
</a>
</g>
</g>
<!-- Node1&#45;&gt;Node4 -->
<g id="edge3" class="edge">
<title>Node1&#45;&gt;Node4</title>
<path fill="none" stroke="midnightblue" d="M533.66,-61.31C517.14,-49.1 496.93,-34.18 484.52,-25.01"/>
<polygon fill="midnightblue" stroke="midnightblue" points="531.78,-64.27 541.91,-67.4 535.94,-58.64 531.78,-64.27"/>
</g>
<!-- Node5 -->
<g id="node5" class="node">
<title>Node5</title>
<g id="a_node5"><a xlink:href="scale_8cxx.html" target="_top" xlink:title=" ">
<polygon fill="none" stroke="black" points="607.5,-6 607.5,-25 690.5,-25 690.5,-6 607.5,-6"/>
<text text-anchor="middle" x="649" y="-13" font-family="Helvetica,sans-Serif" font-size="10.00">app/scale.cxx</text>
</a>
</g>
</g>
<!-- Node1&#45;&gt;Node5 -->
<g id="edge4" class="edge">
<title>Node1&#45;&gt;Node5</title>
<path fill="none" stroke="midnightblue" d="M588.34,-61.31C604.86,-49.1 625.07,-34.18 637.48,-25.01"/>
<polygon fill="midnightblue" stroke="midnightblue" points="586.06,-58.64 580.09,-67.4 590.22,-64.27 586.06,-58.64"/>
</g>
<!-- Node6 -->
<g id="node6" class="node">
<title>Node6</title>
<g id="a_node6"><a xlink:href="simulate_8cxx.html" target="_top" xlink:title=" ">
<polygon fill="none" stroke="black" points="708.5,-6 708.5,-25 809.5,-25 809.5,-6 708.5,-6"/>
<text text-anchor="middle" x="759" y="-13" font-family="Helvetica,sans-Serif" font-size="10.00">app/simulate.cxx</text>
</a>
</g>
</g>
<!-- Node1&#45;&gt;Node6 -->
<g id="edge5" class="edge">
<title>Node1&#45;&gt;Node6</title>
<path fill="none" stroke="midnightblue" d="M613.49,-64.27C652.07,-51.6 702.85,-34.93 733.09,-25.01"/>
<polygon fill="midnightblue" stroke="midnightblue" points="612.37,-60.95 603.96,-67.4 614.56,-67.6 612.37,-60.95"/>
</g>
<!-- Node7 -->
<g id="node7" class="node">
<title>Node7</title>
<g id="a_node7"><a xlink:href="xsec__calc_8cxx.html" target="_top" xlink:title=" ">
<polygon fill="none" stroke="black" points="827.5,-6 827.5,-25 932.5,-25 932.5,-6 827.5,-6"/>
<text text-anchor="middle" x="880" y="-13" font-family="Helvetica,sans-Serif" font-size="10.00">app/xsec_calc.cxx</text>
</a>
</g>
</g>
<!-- Node1&#45;&gt;Node7 -->
<g id="edge6" class="edge">
<title>Node1&#45;&gt;Node7</title>
<path fill="none" stroke="midnightblue" d="M629.67,-68.83C681.74,-59.04 755.02,-44.86 819,-31 827.51,-29.16 836.66,-27.05 845.22,-25.02"/>
<polygon fill="midnightblue" stroke="midnightblue" points="628.73,-65.45 619.54,-70.73 630.02,-72.33 628.73,-65.45"/>
</g>
</g>
</svg>
