<?xml version="1.0" encoding="UTF-8" standalone="no"?>
<!DOCTYPE svg PUBLIC "-//W3C//DTD SVG 1.1//EN"
 "http://www.w3.org/Graphics/SVG/1.1/DTD/svg11.dtd">
<!-- Generated by graphviz version 2.43.0 (0)
 -->
<!-- Title: include/G4DarkBreM/G4DarkBremsstrahlung.h Pages: 1 -->
<svg width="614pt" height="207pt"
 viewBox="0.00 0.00 613.50 207.00" xmlns="http://www.w3.org/2000/svg" xmlns:xlink="http://www.w3.org/1999/xlink">
<g id="graph0" class="graph" transform="scale(1 1) rotate(0) translate(4 203)">
<title>include/G4DarkBreM/G4DarkBremsstrahlung.h</title>
<!-- Node1 -->
<g id="node1" class="node">
<title>Node1</title>
<g id="a_node1"><a xlink:title="Class providing the Dark Bremsstrahlung process class.">
<polygon fill="#bfbfbf" stroke="black" points="146.5,-168.5 146.5,-198.5 289.5,-198.5 289.5,-168.5 146.5,-168.5"/>
<text text-anchor="start" x="154.5" y="-186.5" font-family="Helvetica,sans-Serif" font-size="10.00">include/G4DarkBreM</text>
<text text-anchor="middle" x="218" y="-175.5" font-family="Helvetica,sans-Serif" font-size="10.00">/G4DarkBremsstrahlung.h</text>
</a>
</g>
</g>
<!-- Node2 -->
<g id="node2" class="node">
<title>Node2</title>
<g id="a_node2"><a xlink:title=" ">
<polygon fill="none" stroke="#bfbfbf" points="0,-112.5 0,-131.5 130,-131.5 130,-112.5 0,-112.5"/>
<text text-anchor="middle" x="65" y="-119.5" font-family="Helvetica,sans-Serif" font-size="10.00">G4VDiscreteProcess.hh</text>
</a>
</g>
</g>
<!-- Node1&#45;&gt;Node2 -->
<g id="edge1" class="edge">
<title>Node1&#45;&gt;Node2</title>
<path fill="none" stroke="midnightblue" d="M181.74,-168.4C155.96,-158.37 121.64,-145.03 96.9,-135.4"/>
<polygon fill="midnightblue" stroke="midnightblue" points="97.85,-132.02 87.26,-131.66 95.31,-138.54 97.85,-132.02"/>
</g>
<!-- Node3 -->
<g id="node3" class="node">
<title>Node3</title>
<g id="a_node3"><a xlink:href="PrototypeModel_8h.html" target="_top" xlink:title="Class providing a prototype model for dark brem.">
<polygon fill="none" stroke="black" points="194,-56.5 194,-75.5 362,-75.5 362,-56.5 194,-56.5"/>
<text text-anchor="middle" x="278" y="-63.5" font-family="Helvetica,sans-Serif" font-size="10.00">G4DarkBreM/PrototypeModel.h</text>
</a>
</g>
</g>
<!-- Node1&#45;&gt;Node3 -->
<g id="edge2" class="edge">
<title>Node1&#45;&gt;Node3</title>
<path fill="none" stroke="midnightblue" d="M199.46,-168.25C183.07,-153.86 163.55,-131.1 176,-112 186.48,-95.92 204.14,-85.55 221.85,-78.87"/>
<polygon fill="midnightblue" stroke="midnightblue" points="223.31,-82.07 231.64,-75.53 221.05,-75.45 223.31,-82.07"/>
</g>
<!-- Node7 -->
<g id="node7" class="node">
<title>Node7</title>
<g id="a_node7"><a xlink:href="ElementXsecCache_8h_source.html" target="_top" xlink:title=" ">
<polygon fill="none" stroke="black" points="185.5,-112.5 185.5,-131.5 370.5,-131.5 370.5,-112.5 185.5,-112.5"/>
<text text-anchor="middle" x="278" y="-119.5" font-family="Helvetica,sans-Serif" font-size="10.00">G4DarkBreM/ElementXsecCache.h</text>
</a>
</g>
</g>
<!-- Node1&#45;&gt;Node7 -->
<g id="edge6" class="edge">
<title>Node1&#45;&gt;Node7</title>
<path fill="none" stroke="midnightblue" d="M232.22,-168.4C241.21,-159.49 252.84,-147.95 262.13,-138.74"/>
<polygon fill="midnightblue" stroke="midnightblue" points="264.63,-141.18 269.27,-131.66 259.7,-136.21 264.63,-141.18"/>
</g>
<!-- Node9 -->
<g id="node9" class="node">
<title>Node9</title>
<g id="a_node9"><a xlink:href="ElementXsecInterpolation_8h_source.html" target="_top" xlink:title=" ">
<polygon fill="none" stroke="black" points="388.5,-112.5 388.5,-131.5 605.5,-131.5 605.5,-112.5 388.5,-112.5"/>
<text text-anchor="middle" x="497" y="-119.5" font-family="Helvetica,sans-Serif" font-size="10.00">G4DarkBreM/ElementXsecInterpolation.h</text>
</a>
</g>
</g>
<!-- Node1&#45;&gt;Node9 -->
<g id="edge9" class="edge">
<title>Node1&#45;&gt;Node9</title>
<path fill="none" stroke="midnightblue" d="M283.77,-168.47C333.79,-157.81 401.57,-143.35 447.17,-133.63"/>
<polygon fill="midnightblue" stroke="midnightblue" points="448.06,-137.02 457.11,-131.51 446.6,-130.17 448.06,-137.02"/>
</g>
<!-- Node4 -->
<g id="node4" class="node">
<title>Node4</title>
<g id="a_node4"><a xlink:title=" ">
<polygon fill="none" stroke="#bfbfbf" points="155.5,-0.5 155.5,-19.5 226.5,-19.5 226.5,-0.5 155.5,-0.5"/>
<text text-anchor="middle" x="191" y="-7.5" font-family="Helvetica,sans-Serif" font-size="10.00">G4Track.hh</text>
</a>
</g>
</g>
<!-- Node3&#45;&gt;Node4 -->
<g id="edge3" class="edge">
<title>Node3&#45;&gt;Node4</title>
<path fill="none" stroke="midnightblue" d="M264.02,-56.32C250.45,-47.9 229.62,-34.97 213.68,-25.07"/>
<polygon fill="midnightblue" stroke="midnightblue" points="215.29,-21.95 204.94,-19.65 211.59,-27.9 215.29,-21.95"/>
</g>
<!-- Node5 -->
<g id="node5" class="node">
<title>Node5</title>
<g id="a_node5"><a xlink:title=" ">
<polygon fill="none" stroke="#bfbfbf" points="244.5,-0.5 244.5,-19.5 311.5,-19.5 311.5,-0.5 244.5,-0.5"/>
<text text-anchor="middle" x="278" y="-7.5" font-family="Helvetica,sans-Serif" font-size="10.00">G4Step.hh</text>
</a>
</g>
</g>
<!-- Node3&#45;&gt;Node5 -->
<g id="edge4" class="edge">
<title>Node3&#45;&gt;Node5</title>
<path fill="none" stroke="midnightblue" d="M278,-56.08C278,-49.01 278,-38.86 278,-29.99"/>
<polygon fill="midnightblue" stroke="midnightblue" points="281.5,-29.75 278,-19.75 274.5,-29.75 281.5,-29.75"/>
</g>
<!-- Node6 -->
<g id="node6" class="node">
<title>Node6</title>
<g id="a_node6"><a xlink:title=" ">
<polygon fill="none" stroke="#bfbfbf" points="330,-0.5 330,-19.5 448,-19.5 448,-0.5 330,-0.5"/>
<text text-anchor="middle" x="389" y="-7.5" font-family="Helvetica,sans-Serif" font-size="10.00">G4ParticleChange.hh</text>
</a>
</g>
</g>
<!-- Node3&#45;&gt;Node6 -->
<g id="edge5" class="edge">
<title>Node3&#45;&gt;Node6</title>
<path fill="none" stroke="midnightblue" d="M295.83,-56.32C313.72,-47.62 341.48,-34.12 362.05,-24.11"/>
<polygon fill="midnightblue" stroke="midnightblue" points="363.75,-27.18 371.21,-19.65 360.69,-20.88 363.75,-27.18"/>
</g>
<!-- Node7&#45;&gt;Node3 -->
<g id="edge8" class="edge">
<title>Node7&#45;&gt;Node3</title>
<path fill="none" stroke="midnightblue" d="M278,-112.08C278,-105.01 278,-94.86 278,-85.99"/>
<polygon fill="midnightblue" stroke="midnightblue" points="281.5,-85.75 278,-75.75 274.5,-85.75 281.5,-85.75"/>
</g>
<!-- Node8 -->
<g id="node8" class="node">
<title>Node8</title>
<g id="a_node8"><a xlink:title=" ">
<polygon fill="none" stroke="#bfbfbf" points="424,-56.5 424,-75.5 482,-75.5 482,-56.5 424,-56.5"/>
<text text-anchor="middle" x="453" y="-63.5" font-family="Helvetica,sans-Serif" font-size="10.00">memory</text>
</a>
</g>
</g>
<!-- Node7&#45;&gt;Node8 -->
<g id="edge7" class="edge">
<title>Node7&#45;&gt;Node8</title>
<path fill="none" stroke="midnightblue" d="M305.73,-112.44C335.43,-103.28 382.72,-88.69 415.67,-78.52"/>
<polygon fill="midnightblue" stroke="midnightblue" points="416.88,-81.81 425.4,-75.52 414.81,-75.12 416.88,-81.81"/>
</g>
<!-- Node9&#45;&gt;Node3 -->
<g id="edge11" class="edge">
<title>Node9&#45;&gt;Node3</title>
<path fill="none" stroke="midnightblue" d="M462.3,-112.44C424.42,-103.1 363.65,-88.12 322.34,-77.93"/>
<polygon fill="midnightblue" stroke="midnightblue" points="323.09,-74.51 312.54,-75.52 321.41,-81.31 323.09,-74.51"/>
</g>
<!-- Node9&#45;&gt;Node8 -->
<g id="edge10" class="edge">
<title>Node9&#45;&gt;Node8</title>
<path fill="none" stroke="midnightblue" d="M489.73,-112.08C483.46,-104.38 474.21,-93.03 466.57,-83.65"/>
<polygon fill="midnightblue" stroke="midnightblue" points="469.16,-81.29 460.13,-75.75 463.73,-85.71 469.16,-81.29"/>
</g>
</g>
</svg>
