<?xml version="1.0" encoding="UTF-8" standalone="no"?>
<!DOCTYPE svg PUBLIC "-//W3C//DTD SVG 1.1//EN"
 "http://www.w3.org/Graphics/SVG/1.1/DTD/svg11.dtd">
<!-- Generated by graphviz version 2.43.0 (0)
 -->
<!-- Title: include/G4DarkBreM/G4DarkBremsstrahlung.h Pages: 1 -->
<svg width="615pt" height="207pt"
 viewBox="0.00 0.00 614.50 207.00" xmlns="http://www.w3.org/2000/svg" xmlns:xlink="http://www.w3.org/1999/xlink">
<g id="graph0" class="graph" transform="scale(1 1) rotate(0) translate(4 203)">
<title>include/G4DarkBreM/G4DarkBremsstrahlung.h</title>
<!-- Node1 -->
<g id="node1" class="node">
<title>Node1</title>
<g id="a_node1"><a xlink:title="Class providing the Dark Bremsstrahlung process class.">
<polygon fill="#bfbfbf" stroke="black" points="308,-168.5 308,-198.5 451,-198.5 451,-168.5 308,-168.5"/>
<text text-anchor="start" x="316" y="-186.5" font-family="Helvetica,sans-Serif" font-size="10.00">include/G4DarkBreM</text>
<text text-anchor="middle" x="379.5" y="-175.5" font-family="Helvetica,sans-Serif" font-size="10.00">/G4DarkBremsstrahlung.h</text>
</a>
</g>
</g>
<!-- Node2 -->
<g id="node2" class="node">
<title>Node2</title>
<g id="a_node2"><a xlink:href="ElementXsecCache_8h_source.html" target="_top" xlink:title=" ">
<polygon fill="none" stroke="black" points="0,-112.5 0,-131.5 185,-131.5 185,-112.5 0,-112.5"/>
<text text-anchor="middle" x="92.5" y="-119.5" font-family="Helvetica,sans-Serif" font-size="10.00">G4DarkBreM/ElementXsecCache.h</text>
</a>
</g>
</g>
<!-- Node1&#45;&gt;Node2 -->
<g id="edge1" class="edge">
<title>Node1&#45;&gt;Node2</title>
<path fill="none" stroke="midnightblue" d="M311.85,-168.47C260.28,-157.78 190.38,-143.29 143.47,-133.57"/>
<polygon fill="midnightblue" stroke="midnightblue" points="144.03,-130.11 133.53,-131.51 142.61,-136.96 144.03,-130.11"/>
</g>
<!-- Node4 -->
<g id="node4" class="node">
<title>Node4</title>
<g id="a_node4"><a xlink:href="PrototypeModel_8h.html" target="_top" xlink:title="Class providing a prototype model for dark brem.">
<polygon fill="none" stroke="black" points="227.5,-56.5 227.5,-75.5 395.5,-75.5 395.5,-56.5 227.5,-56.5"/>
<text text-anchor="middle" x="311.5" y="-63.5" font-family="Helvetica,sans-Serif" font-size="10.00">G4DarkBreM/PrototypeModel.h</text>
</a>
</g>
</g>
<!-- Node1&#45;&gt;Node4 -->
<g id="edge10" class="edge">
<title>Node1&#45;&gt;Node4</title>
<path fill="none" stroke="midnightblue" d="M401.43,-168.27C420.47,-154.09 443.04,-131.65 429.5,-112 418.27,-95.7 400.29,-85.3 381.72,-78.67"/>
<polygon fill="midnightblue" stroke="midnightblue" points="382.57,-75.27 371.98,-75.53 380.43,-81.93 382.57,-75.27"/>
</g>
<!-- Node8 -->
<g id="node8" class="node">
<title>Node8</title>
<g id="a_node8"><a xlink:href="ElementXsecInterpolation_8h_source.html" target="_top" xlink:title=" ">
<polygon fill="none" stroke="black" points="203,-112.5 203,-131.5 420,-131.5 420,-112.5 203,-112.5"/>
<text text-anchor="middle" x="311.5" y="-119.5" font-family="Helvetica,sans-Serif" font-size="10.00">G4DarkBreM/ElementXsecInterpolation.h</text>
</a>
</g>
</g>
<!-- Node1&#45;&gt;Node8 -->
<g id="edge7" class="edge">
<title>Node1&#45;&gt;Node8</title>
<path fill="none" stroke="midnightblue" d="M363.38,-168.4C353.1,-159.4 339.75,-147.72 329.17,-138.47"/>
<polygon fill="midnightblue" stroke="midnightblue" points="331.23,-135.61 321.39,-131.66 326.62,-140.88 331.23,-135.61"/>
</g>
<!-- Node9 -->
<g id="node9" class="node">
<title>Node9</title>
<g id="a_node9"><a xlink:title=" ">
<polygon fill="none" stroke="#bfbfbf" points="476.5,-112.5 476.5,-131.5 606.5,-131.5 606.5,-112.5 476.5,-112.5"/>
<text text-anchor="middle" x="541.5" y="-119.5" font-family="Helvetica,sans-Serif" font-size="10.00">G4VDiscreteProcess.hh</text>
</a>
</g>
</g>
<!-- Node1&#45;&gt;Node9 -->
<g id="edge11" class="edge">
<title>Node1&#45;&gt;Node9</title>
<path fill="none" stroke="midnightblue" d="M417.89,-168.4C445.44,-158.28 482.17,-144.79 508.42,-135.15"/>
<polygon fill="midnightblue" stroke="midnightblue" points="509.75,-138.39 517.93,-131.66 507.33,-131.82 509.75,-138.39"/>
</g>
<!-- Node3 -->
<g id="node3" class="node">
<title>Node3</title>
<g id="a_node3"><a xlink:title=" ">
<polygon fill="none" stroke="#bfbfbf" points="107.5,-56.5 107.5,-75.5 165.5,-75.5 165.5,-56.5 107.5,-56.5"/>
<text text-anchor="middle" x="136.5" y="-63.5" font-family="Helvetica,sans-Serif" font-size="10.00">memory</text>
</a>
</g>
</g>
<!-- Node2&#45;&gt;Node3 -->
<g id="edge2" class="edge">
<title>Node2&#45;&gt;Node3</title>
<path fill="none" stroke="midnightblue" d="M99.77,-112.08C106.04,-104.38 115.29,-93.03 122.93,-83.65"/>
<polygon fill="midnightblue" stroke="midnightblue" points="125.77,-85.71 129.37,-75.75 120.34,-81.29 125.77,-85.71"/>
</g>
<!-- Node2&#45;&gt;Node4 -->
<g id="edge3" class="edge">
<title>Node2&#45;&gt;Node4</title>
<path fill="none" stroke="midnightblue" d="M127.2,-112.44C165.08,-103.1 225.85,-88.12 267.16,-77.93"/>
<polygon fill="midnightblue" stroke="midnightblue" points="268.09,-81.31 276.96,-75.52 266.41,-74.51 268.09,-81.31"/>
</g>
<!-- Node5 -->
<g id="node5" class="node">
<title>Node5</title>
<g id="a_node5"><a xlink:title=" ">
<polygon fill="none" stroke="#bfbfbf" points="141.5,-0.5 141.5,-19.5 259.5,-19.5 259.5,-0.5 141.5,-0.5"/>
<text text-anchor="middle" x="200.5" y="-7.5" font-family="Helvetica,sans-Serif" font-size="10.00">G4ParticleChange.hh</text>
</a>
</g>
</g>
<!-- Node4&#45;&gt;Node5 -->
<g id="edge4" class="edge">
<title>Node4&#45;&gt;Node5</title>
<path fill="none" stroke="midnightblue" d="M293.67,-56.32C275.78,-47.62 248.02,-34.12 227.45,-24.11"/>
<polygon fill="midnightblue" stroke="midnightblue" points="228.81,-20.88 218.29,-19.65 225.75,-27.18 228.81,-20.88"/>
</g>
<!-- Node6 -->
<g id="node6" class="node">
<title>Node6</title>
<g id="a_node6"><a xlink:title=" ">
<polygon fill="none" stroke="#bfbfbf" points="278,-0.5 278,-19.5 345,-19.5 345,-0.5 278,-0.5"/>
<text text-anchor="middle" x="311.5" y="-7.5" font-family="Helvetica,sans-Serif" font-size="10.00">G4Step.hh</text>
</a>
</g>
</g>
<!-- Node4&#45;&gt;Node6 -->
<g id="edge5" class="edge">
<title>Node4&#45;&gt;Node6</title>
<path fill="none" stroke="midnightblue" d="M311.5,-56.08C311.5,-49.01 311.5,-38.86 311.5,-29.99"/>
<polygon fill="midnightblue" stroke="midnightblue" points="315,-29.75 311.5,-19.75 308,-29.75 315,-29.75"/>
</g>
<!-- Node7 -->
<g id="node7" class="node">
<title>Node7</title>
<g id="a_node7"><a xlink:title=" ">
<polygon fill="none" stroke="#bfbfbf" points="363,-0.5 363,-19.5 434,-19.5 434,-0.5 363,-0.5"/>
<text text-anchor="middle" x="398.5" y="-7.5" font-family="Helvetica,sans-Serif" font-size="10.00">G4Track.hh</text>
</a>
</g>
</g>
<!-- Node4&#45;&gt;Node7 -->
<g id="edge6" class="edge">
<title>Node4&#45;&gt;Node7</title>
<path fill="none" stroke="midnightblue" d="M325.48,-56.32C339.05,-47.9 359.88,-34.97 375.82,-25.07"/>
<polygon fill="midnightblue" stroke="midnightblue" points="377.91,-27.9 384.56,-19.65 374.21,-21.95 377.91,-27.9"/>
</g>
<!-- Node8&#45;&gt;Node3 -->
<g id="edge8" class="edge">
<title>Node8&#45;&gt;Node3</title>
<path fill="none" stroke="midnightblue" d="M283.77,-112.44C254.07,-103.28 206.78,-88.69 173.83,-78.52"/>
<polygon fill="midnightblue" stroke="midnightblue" points="174.69,-75.12 164.1,-75.52 172.62,-81.81 174.69,-75.12"/>
</g>
<!-- Node8&#45;&gt;Node4 -->
<g id="edge9" class="edge">
<title>Node8&#45;&gt;Node4</title>
<path fill="none" stroke="midnightblue" d="M311.5,-112.08C311.5,-105.01 311.5,-94.86 311.5,-85.99"/>
<polygon fill="midnightblue" stroke="midnightblue" points="315,-85.75 311.5,-75.75 308,-85.75 315,-85.75"/>
</g>
</g>
</svg>
