<?xml version="1.0" encoding="UTF-8" standalone="no"?>
<!DOCTYPE svg PUBLIC "-//W3C//DTD SVG 1.1//EN"
 "http://www.w3.org/Graphics/SVG/1.1/DTD/svg11.dtd">
<!-- Generated by graphviz version 2.43.0 (0)
 -->
<!-- Title: src/G4DarkBreM/G4DarkBreMModel.cxx Pages: 1 -->
<svg width="1825pt" height="218pt"
 viewBox="0.00 0.00 1824.50 218.00" xmlns="http://www.w3.org/2000/svg" xmlns:xlink="http://www.w3.org/1999/xlink">
<g id="graph0" class="graph" transform="scale(1 1) rotate(0) translate(4 214)">
<title>src/G4DarkBreM/G4DarkBreMModel.cxx</title>
<!-- Node1 -->
<g id="node1" class="node">
<title>Node1</title>
<g id="a_node1"><a xlink:title="Source file for dark brem model with some static functions that are helpful to be documented.">
<polygon fill="#bfbfbf" stroke="black" points="1022,-179.5 1022,-209.5 1174,-209.5 1174,-179.5 1022,-179.5"/>
<text text-anchor="start" x="1030" y="-197.5" font-family="Helvetica,sans-Serif" font-size="10.00">src/G4DarkBreM/G4DarkBre</text>
<text text-anchor="middle" x="1098" y="-186.5" font-family="Helvetica,sans-Serif" font-size="10.00">MModel.cxx</text>
</a>
</g>
</g>
<!-- Node2 -->
<g id="node2" class="node">
<title>Node2</title>
<g id="a_node2"><a xlink:href="G4DarkBreMModel_8h_source.html" target="_top" xlink:title=" ">
<polygon fill="none" stroke="black" points="266.5,-118 266.5,-137 449.5,-137 449.5,-118 266.5,-118"/>
<text text-anchor="middle" x="358" y="-125" font-family="Helvetica,sans-Serif" font-size="10.00">G4DarkBreM/G4DarkBreMModel.h</text>
</a>
</g>
</g>
<!-- Node1&#45;&gt;Node2 -->
<g id="edge1" class="edge">
<title>Node1&#45;&gt;Node2</title>
<path fill="none" stroke="midnightblue" d="M1021.96,-188.01C906.02,-179.46 678.15,-161.98 485,-143 470.29,-141.55 454.63,-139.88 439.52,-138.19"/>
<polygon fill="midnightblue" stroke="midnightblue" points="439.49,-134.67 429.16,-137.02 438.7,-141.62 439.49,-134.67"/>
</g>
<!-- Node5 -->
<g id="node5" class="node">
<title>Node5</title>
<g id="a_node5"><a xlink:href="ParseLibrary_8h.html" target="_top" xlink:title=" ">
<polygon fill="none" stroke="black" points="385.5,-56.5 385.5,-75.5 534.5,-75.5 534.5,-56.5 385.5,-56.5"/>
<text text-anchor="middle" x="460" y="-63.5" font-family="Helvetica,sans-Serif" font-size="10.00">G4DarkBreM/ParseLibrary.h</text>
</a>
</g>
</g>
<!-- Node1&#45;&gt;Node5 -->
<g id="edge17" class="edge">
<title>Node1&#45;&gt;Node5</title>
<path fill="none" stroke="midnightblue" d="M1021.8,-192.88C889.21,-190.78 622.14,-181.71 538,-143 509.62,-129.95 485.39,-102.09 471.77,-83.97"/>
<polygon fill="midnightblue" stroke="midnightblue" points="474.34,-81.56 465.65,-75.52 468.67,-85.67 474.34,-81.56"/>
</g>
<!-- Node14 -->
<g id="node14" class="node">
<title>Node14</title>
<g id="a_node14"><a xlink:href="G4APrime_8h.html" target="_top" xlink:title="Class creating the A&#39; particle in Geant.">
<polygon fill="none" stroke="black" points="547,-118 547,-137 687,-137 687,-118 547,-118"/>
<text text-anchor="middle" x="617" y="-125" font-family="Helvetica,sans-Serif" font-size="10.00">G4DarkBreM/G4APrime.h</text>
</a>
</g>
</g>
<!-- Node1&#45;&gt;Node14 -->
<g id="edge14" class="edge">
<title>Node1&#45;&gt;Node14</title>
<path fill="none" stroke="midnightblue" d="M1021.75,-184.82C941.73,-175.47 812.31,-159.68 701,-143 692.39,-141.71 683.29,-140.25 674.4,-138.76"/>
<polygon fill="midnightblue" stroke="midnightblue" points="674.92,-135.3 664.47,-137.07 673.75,-142.2 674.92,-135.3"/>
</g>
<!-- Node16 -->
<g id="node16" class="node">
<title>Node16</title>
<g id="a_node16"><a xlink:title=" ">
<polygon fill="none" stroke="#bfbfbf" points="699.5,-56.5 699.5,-75.5 818.5,-75.5 818.5,-56.5 699.5,-56.5"/>
<text text-anchor="middle" x="759" y="-63.5" font-family="Helvetica,sans-Serif" font-size="10.00">G4SystemOfUnits.hh</text>
</a>
</g>
</g>
<!-- Node1&#45;&gt;Node16 -->
<g id="edge23" class="edge">
<title>Node1&#45;&gt;Node16</title>
<path fill="none" stroke="midnightblue" d="M1021.73,-194.13C926.43,-193.1 771.4,-184.81 735,-143 720.44,-126.27 733.52,-100.69 745.34,-83.9"/>
<polygon fill="midnightblue" stroke="midnightblue" points="748.38,-85.69 751.59,-75.6 742.79,-81.48 748.38,-85.69"/>
</g>
<!-- Node17 -->
<g id="node17" class="node">
<title>Node17</title>
<g id="a_node17"><a xlink:title=" ">
<polygon fill="none" stroke="#bfbfbf" points="743.5,-118 743.5,-137 828.5,-137 828.5,-118 743.5,-118"/>
<text text-anchor="middle" x="786" y="-125" font-family="Helvetica,sans-Serif" font-size="10.00">G4Electron.hh</text>
</a>
</g>
</g>
<!-- Node1&#45;&gt;Node17 -->
<g id="edge18" class="edge">
<title>Node1&#45;&gt;Node17</title>
<path fill="none" stroke="midnightblue" d="M1021.72,-180.34C969.72,-170.97 899.42,-157.5 838,-143 833.68,-141.98 829.17,-140.84 824.7,-139.66"/>
<polygon fill="midnightblue" stroke="midnightblue" points="825.61,-136.28 815.05,-137.04 823.78,-143.04 825.61,-136.28"/>
</g>
<!-- Node18 -->
<g id="node18" class="node">
<title>Node18</title>
<g id="a_node18"><a xlink:title=" ">
<polygon fill="none" stroke="#bfbfbf" points="846.5,-118 846.5,-137 961.5,-137 961.5,-118 846.5,-118"/>
<text text-anchor="middle" x="904" y="-125" font-family="Helvetica,sans-Serif" font-size="10.00">G4EventManager.hh</text>
</a>
</g>
</g>
<!-- Node1&#45;&gt;Node18 -->
<g id="edge19" class="edge">
<title>Node1&#45;&gt;Node18</title>
<path fill="none" stroke="midnightblue" d="M1055.9,-179.4C1020.96,-167.69 971.84,-151.23 939.02,-140.23"/>
<polygon fill="midnightblue" stroke="midnightblue" points="939.98,-136.87 929.39,-137.01 937.76,-143.5 939.98,-136.87"/>
</g>
<!-- Node19 -->
<g id="node19" class="node">
<title>Node19</title>
<g id="a_node19"><a xlink:title=" ">
<polygon fill="none" stroke="#bfbfbf" points="979.5,-118 979.5,-137 1080.5,-137 1080.5,-118 979.5,-118"/>
<text text-anchor="middle" x="1030" y="-125" font-family="Helvetica,sans-Serif" font-size="10.00">G4MuonMinus.hh</text>
</a>
</g>
</g>
<!-- Node1&#45;&gt;Node19 -->
<g id="edge20" class="edge">
<title>Node1&#45;&gt;Node19</title>
<path fill="none" stroke="midnightblue" d="M1083.25,-179.4C1072.43,-169.06 1057.75,-155.02 1046.54,-144.31"/>
<polygon fill="midnightblue" stroke="midnightblue" points="1048.74,-141.57 1039.1,-137.19 1043.91,-146.63 1048.74,-141.57"/>
</g>
<!-- Node20 -->
<g id="node20" class="node">
<title>Node20</title>
<g id="a_node20"><a xlink:title=" ">
<polygon fill="none" stroke="#bfbfbf" points="1099,-118 1099,-137 1233,-137 1233,-118 1099,-118"/>
<text text-anchor="middle" x="1166" y="-125" font-family="Helvetica,sans-Serif" font-size="10.00">G4PhysicalConstants.hh</text>
</a>
</g>
</g>
<!-- Node1&#45;&gt;Node20 -->
<g id="edge21" class="edge">
<title>Node1&#45;&gt;Node20</title>
<path fill="none" stroke="midnightblue" d="M1112.75,-179.4C1123.57,-169.06 1138.25,-155.02 1149.46,-144.31"/>
<polygon fill="midnightblue" stroke="midnightblue" points="1152.09,-146.63 1156.9,-137.19 1147.26,-141.57 1152.09,-146.63"/>
</g>
<!-- Node21 -->
<g id="node21" class="node">
<title>Node21</title>
<g id="a_node21"><a xlink:title=" ">
<polygon fill="none" stroke="#bfbfbf" points="1251,-118 1251,-137 1357,-137 1357,-118 1251,-118"/>
<text text-anchor="middle" x="1304" y="-125" font-family="Helvetica,sans-Serif" font-size="10.00">G4RunManager.hh</text>
</a>
</g>
</g>
<!-- Node1&#45;&gt;Node21 -->
<g id="edge22" class="edge">
<title>Node1&#45;&gt;Node21</title>
<path fill="none" stroke="midnightblue" d="M1142.45,-179.48C1179.69,-167.72 1232.24,-151.14 1267.17,-140.12"/>
<polygon fill="midnightblue" stroke="midnightblue" points="1268.49,-143.38 1276.97,-137.03 1266.38,-136.7 1268.49,-143.38"/>
</g>
<!-- Node22 -->
<g id="node22" class="node">
<title>Node22</title>
<g id="a_node22"><a xlink:title=" ">
<polygon fill="none" stroke="#bfbfbf" points="1375,-118 1375,-137 1461,-137 1461,-118 1375,-118"/>
<text text-anchor="middle" x="1418" y="-125" font-family="Helvetica,sans-Serif" font-size="10.00">Randomize.hh</text>
</a>
</g>
</g>
<!-- Node1&#45;&gt;Node22 -->
<g id="edge24" class="edge">
<title>Node1&#45;&gt;Node22</title>
<path fill="none" stroke="midnightblue" d="M1174.03,-180.96C1227.88,-171.65 1301.68,-158 1366,-143 1370.33,-141.99 1374.83,-140.86 1379.31,-139.68"/>
<polygon fill="midnightblue" stroke="midnightblue" points="1380.22,-143.06 1388.96,-137.07 1378.39,-136.3 1380.22,-143.06"/>
</g>
<!-- Node23 -->
<g id="node23" class="node">
<title>Node23</title>
<g id="a_node23"><a xlink:title=" ">
<polygon fill="none" stroke="#bfbfbf" points="1479,-112.5 1479,-142.5 1607,-142.5 1607,-112.5 1479,-112.5"/>
<text text-anchor="start" x="1487" y="-130.5" font-family="Helvetica,sans-Serif" font-size="10.00">boost/math/quadrature</text>
<text text-anchor="middle" x="1543" y="-119.5" font-family="Helvetica,sans-Serif" font-size="10.00">/gauss_kronrod.hpp</text>
</a>
</g>
</g>
<!-- Node1&#45;&gt;Node23 -->
<g id="edge25" class="edge">
<title>Node1&#45;&gt;Node23</title>
<path fill="none" stroke="midnightblue" d="M1174.08,-184.55C1247.13,-175.65 1360.81,-160.97 1468.85,-143.13"/>
<polygon fill="midnightblue" stroke="midnightblue" points="1469.66,-146.55 1478.95,-141.45 1468.51,-139.64 1469.66,-146.55"/>
</g>
<!-- Node24 -->
<g id="node24" class="node">
<title>Node24</title>
<g id="a_node24"><a xlink:title=" ">
<polygon fill="none" stroke="#bfbfbf" points="1625.5,-118 1625.5,-137 1676.5,-137 1676.5,-118 1625.5,-118"/>
<text text-anchor="middle" x="1651" y="-125" font-family="Helvetica,sans-Serif" font-size="10.00">math.h</text>
</a>
</g>
</g>
<!-- Node1&#45;&gt;Node24 -->
<g id="edge26" class="edge">
<title>Node1&#45;&gt;Node24</title>
<path fill="none" stroke="midnightblue" d="M1174.25,-193.06C1276.33,-190.89 1462.38,-181.4 1616,-143 1618.51,-142.37 1621.08,-141.59 1623.63,-140.73"/>
<polygon fill="midnightblue" stroke="midnightblue" points="1625.09,-143.91 1633.18,-137.07 1622.59,-137.38 1625.09,-143.91"/>
</g>
<!-- Node25 -->
<g id="node25" class="node">
<title>Node25</title>
<g id="a_node25"><a xlink:title=" ">
<polygon fill="none" stroke="#bfbfbf" points="1695,-118 1695,-137 1745,-137 1745,-118 1695,-118"/>
<text text-anchor="middle" x="1720" y="-125" font-family="Helvetica,sans-Serif" font-size="10.00">stdio.h</text>
</a>
</g>
</g>
<!-- Node1&#45;&gt;Node25 -->
<g id="edge27" class="edge">
<title>Node1&#45;&gt;Node25</title>
<path fill="none" stroke="midnightblue" d="M1174.11,-189.97C1310.47,-183.13 1591.06,-166.68 1686,-143 1688.36,-142.41 1690.77,-141.68 1693.17,-140.85"/>
<polygon fill="midnightblue" stroke="midnightblue" points="1694.68,-144.02 1702.72,-137.12 1692.13,-137.5 1694.68,-144.02"/>
</g>
<!-- Node26 -->
<g id="node26" class="node">
<title>Node26</title>
<g id="a_node26"><a xlink:title=" ">
<polygon fill="none" stroke="#bfbfbf" points="1763.5,-118 1763.5,-137 1816.5,-137 1816.5,-118 1763.5,-118"/>
<text text-anchor="middle" x="1790" y="-125" font-family="Helvetica,sans-Serif" font-size="10.00">stdlib.h</text>
</a>
</g>
</g>
<!-- Node1&#45;&gt;Node26 -->
<g id="edge28" class="edge">
<title>Node1&#45;&gt;Node26</title>
<path fill="none" stroke="midnightblue" d="M1174.09,-190.56C1322.53,-184.35 1645.7,-168.34 1754,-143 1756.68,-142.37 1759.41,-141.58 1762.12,-140.69"/>
<polygon fill="midnightblue" stroke="midnightblue" points="1763.51,-143.9 1771.67,-137.14 1761.08,-137.34 1763.51,-143.9"/>
</g>
<!-- Node3 -->
<g id="node3" class="node">
<title>Node3</title>
<g id="a_node3"><a xlink:title=" ">
<polygon fill="none" stroke="#bfbfbf" points="325,-0.5 325,-19.5 363,-19.5 363,-0.5 325,-0.5"/>
<text text-anchor="middle" x="344" y="-7.5" font-family="Helvetica,sans-Serif" font-size="10.00">map</text>
</a>
</g>
</g>
<!-- Node2&#45;&gt;Node3 -->
<g id="edge2" class="edge">
<title>Node2&#45;&gt;Node3</title>
<path fill="none" stroke="midnightblue" d="M356.95,-117.82C354.7,-99.26 349.37,-55.34 346.3,-29.97"/>
<polygon fill="midnightblue" stroke="midnightblue" points="349.74,-29.29 345.06,-19.78 342.79,-30.13 349.74,-29.29"/>
</g>
<!-- Node4 -->
<g id="node4" class="node">
<title>Node4</title>
<g id="a_node4"><a xlink:title=" ">
<polygon fill="none" stroke="#bfbfbf" points="272,-56.5 272,-75.5 330,-75.5 330,-56.5 272,-56.5"/>
<text text-anchor="middle" x="301" y="-63.5" font-family="Helvetica,sans-Serif" font-size="10.00">memory</text>
</a>
</g>
</g>
<!-- Node2&#45;&gt;Node4 -->
<g id="edge3" class="edge">
<title>Node2&#45;&gt;Node4</title>
<path fill="none" stroke="midnightblue" d="M349.83,-117.98C341.11,-108.87 327.1,-94.24 316.31,-82.98"/>
<polygon fill="midnightblue" stroke="midnightblue" points="318.6,-80.31 309.15,-75.51 313.54,-85.15 318.6,-80.31"/>
</g>
<!-- Node2&#45;&gt;Node5 -->
<g id="edge4" class="edge">
<title>Node2&#45;&gt;Node5</title>
<path fill="none" stroke="midnightblue" d="M372.61,-117.98C389.35,-108.21 417,-92.08 436.72,-80.58"/>
<polygon fill="midnightblue" stroke="midnightblue" points="438.54,-83.57 445.41,-75.51 435.01,-77.52 438.54,-83.57"/>
</g>
<!-- Node10 -->
<g id="node10" class="node">
<title>Node10</title>
<g id="a_node10"><a xlink:href="PrototypeModel_8h.html" target="_top" xlink:title="Class providing a prototype model for dark brem.">
<polygon fill="none" stroke="black" points="86,-56.5 86,-75.5 254,-75.5 254,-56.5 86,-56.5"/>
<text text-anchor="middle" x="170" y="-63.5" font-family="Helvetica,sans-Serif" font-size="10.00">G4DarkBreM/PrototypeModel.h</text>
</a>
</g>
</g>
<!-- Node2&#45;&gt;Node10 -->
<g id="edge10" class="edge">
<title>Node2&#45;&gt;Node10</title>
<path fill="none" stroke="midnightblue" d="M331.06,-117.98C298.4,-107.64 243.18,-90.16 206.66,-78.6"/>
<polygon fill="midnightblue" stroke="midnightblue" points="207.48,-75.19 196.89,-75.51 205.36,-81.86 207.48,-75.19"/>
</g>
<!-- Node5&#45;&gt;Node3 -->
<g id="edge5" class="edge">
<title>Node5&#45;&gt;Node3</title>
<path fill="none" stroke="midnightblue" d="M441.62,-56.44C422.78,-47.68 393.27,-33.94 371.62,-23.86"/>
<polygon fill="midnightblue" stroke="midnightblue" points="372.84,-20.56 362.29,-19.52 369.88,-26.91 372.84,-20.56"/>
</g>
<!-- Node6 -->
<g id="node6" class="node">
<title>Node6</title>
<g id="a_node6"><a xlink:title=" ">
<polygon fill="none" stroke="#bfbfbf" points="381.5,-0.5 381.5,-19.5 438.5,-19.5 438.5,-0.5 381.5,-0.5"/>
<text text-anchor="middle" x="410" y="-7.5" font-family="Helvetica,sans-Serif" font-size="10.00">ostream</text>
</a>
</g>
</g>
<!-- Node5&#45;&gt;Node6 -->
<g id="edge6" class="edge">
<title>Node5&#45;&gt;Node6</title>
<path fill="none" stroke="midnightblue" d="M451.74,-56.08C444.54,-48.3 433.89,-36.8 425.15,-27.37"/>
<polygon fill="midnightblue" stroke="midnightblue" points="427.47,-24.71 418.1,-19.75 422.33,-29.47 427.47,-24.71"/>
</g>
<!-- Node7 -->
<g id="node7" class="node">
<title>Node7</title>
<g id="a_node7"><a xlink:title=" ">
<polygon fill="none" stroke="#bfbfbf" points="457,-0.5 457,-19.5 501,-19.5 501,-0.5 457,-0.5"/>
<text text-anchor="middle" x="479" y="-7.5" font-family="Helvetica,sans-Serif" font-size="10.00">string</text>
</a>
</g>
</g>
<!-- Node5&#45;&gt;Node7 -->
<g id="edge7" class="edge">
<title>Node5&#45;&gt;Node7</title>
<path fill="none" stroke="midnightblue" d="M463.14,-56.08C465.68,-48.85 469.36,-38.41 472.53,-29.4"/>
<polygon fill="midnightblue" stroke="midnightblue" points="475.9,-30.35 475.92,-19.75 469.3,-28.02 475.9,-30.35"/>
</g>
<!-- Node8 -->
<g id="node8" class="node">
<title>Node8</title>
<g id="a_node8"><a xlink:title=" ">
<polygon fill="none" stroke="#bfbfbf" points="519.5,-0.5 519.5,-19.5 566.5,-19.5 566.5,-0.5 519.5,-0.5"/>
<text text-anchor="middle" x="543" y="-7.5" font-family="Helvetica,sans-Serif" font-size="10.00">vector</text>
</a>
</g>
</g>
<!-- Node5&#45;&gt;Node8 -->
<g id="edge8" class="edge">
<title>Node5&#45;&gt;Node8</title>
<path fill="none" stroke="midnightblue" d="M473.34,-56.32C486.16,-47.98 505.78,-35.21 520.94,-25.35"/>
<polygon fill="midnightblue" stroke="midnightblue" points="523.22,-28.04 529.7,-19.65 519.41,-22.17 523.22,-28.04"/>
</g>
<!-- Node9 -->
<g id="node9" class="node">
<title>Node9</title>
<g id="a_node9"><a xlink:title=" ">
<polygon fill="none" stroke="#bfbfbf" points="585,-0.5 585,-19.5 745,-19.5 745,-0.5 585,-0.5"/>
<text text-anchor="middle" x="665" y="-7.5" font-family="Helvetica,sans-Serif" font-size="10.00">CLHEP/Vector/LorentzVector.h</text>
</a>
</g>
</g>
<!-- Node5&#45;&gt;Node9 -->
<g id="edge9" class="edge">
<title>Node5&#45;&gt;Node9</title>
<path fill="none" stroke="midnightblue" d="M492.48,-56.44C527.72,-47.16 584.1,-32.31 622.76,-22.13"/>
<polygon fill="midnightblue" stroke="midnightblue" points="623.89,-25.45 632.67,-19.52 622.11,-18.68 623.89,-25.45"/>
</g>
<!-- Node11 -->
<g id="node11" class="node">
<title>Node11</title>
<g id="a_node11"><a xlink:title=" ">
<polygon fill="none" stroke="#bfbfbf" points="0,-0.5 0,-19.5 118,-19.5 118,-0.5 0,-0.5"/>
<text text-anchor="middle" x="59" y="-7.5" font-family="Helvetica,sans-Serif" font-size="10.00">G4ParticleChange.hh</text>
</a>
</g>
</g>
<!-- Node10&#45;&gt;Node11 -->
<g id="edge11" class="edge">
<title>Node10&#45;&gt;Node11</title>
<path fill="none" stroke="midnightblue" d="M152.17,-56.32C134.28,-47.62 106.52,-34.12 85.95,-24.11"/>
<polygon fill="midnightblue" stroke="midnightblue" points="87.31,-20.88 76.79,-19.65 84.25,-27.18 87.31,-20.88"/>
</g>
<!-- Node12 -->
<g id="node12" class="node">
<title>Node12</title>
<g id="a_node12"><a xlink:title=" ">
<polygon fill="none" stroke="#bfbfbf" points="136.5,-0.5 136.5,-19.5 203.5,-19.5 203.5,-0.5 136.5,-0.5"/>
<text text-anchor="middle" x="170" y="-7.5" font-family="Helvetica,sans-Serif" font-size="10.00">G4Step.hh</text>
</a>
</g>
</g>
<!-- Node10&#45;&gt;Node12 -->
<g id="edge12" class="edge">
<title>Node10&#45;&gt;Node12</title>
<path fill="none" stroke="midnightblue" d="M170,-56.08C170,-49.01 170,-38.86 170,-29.99"/>
<polygon fill="midnightblue" stroke="midnightblue" points="173.5,-29.75 170,-19.75 166.5,-29.75 173.5,-29.75"/>
</g>
<!-- Node13 -->
<g id="node13" class="node">
<title>Node13</title>
<g id="a_node13"><a xlink:title=" ">
<polygon fill="none" stroke="#bfbfbf" points="221.5,-0.5 221.5,-19.5 292.5,-19.5 292.5,-0.5 221.5,-0.5"/>
<text text-anchor="middle" x="257" y="-7.5" font-family="Helvetica,sans-Serif" font-size="10.00">G4Track.hh</text>
</a>
</g>
</g>
<!-- Node10&#45;&gt;Node13 -->
<g id="edge13" class="edge">
<title>Node10&#45;&gt;Node13</title>
<path fill="none" stroke="midnightblue" d="M183.98,-56.32C197.55,-47.9 218.38,-34.97 234.32,-25.07"/>
<polygon fill="midnightblue" stroke="midnightblue" points="236.41,-27.9 243.06,-19.65 232.71,-21.95 236.41,-27.9"/>
</g>
<!-- Node15 -->
<g id="node15" class="node">
<title>Node15</title>
<g id="a_node15"><a xlink:title=" ">
<polygon fill="none" stroke="#bfbfbf" points="553,-56.5 553,-75.5 681,-75.5 681,-56.5 553,-56.5"/>
<text text-anchor="middle" x="617" y="-63.5" font-family="Helvetica,sans-Serif" font-size="10.00">G4ParticleDefinition.hh</text>
</a>
</g>
</g>
<!-- Node14&#45;&gt;Node15 -->
<g id="edge15" class="edge">
<title>Node14&#45;&gt;Node15</title>
<path fill="none" stroke="midnightblue" d="M617,-117.98C617,-109.58 617,-96.48 617,-85.66"/>
<polygon fill="midnightblue" stroke="midnightblue" points="620.5,-85.51 617,-75.51 613.5,-85.51 620.5,-85.51"/>
</g>
<!-- Node14&#45;&gt;Node16 -->
<g id="edge16" class="edge">
<title>Node14&#45;&gt;Node16</title>
<path fill="none" stroke="midnightblue" d="M637.35,-117.98C661.39,-107.9 701.6,-91.05 729.16,-79.5"/>
<polygon fill="midnightblue" stroke="midnightblue" points="730.82,-82.6 738.69,-75.51 728.12,-76.15 730.82,-82.6"/>
</g>
</g>
</svg>
