<?xml version="1.0" encoding="UTF-8" standalone="no"?>
<!DOCTYPE svg PUBLIC "-//W3C//DTD SVG 1.1//EN"
 "http://www.w3.org/Graphics/SVG/1.1/DTD/svg11.dtd">
<!-- Generated by graphviz version 2.43.0 (0)
 -->
<!-- Title: src/G4DarkBreM/G4DarkBremsstrahlung.cxx Pages: 1 -->
<svg width="1582pt" height="252pt"
 viewBox="0.00 0.00 1582.28 252.00" xmlns="http://www.w3.org/2000/svg" xmlns:xlink="http://www.w3.org/1999/xlink">
<g id="graph0" class="graph" transform="scale(1 1) rotate(0) translate(4 248)">
<title>src/G4DarkBreM/G4DarkBremsstrahlung.cxx</title>
<!-- Node1 -->
<g id="node1" class="node">
<title>Node1</title>
<g id="a_node1"><a xlink:title="Class providing the Dark Bremsstrahlung process class.">
<polygon fill="#bfbfbf" stroke="black" points="922.78,-224.5 922.78,-243.5 1155.78,-243.5 1155.78,-224.5 922.78,-224.5"/>
<text text-anchor="middle" x="1039.28" y="-231.5" font-family="Helvetica,sans-Serif" font-size="10.00">src/G4DarkBreM/G4DarkBremsstrahlung.cxx</text>
</a>
</g>
</g>
<!-- Node2 -->
<g id="node2" class="node">
<title>Node2</title>
<g id="a_node2"><a xlink:href="G4DarkBremsstrahlung_8h.html" target="_top" xlink:title="Class providing the Dark Bremsstrahlung process class.">
<polygon fill="none" stroke="black" points="151.78,-168.5 151.78,-187.5 356.78,-187.5 356.78,-168.5 151.78,-168.5"/>
<text text-anchor="middle" x="254.28" y="-175.5" font-family="Helvetica,sans-Serif" font-size="10.00">G4DarkBreM/G4DarkBremsstrahlung.h</text>
</a>
</g>
</g>
<!-- Node1&#45;&gt;Node2 -->
<g id="edge1" class="edge">
<title>Node1&#45;&gt;Node2</title>
<path fill="none" stroke="midnightblue" d="M922.6,-224.97C772.82,-214.67 514.68,-196.91 366.89,-186.75"/>
<polygon fill="midnightblue" stroke="midnightblue" points="367.09,-183.25 356.88,-186.06 366.61,-190.24 367.09,-183.25"/>
</g>
<!-- Node11 -->
<g id="node11" class="node">
<title>Node11</title>
<g id="a_node11"><a xlink:href="G4APrime_8h.html" target="_top" xlink:title="Class creating the A&#39; particle in Geant.">
<polygon fill="none" stroke="black" points="594.28,-168.5 594.28,-187.5 734.28,-187.5 734.28,-168.5 594.28,-168.5"/>
<text text-anchor="middle" x="664.28" y="-175.5" font-family="Helvetica,sans-Serif" font-size="10.00">G4DarkBreM/G4APrime.h</text>
</a>
</g>
</g>
<!-- Node1&#45;&gt;Node11 -->
<g id="edge13" class="edge">
<title>Node1&#45;&gt;Node11</title>
<path fill="none" stroke="midnightblue" d="M979.86,-224.44C912.93,-214.81 804.3,-199.16 733.57,-188.98"/>
<polygon fill="midnightblue" stroke="midnightblue" points="733.81,-185.48 723.42,-187.52 732.82,-192.41 733.81,-185.48"/>
</g>
<!-- Node14 -->
<g id="node14" class="node">
<title>Node14</title>
<g id="a_node14"><a xlink:title=" ">
<polygon fill="none" stroke="#bfbfbf" points="752.78,-168.5 752.78,-187.5 837.78,-187.5 837.78,-168.5 752.78,-168.5"/>
<text text-anchor="middle" x="795.28" y="-175.5" font-family="Helvetica,sans-Serif" font-size="10.00">G4Electron.hh</text>
</a>
</g>
</g>
<!-- Node1&#45;&gt;Node14 -->
<g id="edge16" class="edge">
<title>Node1&#45;&gt;Node14</title>
<path fill="none" stroke="midnightblue" d="M1000.61,-224.44C958.14,-215.04 889.84,-199.93 843.8,-189.74"/>
<polygon fill="midnightblue" stroke="midnightblue" points="844.28,-186.26 833.76,-187.52 842.77,-193.09 844.28,-186.26"/>
</g>
<!-- Node15 -->
<g id="node15" class="node">
<title>Node15</title>
<g id="a_node15"><a xlink:title=" ">
<polygon fill="none" stroke="#bfbfbf" points="855.78,-168.5 855.78,-187.5 970.78,-187.5 970.78,-168.5 855.78,-168.5"/>
<text text-anchor="middle" x="913.28" y="-175.5" font-family="Helvetica,sans-Serif" font-size="10.00">G4EventManager.hh</text>
</a>
</g>
</g>
<!-- Node1&#45;&gt;Node15 -->
<g id="edge17" class="edge">
<title>Node1&#45;&gt;Node15</title>
<path fill="none" stroke="midnightblue" d="M1019.31,-224.44C998.67,-215.6 966.21,-201.69 942.64,-191.59"/>
<polygon fill="midnightblue" stroke="midnightblue" points="943.72,-188.24 933.15,-187.52 940.96,-194.67 943.72,-188.24"/>
</g>
<!-- Node16 -->
<g id="node16" class="node">
<title>Node16</title>
<g id="a_node16"><a xlink:title=" ">
<polygon fill="none" stroke="#bfbfbf" points="988.78,-168.5 988.78,-187.5 1089.78,-187.5 1089.78,-168.5 988.78,-168.5"/>
<text text-anchor="middle" x="1039.28" y="-175.5" font-family="Helvetica,sans-Serif" font-size="10.00">G4MuonMinus.hh</text>
</a>
</g>
</g>
<!-- Node1&#45;&gt;Node16 -->
<g id="edge18" class="edge">
<title>Node1&#45;&gt;Node16</title>
<path fill="none" stroke="midnightblue" d="M1039.28,-224.08C1039.28,-217.01 1039.28,-206.86 1039.28,-197.99"/>
<polygon fill="midnightblue" stroke="midnightblue" points="1042.78,-197.75 1039.28,-187.75 1035.78,-197.75 1042.78,-197.75"/>
</g>
<!-- Node17 -->
<g id="node17" class="node">
<title>Node17</title>
<g id="a_node17"><a xlink:title=" ">
<polygon fill="none" stroke="#bfbfbf" points="1108.28,-168.5 1108.28,-187.5 1200.28,-187.5 1200.28,-168.5 1108.28,-168.5"/>
<text text-anchor="middle" x="1154.28" y="-175.5" font-family="Helvetica,sans-Serif" font-size="10.00">G4MuonPlus.hh</text>
</a>
</g>
</g>
<!-- Node1&#45;&gt;Node17 -->
<g id="edge19" class="edge">
<title>Node1&#45;&gt;Node17</title>
<path fill="none" stroke="midnightblue" d="M1057.5,-224.44C1076.17,-215.68 1105.43,-201.94 1126.89,-191.86"/>
<polygon fill="midnightblue" stroke="midnightblue" points="1128.58,-194.93 1136.14,-187.52 1125.6,-188.6 1128.58,-194.93"/>
</g>
<!-- Node18 -->
<g id="node18" class="node">
<title>Node18</title>
<g id="a_node18"><a xlink:title=" ">
<polygon fill="none" stroke="#bfbfbf" points="1218.28,-168.5 1218.28,-187.5 1326.28,-187.5 1326.28,-168.5 1218.28,-168.5"/>
<text text-anchor="middle" x="1272.28" y="-175.5" font-family="Helvetica,sans-Serif" font-size="10.00">G4ProcessTable.hh</text>
</a>
</g>
</g>
<!-- Node1&#45;&gt;Node18 -->
<g id="edge20" class="edge">
<title>Node1&#45;&gt;Node18</title>
<path fill="none" stroke="midnightblue" d="M1076.2,-224.44C1116.67,-215.06 1181.7,-199.99 1225.66,-189.8"/>
<polygon fill="midnightblue" stroke="midnightblue" points="1226.58,-193.18 1235.53,-187.52 1225,-186.36 1226.58,-193.18"/>
</g>
<!-- Node19 -->
<g id="node19" class="node">
<title>Node19</title>
<g id="a_node19"><a xlink:title=" ">
<polygon fill="none" stroke="#bfbfbf" points="1344.78,-168.5 1344.78,-187.5 1449.78,-187.5 1449.78,-168.5 1344.78,-168.5"/>
<text text-anchor="middle" x="1397.28" y="-175.5" font-family="Helvetica,sans-Serif" font-size="10.00">G4ProcessType.hh</text>
</a>
</g>
</g>
<!-- Node1&#45;&gt;Node19 -->
<g id="edge21" class="edge">
<title>Node1&#45;&gt;Node19</title>
<path fill="none" stroke="midnightblue" d="M1096,-224.44C1160.98,-214.64 1267.14,-198.63 1334.54,-188.46"/>
<polygon fill="midnightblue" stroke="midnightblue" points="1335.24,-191.9 1344.6,-186.94 1334.19,-184.98 1335.24,-191.9"/>
</g>
<!-- Node20 -->
<g id="node20" class="node">
<title>Node20</title>
<g id="a_node20"><a xlink:title=" ">
<polygon fill="none" stroke="#bfbfbf" points="1468.28,-168.5 1468.28,-187.5 1574.28,-187.5 1574.28,-168.5 1468.28,-168.5"/>
<text text-anchor="middle" x="1521.28" y="-175.5" font-family="Helvetica,sans-Serif" font-size="10.00">G4RunManager.hh</text>
</a>
</g>
</g>
<!-- Node1&#45;&gt;Node20 -->
<g id="edge22" class="edge">
<title>Node1&#45;&gt;Node20</title>
<path fill="none" stroke="midnightblue" d="M1127.88,-224.48C1210.63,-216.3 1337.86,-203.15 1458.07,-188.11"/>
<polygon fill="midnightblue" stroke="midnightblue" points="1458.71,-191.56 1468.19,-186.84 1457.84,-184.61 1458.71,-191.56"/>
</g>
<!-- Node3 -->
<g id="node3" class="node">
<title>Node3</title>
<g id="a_node3"><a xlink:href="ElementXsecCache_8h_source.html" target="_top" xlink:title=" ">
<polygon fill="none" stroke="black" points="161.78,-112.5 161.78,-131.5 346.78,-131.5 346.78,-112.5 161.78,-112.5"/>
<text text-anchor="middle" x="254.28" y="-119.5" font-family="Helvetica,sans-Serif" font-size="10.00">G4DarkBreM/ElementXsecCache.h</text>
</a>
</g>
</g>
<!-- Node2&#45;&gt;Node3 -->
<g id="edge2" class="edge">
<title>Node2&#45;&gt;Node3</title>
<path fill="none" stroke="midnightblue" d="M254.28,-168.08C254.28,-161.01 254.28,-150.86 254.28,-141.99"/>
<polygon fill="midnightblue" stroke="midnightblue" points="257.78,-141.75 254.28,-131.75 250.78,-141.75 257.78,-141.75"/>
</g>
<!-- Node5 -->
<g id="node5" class="node">
<title>Node5</title>
<g id="a_node5"><a xlink:href="PrototypeModel_8h.html" target="_top" xlink:title="Class providing a prototype model for dark brem.">
<polygon fill="none" stroke="black" points="170.28,-56.5 170.28,-75.5 338.28,-75.5 338.28,-56.5 170.28,-56.5"/>
<text text-anchor="middle" x="254.28" y="-63.5" font-family="Helvetica,sans-Serif" font-size="10.00">G4DarkBreM/PrototypeModel.h</text>
</a>
</g>
</g>
<!-- Node2&#45;&gt;Node5 -->
<g id="edge11" class="edge">
<title>Node2&#45;&gt;Node5</title>
<path fill="none" stroke="midnightblue" d="M151.64,-171.59C91.34,-166.02 23.3,-154.75 4.28,-132 -1.43,-125.18 -1.43,-118.82 4.28,-112 24.17,-88.2 97.69,-76.97 159.89,-71.68"/>
<polygon fill="midnightblue" stroke="midnightblue" points="160.47,-75.15 170.16,-70.85 159.91,-68.17 160.47,-75.15"/>
</g>
<!-- Node9 -->
<g id="node9" class="node">
<title>Node9</title>
<g id="a_node9"><a xlink:href="ElementXsecInterpolation_8h_source.html" target="_top" xlink:title=" ">
<polygon fill="none" stroke="black" points="364.78,-112.5 364.78,-131.5 581.78,-131.5 581.78,-112.5 364.78,-112.5"/>
<text text-anchor="middle" x="473.28" y="-119.5" font-family="Helvetica,sans-Serif" font-size="10.00">G4DarkBreM/ElementXsecInterpolation.h</text>
</a>
</g>
</g>
<!-- Node2&#45;&gt;Node9 -->
<g id="edge8" class="edge">
<title>Node2&#45;&gt;Node9</title>
<path fill="none" stroke="midnightblue" d="M288.98,-168.44C326.86,-159.1 387.63,-144.12 428.94,-133.93"/>
<polygon fill="midnightblue" stroke="midnightblue" points="429.87,-137.31 438.74,-131.52 428.19,-130.51 429.87,-137.31"/>
</g>
<!-- Node10 -->
<g id="node10" class="node">
<title>Node10</title>
<g id="a_node10"><a xlink:title=" ">
<polygon fill="none" stroke="#bfbfbf" points="13.28,-112.5 13.28,-131.5 143.28,-131.5 143.28,-112.5 13.28,-112.5"/>
<text text-anchor="middle" x="78.28" y="-119.5" font-family="Helvetica,sans-Serif" font-size="10.00">G4VDiscreteProcess.hh</text>
</a>
</g>
</g>
<!-- Node2&#45;&gt;Node10 -->
<g id="edge12" class="edge">
<title>Node2&#45;&gt;Node10</title>
<path fill="none" stroke="midnightblue" d="M226.39,-168.44C196.52,-159.28 148.96,-144.69 115.82,-134.52"/>
<polygon fill="midnightblue" stroke="midnightblue" points="116.62,-131.1 106.03,-131.52 114.57,-137.8 116.62,-131.1"/>
</g>
<!-- Node4 -->
<g id="node4" class="node">
<title>Node4</title>
<g id="a_node4"><a xlink:title=" ">
<polygon fill="none" stroke="#bfbfbf" points="400.28,-56.5 400.28,-75.5 458.28,-75.5 458.28,-56.5 400.28,-56.5"/>
<text text-anchor="middle" x="429.28" y="-63.5" font-family="Helvetica,sans-Serif" font-size="10.00">memory</text>
</a>
</g>
</g>
<!-- Node3&#45;&gt;Node4 -->
<g id="edge3" class="edge">
<title>Node3&#45;&gt;Node4</title>
<path fill="none" stroke="midnightblue" d="M282.01,-112.44C311.7,-103.28 358.99,-88.69 391.95,-78.52"/>
<polygon fill="midnightblue" stroke="midnightblue" points="393.15,-81.81 401.68,-75.52 391.09,-75.12 393.15,-81.81"/>
</g>
<!-- Node3&#45;&gt;Node5 -->
<g id="edge4" class="edge">
<title>Node3&#45;&gt;Node5</title>
<path fill="none" stroke="midnightblue" d="M254.28,-112.08C254.28,-105.01 254.28,-94.86 254.28,-85.99"/>
<polygon fill="midnightblue" stroke="midnightblue" points="257.78,-85.75 254.28,-75.75 250.78,-85.75 257.78,-85.75"/>
</g>
<!-- Node6 -->
<g id="node6" class="node">
<title>Node6</title>
<g id="a_node6"><a xlink:title=" ">
<polygon fill="none" stroke="#bfbfbf" points="84.28,-0.5 84.28,-19.5 202.28,-19.5 202.28,-0.5 84.28,-0.5"/>
<text text-anchor="middle" x="143.28" y="-7.5" font-family="Helvetica,sans-Serif" font-size="10.00">G4ParticleChange.hh</text>
</a>
</g>
</g>
<!-- Node5&#45;&gt;Node6 -->
<g id="edge5" class="edge">
<title>Node5&#45;&gt;Node6</title>
<path fill="none" stroke="midnightblue" d="M236.44,-56.32C218.56,-47.62 190.8,-34.12 170.23,-24.11"/>
<polygon fill="midnightblue" stroke="midnightblue" points="171.59,-20.88 161.07,-19.65 168.53,-27.18 171.59,-20.88"/>
</g>
<!-- Node7 -->
<g id="node7" class="node">
<title>Node7</title>
<g id="a_node7"><a xlink:title=" ">
<polygon fill="none" stroke="#bfbfbf" points="220.78,-0.5 220.78,-19.5 287.78,-19.5 287.78,-0.5 220.78,-0.5"/>
<text text-anchor="middle" x="254.28" y="-7.5" font-family="Helvetica,sans-Serif" font-size="10.00">G4Step.hh</text>
</a>
</g>
</g>
<!-- Node5&#45;&gt;Node7 -->
<g id="edge6" class="edge">
<title>Node5&#45;&gt;Node7</title>
<path fill="none" stroke="midnightblue" d="M254.28,-56.08C254.28,-49.01 254.28,-38.86 254.28,-29.99"/>
<polygon fill="midnightblue" stroke="midnightblue" points="257.78,-29.75 254.28,-19.75 250.78,-29.75 257.78,-29.75"/>
</g>
<!-- Node8 -->
<g id="node8" class="node">
<title>Node8</title>
<g id="a_node8"><a xlink:title=" ">
<polygon fill="none" stroke="#bfbfbf" points="305.78,-0.5 305.78,-19.5 376.78,-19.5 376.78,-0.5 305.78,-0.5"/>
<text text-anchor="middle" x="341.28" y="-7.5" font-family="Helvetica,sans-Serif" font-size="10.00">G4Track.hh</text>
</a>
</g>
</g>
<!-- Node5&#45;&gt;Node8 -->
<g id="edge7" class="edge">
<title>Node5&#45;&gt;Node8</title>
<path fill="none" stroke="midnightblue" d="M268.25,-56.32C281.83,-47.9 302.66,-34.97 318.6,-25.07"/>
<polygon fill="midnightblue" stroke="midnightblue" points="320.68,-27.9 327.33,-19.65 316.99,-21.95 320.68,-27.9"/>
</g>
<!-- Node9&#45;&gt;Node4 -->
<g id="edge9" class="edge">
<title>Node9&#45;&gt;Node4</title>
<path fill="none" stroke="midnightblue" d="M466.01,-112.08C459.73,-104.38 450.49,-93.03 442.85,-83.65"/>
<polygon fill="midnightblue" stroke="midnightblue" points="445.44,-81.29 436.41,-75.75 440.01,-85.71 445.44,-81.29"/>
</g>
<!-- Node9&#45;&gt;Node5 -->
<g id="edge10" class="edge">
<title>Node9&#45;&gt;Node5</title>
<path fill="none" stroke="midnightblue" d="M438.57,-112.44C400.69,-103.1 339.93,-88.12 298.61,-77.93"/>
<polygon fill="midnightblue" stroke="midnightblue" points="299.36,-74.51 288.82,-75.52 297.69,-81.31 299.36,-74.51"/>
</g>
<!-- Node12 -->
<g id="node12" class="node">
<title>Node12</title>
<g id="a_node12"><a xlink:title=" ">
<polygon fill="none" stroke="#bfbfbf" points="600.28,-112.5 600.28,-131.5 728.28,-131.5 728.28,-112.5 600.28,-112.5"/>
<text text-anchor="middle" x="664.28" y="-119.5" font-family="Helvetica,sans-Serif" font-size="10.00">G4ParticleDefinition.hh</text>
</a>
</g>
</g>
<!-- Node11&#45;&gt;Node12 -->
<g id="edge14" class="edge">
<title>Node11&#45;&gt;Node12</title>
<path fill="none" stroke="midnightblue" d="M664.28,-168.08C664.28,-161.01 664.28,-150.86 664.28,-141.99"/>
<polygon fill="midnightblue" stroke="midnightblue" points="667.78,-141.75 664.28,-131.75 660.78,-141.75 667.78,-141.75"/>
</g>
<!-- Node13 -->
<g id="node13" class="node">
<title>Node13</title>
<g id="a_node13"><a xlink:title=" ">
<polygon fill="none" stroke="#bfbfbf" points="746.78,-112.5 746.78,-131.5 865.78,-131.5 865.78,-112.5 746.78,-112.5"/>
<text text-anchor="middle" x="806.28" y="-119.5" font-family="Helvetica,sans-Serif" font-size="10.00">G4SystemOfUnits.hh</text>
</a>
</g>
</g>
<!-- Node11&#45;&gt;Node13 -->
<g id="edge15" class="edge">
<title>Node11&#45;&gt;Node13</title>
<path fill="none" stroke="midnightblue" d="M686.78,-168.44C710.35,-159.48 747.6,-145.31 774.24,-135.18"/>
<polygon fill="midnightblue" stroke="midnightblue" points="775.78,-138.34 783.88,-131.52 773.29,-131.8 775.78,-138.34"/>
</g>
</g>
</svg>
