<?xml version="1.0" encoding="UTF-8" standalone="no"?>
<!DOCTYPE svg PUBLIC "-//W3C//DTD SVG 1.1//EN"
 "http://www.w3.org/Graphics/SVG/1.1/DTD/svg11.dtd">
<!-- Generated by graphviz version 2.43.0 (0)
 -->
<!-- Title: src/G4DarkBreM/G4DarkBremsstrahlung.cxx Pages: 1 -->
<svg width="1577pt" height="252pt"
 viewBox="0.00 0.00 1577.00 252.00" xmlns="http://www.w3.org/2000/svg" xmlns:xlink="http://www.w3.org/1999/xlink">
<g id="graph0" class="graph" transform="scale(1 1) rotate(0) translate(4 248)">
<title>src/G4DarkBreM/G4DarkBremsstrahlung.cxx</title>
<!-- Node1 -->
<g id="node1" class="node">
<title>Node1</title>
<g id="a_node1"><a xlink:title="Class providing the Dark Bremsstrahlung process class.">
<polygon fill="#bfbfbf" stroke="black" points="802,-224.5 802,-243.5 1035,-243.5 1035,-224.5 802,-224.5"/>
<text text-anchor="middle" x="918.5" y="-231.5" font-family="Helvetica,sans-Serif" font-size="10.00">src/G4DarkBreM/G4DarkBremsstrahlung.cxx</text>
</a>
</g>
</g>
<!-- Node2 -->
<g id="node2" class="node">
<title>Node2</title>
<g id="a_node2"><a xlink:href="G4DarkBremsstrahlung_8h.html" target="_top" xlink:title="Class providing the Dark Bremsstrahlung process class.">
<polygon fill="none" stroke="black" points="305,-168.5 305,-187.5 510,-187.5 510,-168.5 305,-168.5"/>
<text text-anchor="middle" x="407.5" y="-175.5" font-family="Helvetica,sans-Serif" font-size="10.00">G4DarkBreM/G4DarkBremsstrahlung.h</text>
</a>
</g>
</g>
<!-- Node1&#45;&gt;Node2 -->
<g id="edge1" class="edge">
<title>Node1&#45;&gt;Node2</title>
<path fill="none" stroke="midnightblue" d="M837.81,-224.47C745.46,-214.71 594.56,-198.77 498.21,-188.59"/>
<polygon fill="midnightblue" stroke="midnightblue" points="498.5,-185.1 488.19,-187.53 497.76,-192.06 498.5,-185.1"/>
</g>
<!-- Node11 -->
<g id="node11" class="node">
<title>Node11</title>
<g id="a_node11"><a xlink:title=" ">
<polygon fill="none" stroke="#bfbfbf" points="528,-168.5 528,-187.5 613,-187.5 613,-168.5 528,-168.5"/>
<text text-anchor="middle" x="570.5" y="-175.5" font-family="Helvetica,sans-Serif" font-size="10.00">G4Electron.hh</text>
</a>
</g>
</g>
<!-- Node1&#45;&gt;Node11 -->
<g id="edge13" class="edge">
<title>Node1&#45;&gt;Node11</title>
<path fill="none" stroke="midnightblue" d="M859.55,-224.5C801.74,-216.06 710.83,-202.54 622.93,-188.21"/>
<polygon fill="midnightblue" stroke="midnightblue" points="623.5,-184.75 613.06,-186.59 622.37,-191.66 623.5,-184.75"/>
</g>
<!-- Node12 -->
<g id="node12" class="node">
<title>Node12</title>
<g id="a_node12"><a xlink:title=" ">
<polygon fill="none" stroke="#bfbfbf" points="631,-168.5 631,-187.5 732,-187.5 732,-168.5 631,-168.5"/>
<text text-anchor="middle" x="681.5" y="-175.5" font-family="Helvetica,sans-Serif" font-size="10.00">G4MuonMinus.hh</text>
</a>
</g>
</g>
<!-- Node1&#45;&gt;Node12 -->
<g id="edge14" class="edge">
<title>Node1&#45;&gt;Node12</title>
<path fill="none" stroke="midnightblue" d="M880.95,-224.44C839.69,-215.04 773.36,-199.93 728.63,-189.74"/>
<polygon fill="midnightblue" stroke="midnightblue" points="729.41,-186.33 718.88,-187.52 727.85,-193.15 729.41,-186.33"/>
</g>
<!-- Node13 -->
<g id="node13" class="node">
<title>Node13</title>
<g id="a_node13"><a xlink:title=" ">
<polygon fill="none" stroke="#bfbfbf" points="750.5,-168.5 750.5,-187.5 842.5,-187.5 842.5,-168.5 750.5,-168.5"/>
<text text-anchor="middle" x="796.5" y="-175.5" font-family="Helvetica,sans-Serif" font-size="10.00">G4MuonPlus.hh</text>
</a>
</g>
</g>
<!-- Node1&#45;&gt;Node13 -->
<g id="edge15" class="edge">
<title>Node1&#45;&gt;Node13</title>
<path fill="none" stroke="midnightblue" d="M899.17,-224.44C879.18,-215.6 847.76,-201.69 824.94,-191.59"/>
<polygon fill="midnightblue" stroke="midnightblue" points="826.3,-188.36 815.74,-187.52 823.47,-194.76 826.3,-188.36"/>
</g>
<!-- Node14 -->
<g id="node14" class="node">
<title>Node14</title>
<g id="a_node14"><a xlink:title=" ">
<polygon fill="none" stroke="#bfbfbf" points="861,-168.5 861,-187.5 976,-187.5 976,-168.5 861,-168.5"/>
<text text-anchor="middle" x="918.5" y="-175.5" font-family="Helvetica,sans-Serif" font-size="10.00">G4EventManager.hh</text>
</a>
</g>
</g>
<!-- Node1&#45;&gt;Node14 -->
<g id="edge16" class="edge">
<title>Node1&#45;&gt;Node14</title>
<path fill="none" stroke="midnightblue" d="M918.5,-224.08C918.5,-217.01 918.5,-206.86 918.5,-197.99"/>
<polygon fill="midnightblue" stroke="midnightblue" points="922,-197.75 918.5,-187.75 915,-197.75 922,-197.75"/>
</g>
<!-- Node15 -->
<g id="node15" class="node">
<title>Node15</title>
<g id="a_node15"><a xlink:title=" ">
<polygon fill="none" stroke="#bfbfbf" points="994.5,-168.5 994.5,-187.5 1102.5,-187.5 1102.5,-168.5 994.5,-168.5"/>
<text text-anchor="middle" x="1048.5" y="-175.5" font-family="Helvetica,sans-Serif" font-size="10.00">G4ProcessTable.hh</text>
</a>
</g>
</g>
<!-- Node1&#45;&gt;Node15 -->
<g id="edge17" class="edge">
<title>Node1&#45;&gt;Node15</title>
<path fill="none" stroke="midnightblue" d="M939.1,-224.44C960.49,-215.56 994.18,-201.56 1018.52,-191.45"/>
<polygon fill="midnightblue" stroke="midnightblue" points="1020.11,-194.58 1028,-187.52 1017.42,-188.12 1020.11,-194.58"/>
</g>
<!-- Node16 -->
<g id="node16" class="node">
<title>Node16</title>
<g id="a_node16"><a xlink:title=" ">
<polygon fill="none" stroke="#bfbfbf" points="1121,-168.5 1121,-187.5 1226,-187.5 1226,-168.5 1121,-168.5"/>
<text text-anchor="middle" x="1173.5" y="-175.5" font-family="Helvetica,sans-Serif" font-size="10.00">G4ProcessType.hh</text>
</a>
</g>
</g>
<!-- Node1&#45;&gt;Node16 -->
<g id="edge18" class="edge">
<title>Node1&#45;&gt;Node16</title>
<path fill="none" stroke="midnightblue" d="M958.91,-224.44C1003.48,-215 1075.27,-199.8 1123.39,-189.61"/>
<polygon fill="midnightblue" stroke="midnightblue" points="1124.23,-193.01 1133.28,-187.52 1122.78,-186.16 1124.23,-193.01"/>
</g>
<!-- Node17 -->
<g id="node17" class="node">
<title>Node17</title>
<g id="a_node17"><a xlink:title=" ">
<polygon fill="none" stroke="#bfbfbf" points="1244.5,-168.5 1244.5,-187.5 1350.5,-187.5 1350.5,-168.5 1244.5,-168.5"/>
<text text-anchor="middle" x="1297.5" y="-175.5" font-family="Helvetica,sans-Serif" font-size="10.00">G4RunManager.hh</text>
</a>
</g>
</g>
<!-- Node1&#45;&gt;Node17 -->
<g id="edge19" class="edge">
<title>Node1&#45;&gt;Node17</title>
<path fill="none" stroke="midnightblue" d="M978.49,-224.46C1039.88,-215.73 1138.34,-201.71 1234.07,-188.06"/>
<polygon fill="midnightblue" stroke="midnightblue" points="1234.82,-191.49 1244.22,-186.61 1233.83,-184.56 1234.82,-191.49"/>
</g>
<!-- Node18 -->
<g id="node18" class="node">
<title>Node18</title>
<g id="a_node18"><a xlink:href="G4APrime_8h.html" target="_top" xlink:title="Class creating the A&#39; particle in Geant.">
<polygon fill="none" stroke="black" points="1368.5,-168.5 1368.5,-187.5 1508.5,-187.5 1508.5,-168.5 1368.5,-168.5"/>
<text text-anchor="middle" x="1438.5" y="-175.5" font-family="Helvetica,sans-Serif" font-size="10.00">G4DarkBreM/G4APrime.h</text>
</a>
</g>
</g>
<!-- Node1&#45;&gt;Node18 -->
<g id="edge20" class="edge">
<title>Node1&#45;&gt;Node18</title>
<path fill="none" stroke="midnightblue" d="M1005.14,-224.46C1091.83,-215.85 1229.3,-202.01 1358.24,-188.13"/>
<polygon fill="midnightblue" stroke="midnightblue" points="1358.73,-191.59 1368.29,-187.04 1357.98,-184.63 1358.73,-191.59"/>
</g>
<!-- Node3 -->
<g id="node3" class="node">
<title>Node3</title>
<g id="a_node3"><a xlink:title=" ">
<polygon fill="none" stroke="#bfbfbf" points="438.5,-112.5 438.5,-131.5 568.5,-131.5 568.5,-112.5 438.5,-112.5"/>
<text text-anchor="middle" x="503.5" y="-119.5" font-family="Helvetica,sans-Serif" font-size="10.00">G4VDiscreteProcess.hh</text>
</a>
</g>
</g>
<!-- Node2&#45;&gt;Node3 -->
<g id="edge2" class="edge">
<title>Node2&#45;&gt;Node3</title>
<path fill="none" stroke="midnightblue" d="M422.92,-168.32C438.04,-159.82 461.32,-146.73 478.97,-136.8"/>
<polygon fill="midnightblue" stroke="midnightblue" points="481.11,-139.61 488.11,-131.65 477.68,-133.51 481.11,-139.61"/>
</g>
<!-- Node4 -->
<g id="node4" class="node">
<title>Node4</title>
<g id="a_node4"><a xlink:href="PrototypeModel_8h.html" target="_top" xlink:title="Class providing a prototype model for dark brem.">
<polygon fill="none" stroke="black" points="227.5,-56.5 227.5,-75.5 395.5,-75.5 395.5,-56.5 227.5,-56.5"/>
<text text-anchor="middle" x="311.5" y="-63.5" font-family="Helvetica,sans-Serif" font-size="10.00">G4DarkBreM/PrototypeModel.h</text>
</a>
</g>
</g>
<!-- Node2&#45;&gt;Node4 -->
<g id="edge3" class="edge">
<title>Node2&#45;&gt;Node4</title>
<path fill="none" stroke="midnightblue" d="M507.18,-168.49C558.21,-160.21 604.47,-143.92 577.5,-112 555.61,-86.1 473.37,-75.1 406.05,-70.43"/>
<polygon fill="midnightblue" stroke="midnightblue" points="406.02,-66.92 395.82,-69.76 405.57,-73.91 406.02,-66.92"/>
</g>
<!-- Node8 -->
<g id="node8" class="node">
<title>Node8</title>
<g id="a_node8"><a xlink:href="ElementXsecCache_8h_source.html" target="_top" xlink:title=" ">
<polygon fill="none" stroke="black" points="0,-112.5 0,-131.5 185,-131.5 185,-112.5 0,-112.5"/>
<text text-anchor="middle" x="92.5" y="-119.5" font-family="Helvetica,sans-Serif" font-size="10.00">G4DarkBreM/ElementXsecCache.h</text>
</a>
</g>
</g>
<!-- Node2&#45;&gt;Node8 -->
<g id="edge7" class="edge">
<title>Node2&#45;&gt;Node8</title>
<path fill="none" stroke="midnightblue" d="M357.59,-168.44C301.83,-158.89 211.61,-143.42 152.17,-133.23"/>
<polygon fill="midnightblue" stroke="midnightblue" points="152.63,-129.76 142.18,-131.52 151.44,-136.66 152.63,-129.76"/>
</g>
<!-- Node10 -->
<g id="node10" class="node">
<title>Node10</title>
<g id="a_node10"><a xlink:href="ElementXsecInterpolation_8h_source.html" target="_top" xlink:title=" ">
<polygon fill="none" stroke="black" points="203,-112.5 203,-131.5 420,-131.5 420,-112.5 203,-112.5"/>
<text text-anchor="middle" x="311.5" y="-119.5" font-family="Helvetica,sans-Serif" font-size="10.00">G4DarkBreM/ElementXsecInterpolation.h</text>
</a>
</g>
</g>
<!-- Node2&#45;&gt;Node10 -->
<g id="edge10" class="edge">
<title>Node2&#45;&gt;Node10</title>
<path fill="none" stroke="midnightblue" d="M392.08,-168.32C376.96,-159.82 353.68,-146.73 336.03,-136.8"/>
<polygon fill="midnightblue" stroke="midnightblue" points="337.32,-133.51 326.89,-131.65 333.89,-139.61 337.32,-133.51"/>
</g>
<!-- Node5 -->
<g id="node5" class="node">
<title>Node5</title>
<g id="a_node5"><a xlink:title=" ">
<polygon fill="none" stroke="#bfbfbf" points="189,-0.5 189,-19.5 260,-19.5 260,-0.5 189,-0.5"/>
<text text-anchor="middle" x="224.5" y="-7.5" font-family="Helvetica,sans-Serif" font-size="10.00">G4Track.hh</text>
</a>
</g>
</g>
<!-- Node4&#45;&gt;Node5 -->
<g id="edge4" class="edge">
<title>Node4&#45;&gt;Node5</title>
<path fill="none" stroke="midnightblue" d="M297.52,-56.32C283.95,-47.9 263.12,-34.97 247.18,-25.07"/>
<polygon fill="midnightblue" stroke="midnightblue" points="248.79,-21.95 238.44,-19.65 245.09,-27.9 248.79,-21.95"/>
</g>
<!-- Node6 -->
<g id="node6" class="node">
<title>Node6</title>
<g id="a_node6"><a xlink:title=" ">
<polygon fill="none" stroke="#bfbfbf" points="278,-0.5 278,-19.5 345,-19.5 345,-0.5 278,-0.5"/>
<text text-anchor="middle" x="311.5" y="-7.5" font-family="Helvetica,sans-Serif" font-size="10.00">G4Step.hh</text>
</a>
</g>
</g>
<!-- Node4&#45;&gt;Node6 -->
<g id="edge5" class="edge">
<title>Node4&#45;&gt;Node6</title>
<path fill="none" stroke="midnightblue" d="M311.5,-56.08C311.5,-49.01 311.5,-38.86 311.5,-29.99"/>
<polygon fill="midnightblue" stroke="midnightblue" points="315,-29.75 311.5,-19.75 308,-29.75 315,-29.75"/>
</g>
<!-- Node7 -->
<g id="node7" class="node">
<title>Node7</title>
<g id="a_node7"><a xlink:title=" ">
<polygon fill="none" stroke="#bfbfbf" points="363.5,-0.5 363.5,-19.5 481.5,-19.5 481.5,-0.5 363.5,-0.5"/>
<text text-anchor="middle" x="422.5" y="-7.5" font-family="Helvetica,sans-Serif" font-size="10.00">G4ParticleChange.hh</text>
</a>
</g>
</g>
<!-- Node4&#45;&gt;Node7 -->
<g id="edge6" class="edge">
<title>Node4&#45;&gt;Node7</title>
<path fill="none" stroke="midnightblue" d="M329.33,-56.32C347.22,-47.62 374.98,-34.12 395.55,-24.11"/>
<polygon fill="midnightblue" stroke="midnightblue" points="397.25,-27.18 404.71,-19.65 394.19,-20.88 397.25,-27.18"/>
</g>
<!-- Node8&#45;&gt;Node4 -->
<g id="edge9" class="edge">
<title>Node8&#45;&gt;Node4</title>
<path fill="none" stroke="midnightblue" d="M127.2,-112.44C165.08,-103.1 225.85,-88.12 267.16,-77.93"/>
<polygon fill="midnightblue" stroke="midnightblue" points="268.09,-81.31 276.96,-75.52 266.41,-74.51 268.09,-81.31"/>
</g>
<!-- Node9 -->
<g id="node9" class="node">
<title>Node9</title>
<g id="a_node9"><a xlink:title=" ">
<polygon fill="none" stroke="#bfbfbf" points="107.5,-56.5 107.5,-75.5 165.5,-75.5 165.5,-56.5 107.5,-56.5"/>
<text text-anchor="middle" x="136.5" y="-63.5" font-family="Helvetica,sans-Serif" font-size="10.00">memory</text>
</a>
</g>
</g>
<!-- Node8&#45;&gt;Node9 -->
<g id="edge8" class="edge">
<title>Node8&#45;&gt;Node9</title>
<path fill="none" stroke="midnightblue" d="M99.77,-112.08C106.04,-104.38 115.29,-93.03 122.93,-83.65"/>
<polygon fill="midnightblue" stroke="midnightblue" points="125.77,-85.71 129.37,-75.75 120.34,-81.29 125.77,-85.71"/>
</g>
<!-- Node10&#45;&gt;Node4 -->
<g id="edge12" class="edge">
<title>Node10&#45;&gt;Node4</title>
<path fill="none" stroke="midnightblue" d="M311.5,-112.08C311.5,-105.01 311.5,-94.86 311.5,-85.99"/>
<polygon fill="midnightblue" stroke="midnightblue" points="315,-85.75 311.5,-75.75 308,-85.75 315,-85.75"/>
</g>
<!-- Node10&#45;&gt;Node9 -->
<g id="edge11" class="edge">
<title>Node10&#45;&gt;Node9</title>
<path fill="none" stroke="midnightblue" d="M283.77,-112.44C254.07,-103.28 206.78,-88.69 173.83,-78.52"/>
<polygon fill="midnightblue" stroke="midnightblue" points="174.69,-75.12 164.1,-75.52 172.62,-81.81 174.69,-75.12"/>
</g>
<!-- Node19 -->
<g id="node19" class="node">
<title>Node19</title>
<g id="a_node19"><a xlink:title=" ">
<polygon fill="none" stroke="#bfbfbf" points="1303.5,-112.5 1303.5,-131.5 1431.5,-131.5 1431.5,-112.5 1303.5,-112.5"/>
<text text-anchor="middle" x="1367.5" y="-119.5" font-family="Helvetica,sans-Serif" font-size="10.00">G4ParticleDefinition.hh</text>
</a>
</g>
</g>
<!-- Node18&#45;&gt;Node19 -->
<g id="edge21" class="edge">
<title>Node18&#45;&gt;Node19</title>
<path fill="none" stroke="midnightblue" d="M1427.09,-168.32C1416.39,-160.18 1400.16,-147.84 1387.34,-138.09"/>
<polygon fill="midnightblue" stroke="midnightblue" points="1389.19,-135.1 1379.11,-131.83 1384.96,-140.67 1389.19,-135.1"/>
</g>
<!-- Node20 -->
<g id="node20" class="node">
<title>Node20</title>
<g id="a_node20"><a xlink:title=" ">
<polygon fill="none" stroke="#bfbfbf" points="1450,-112.5 1450,-131.5 1569,-131.5 1569,-112.5 1450,-112.5"/>
<text text-anchor="middle" x="1509.5" y="-119.5" font-family="Helvetica,sans-Serif" font-size="10.00">G4SystemOfUnits.hh</text>
</a>
</g>
</g>
<!-- Node18&#45;&gt;Node20 -->
<g id="edge22" class="edge">
<title>Node18&#45;&gt;Node20</title>
<path fill="none" stroke="midnightblue" d="M1449.91,-168.32C1460.61,-160.18 1476.84,-147.84 1489.66,-138.09"/>
<polygon fill="midnightblue" stroke="midnightblue" points="1492.04,-140.67 1497.89,-131.83 1487.81,-135.1 1492.04,-140.67"/>
</g>
</g>
</svg>
