<?xml version="1.0" encoding="UTF-8" standalone="no"?>
<!DOCTYPE svg PUBLIC "-//W3C//DTD SVG 1.1//EN"
 "http://www.w3.org/Graphics/SVG/1.1/DTD/svg11.dtd">
<!-- Generated by graphviz version 2.43.0 (0)
 -->
<!-- Title: src/G4DarkBreM/G4DarkBreMModel.cxx Pages: 1 -->
<svg width="1817pt" height="218pt"
 viewBox="0.00 0.00 1817.00 218.00" xmlns="http://www.w3.org/2000/svg" xmlns:xlink="http://www.w3.org/1999/xlink">
<g id="graph0" class="graph" transform="scale(1 1) rotate(0) translate(4 214)">
<title>src/G4DarkBreM/G4DarkBreMModel.cxx</title>
<!-- Node1 -->
<g id="node1" class="node">
<title>Node1</title>
<g id="a_node1"><a xlink:title="Source file for dark brem model with some static functions that are helpful to be documented.">
<polygon fill="#bfbfbf" stroke="black" points="980.5,-179.5 980.5,-209.5 1132.5,-209.5 1132.5,-179.5 980.5,-179.5"/>
<text text-anchor="start" x="988.5" y="-197.5" font-family="Helvetica,sans-Serif" font-size="10.00">src/G4DarkBreM/G4DarkBre</text>
<text text-anchor="middle" x="1056.5" y="-186.5" font-family="Helvetica,sans-Serif" font-size="10.00">MModel.cxx</text>
</a>
</g>
</g>
<!-- Node2 -->
<g id="node2" class="node">
<title>Node2</title>
<g id="a_node2"><a xlink:href="G4DarkBreMModel_8h_source.html" target="_top" xlink:title=" ">
<polygon fill="none" stroke="black" points="240,-118 240,-137 423,-137 423,-118 240,-118"/>
<text text-anchor="middle" x="331.5" y="-125" font-family="Helvetica,sans-Serif" font-size="10.00">G4DarkBreM/G4DarkBreMModel.h</text>
</a>
</g>
</g>
<!-- Node1&#45;&gt;Node2 -->
<g id="edge1" class="edge">
<title>Node1&#45;&gt;Node2</title>
<path fill="none" stroke="midnightblue" d="M980.21,-187.47C867.88,-178.47 651.39,-160.68 467.5,-143 451.74,-141.48 434.97,-139.78 418.78,-138.08"/>
<polygon fill="midnightblue" stroke="midnightblue" points="419.1,-134.59 408.79,-137.02 418.36,-141.55 419.1,-134.59"/>
</g>
<!-- Node5 -->
<g id="node5" class="node">
<title>Node5</title>
<g id="a_node5"><a xlink:href="ParseLibrary_8h.html" target="_top" xlink:title=" ">
<polygon fill="none" stroke="black" points="378,-56.5 378,-75.5 527,-75.5 527,-56.5 378,-56.5"/>
<text text-anchor="middle" x="452.5" y="-63.5" font-family="Helvetica,sans-Serif" font-size="10.00">G4DarkBreM/ParseLibrary.h</text>
</a>
</g>
</g>
<!-- Node1&#45;&gt;Node5 -->
<g id="edge17" class="edge">
<title>Node1&#45;&gt;Node5</title>
<path fill="none" stroke="midnightblue" d="M980.43,-192.36C854.43,-189.45 608.53,-179.17 530.5,-143 502.31,-129.93 478.17,-102.32 464.49,-84.22"/>
<polygon fill="midnightblue" stroke="midnightblue" points="467.05,-81.78 458.33,-75.75 461.39,-85.9 467.05,-81.78"/>
</g>
<!-- Node14 -->
<g id="node14" class="node">
<title>Node14</title>
<g id="a_node14"><a xlink:href="G4APrime_8h.html" target="_top" xlink:title="Class creating the A&#39; particle in Geant.">
<polygon fill="none" stroke="black" points="539.5,-118 539.5,-137 679.5,-137 679.5,-118 539.5,-118"/>
<text text-anchor="middle" x="609.5" y="-125" font-family="Helvetica,sans-Serif" font-size="10.00">G4DarkBreM/G4APrime.h</text>
</a>
</g>
</g>
<!-- Node1&#45;&gt;Node14 -->
<g id="edge14" class="edge">
<title>Node1&#45;&gt;Node14</title>
<path fill="none" stroke="midnightblue" d="M980.26,-183.63C906.73,-173.94 792.36,-158.41 693.5,-143 685.09,-141.69 676.22,-140.24 667.53,-138.77"/>
<polygon fill="midnightblue" stroke="midnightblue" points="667.88,-135.28 657.43,-137.05 666.7,-142.18 667.88,-135.28"/>
</g>
<!-- Node16 -->
<g id="node16" class="node">
<title>Node16</title>
<g id="a_node16"><a xlink:title=" ">
<polygon fill="none" stroke="#bfbfbf" points="692,-56.5 692,-75.5 811,-75.5 811,-56.5 692,-56.5"/>
<text text-anchor="middle" x="751.5" y="-63.5" font-family="Helvetica,sans-Serif" font-size="10.00">G4SystemOfUnits.hh</text>
</a>
</g>
</g>
<!-- Node1&#45;&gt;Node16 -->
<g id="edge24" class="edge">
<title>Node1&#45;&gt;Node16</title>
<path fill="none" stroke="midnightblue" d="M980.28,-192.88C893.19,-190.35 758.55,-180.32 726.5,-143 711.99,-126.11 725.46,-100.57 737.55,-83.84"/>
<polygon fill="midnightblue" stroke="midnightblue" points="740.6,-85.61 743.94,-75.56 735.06,-81.33 740.6,-85.61"/>
</g>
<!-- Node17 -->
<g id="node17" class="node">
<title>Node17</title>
<g id="a_node17"><a xlink:title=" ">
<polygon fill="none" stroke="#bfbfbf" points="735.5,-118 735.5,-137 821.5,-137 821.5,-118 735.5,-118"/>
<text text-anchor="middle" x="778.5" y="-125" font-family="Helvetica,sans-Serif" font-size="10.00">Randomize.hh</text>
</a>
</g>
</g>
<!-- Node1&#45;&gt;Node17 -->
<g id="edge18" class="edge">
<title>Node1&#45;&gt;Node17</title>
<path fill="none" stroke="midnightblue" d="M990.35,-179.5C945.42,-169.78 884.72,-156.25 831.5,-143 827.33,-141.96 823,-140.84 818.67,-139.7"/>
<polygon fill="midnightblue" stroke="midnightblue" points="819.27,-136.24 808.71,-137.02 817.46,-143 819.27,-136.24"/>
</g>
<!-- Node18 -->
<g id="node18" class="node">
<title>Node18</title>
<g id="a_node18"><a xlink:title=" ">
<polygon fill="none" stroke="#bfbfbf" points="840,-118 840,-137 925,-137 925,-118 840,-118"/>
<text text-anchor="middle" x="882.5" y="-125" font-family="Helvetica,sans-Serif" font-size="10.00">G4Electron.hh</text>
</a>
</g>
</g>
<!-- Node1&#45;&gt;Node18 -->
<g id="edge19" class="edge">
<title>Node1&#45;&gt;Node18</title>
<path fill="none" stroke="midnightblue" d="M1018.74,-179.4C987.67,-167.79 944.11,-151.51 914.67,-140.52"/>
<polygon fill="midnightblue" stroke="midnightblue" points="915.87,-137.23 905.27,-137.01 913.42,-143.79 915.87,-137.23"/>
</g>
<!-- Node19 -->
<g id="node19" class="node">
<title>Node19</title>
<g id="a_node19"><a xlink:title=" ">
<polygon fill="none" stroke="#bfbfbf" points="943,-118 943,-137 1044,-137 1044,-118 943,-118"/>
<text text-anchor="middle" x="993.5" y="-125" font-family="Helvetica,sans-Serif" font-size="10.00">G4MuonMinus.hh</text>
</a>
</g>
</g>
<!-- Node1&#45;&gt;Node19 -->
<g id="edge20" class="edge">
<title>Node1&#45;&gt;Node19</title>
<path fill="none" stroke="midnightblue" d="M1042.83,-179.4C1032.91,-169.16 1019.47,-155.3 1009.13,-144.62"/>
<polygon fill="midnightblue" stroke="midnightblue" points="1011.4,-141.94 1001.93,-137.19 1006.37,-146.81 1011.4,-141.94"/>
</g>
<!-- Node20 -->
<g id="node20" class="node">
<title>Node20</title>
<g id="a_node20"><a xlink:title=" ">
<polygon fill="none" stroke="#bfbfbf" points="1062,-118 1062,-137 1177,-137 1177,-118 1062,-118"/>
<text text-anchor="middle" x="1119.5" y="-125" font-family="Helvetica,sans-Serif" font-size="10.00">G4EventManager.hh</text>
</a>
</g>
</g>
<!-- Node1&#45;&gt;Node20 -->
<g id="edge21" class="edge">
<title>Node1&#45;&gt;Node20</title>
<path fill="none" stroke="midnightblue" d="M1070.17,-179.4C1080.09,-169.16 1093.53,-155.3 1103.87,-144.62"/>
<polygon fill="midnightblue" stroke="midnightblue" points="1106.63,-146.81 1111.07,-137.19 1101.6,-141.94 1106.63,-146.81"/>
</g>
<!-- Node21 -->
<g id="node21" class="node">
<title>Node21</title>
<g id="a_node21"><a xlink:title=" ">
<polygon fill="none" stroke="#bfbfbf" points="1195.5,-118 1195.5,-137 1329.5,-137 1329.5,-118 1195.5,-118"/>
<text text-anchor="middle" x="1262.5" y="-125" font-family="Helvetica,sans-Serif" font-size="10.00">G4PhysicalConstants.hh</text>
</a>
</g>
</g>
<!-- Node1&#45;&gt;Node21 -->
<g id="edge22" class="edge">
<title>Node1&#45;&gt;Node21</title>
<path fill="none" stroke="midnightblue" d="M1100.95,-179.48C1138.19,-167.72 1190.74,-151.14 1225.67,-140.12"/>
<polygon fill="midnightblue" stroke="midnightblue" points="1226.99,-143.38 1235.47,-137.03 1224.88,-136.7 1226.99,-143.38"/>
</g>
<!-- Node22 -->
<g id="node22" class="node">
<title>Node22</title>
<g id="a_node22"><a xlink:title=" ">
<polygon fill="none" stroke="#bfbfbf" points="1347.5,-118 1347.5,-137 1453.5,-137 1453.5,-118 1347.5,-118"/>
<text text-anchor="middle" x="1400.5" y="-125" font-family="Helvetica,sans-Serif" font-size="10.00">G4RunManager.hh</text>
</a>
</g>
</g>
<!-- Node1&#45;&gt;Node22 -->
<g id="edge23" class="edge">
<title>Node1&#45;&gt;Node22</title>
<path fill="none" stroke="midnightblue" d="M1132.71,-180.97C1189.57,-171.35 1269.09,-157.32 1338.5,-143 1343.98,-141.87 1349.72,-140.62 1355.4,-139.34"/>
<polygon fill="midnightblue" stroke="midnightblue" points="1356.52,-142.67 1365.49,-137.03 1354.96,-135.85 1356.52,-142.67"/>
</g>
<!-- Node23 -->
<g id="node23" class="node">
<title>Node23</title>
<g id="a_node23"><a xlink:title=" ">
<polygon fill="none" stroke="#bfbfbf" points="1471.5,-112.5 1471.5,-142.5 1599.5,-142.5 1599.5,-112.5 1471.5,-112.5"/>
<text text-anchor="start" x="1479.5" y="-130.5" font-family="Helvetica,sans-Serif" font-size="10.00">boost/math/quadrature</text>
<text text-anchor="middle" x="1535.5" y="-119.5" font-family="Helvetica,sans-Serif" font-size="10.00">/gauss_kronrod.hpp</text>
</a>
</g>
</g>
<!-- Node1&#45;&gt;Node23 -->
<g id="edge25" class="edge">
<title>Node1&#45;&gt;Node23</title>
<path fill="none" stroke="midnightblue" d="M1132.68,-185.69C1212.21,-177.16 1340.76,-162.3 1461.31,-143.12"/>
<polygon fill="midnightblue" stroke="midnightblue" points="1462.13,-146.53 1471.45,-141.49 1461.02,-139.62 1462.13,-146.53"/>
</g>
<!-- Node24 -->
<g id="node24" class="node">
<title>Node24</title>
<g id="a_node24"><a xlink:title=" ">
<polygon fill="none" stroke="#bfbfbf" points="1618,-118 1618,-137 1669,-137 1669,-118 1618,-118"/>
<text text-anchor="middle" x="1643.5" y="-125" font-family="Helvetica,sans-Serif" font-size="10.00">math.h</text>
</a>
</g>
</g>
<!-- Node1&#45;&gt;Node24 -->
<g id="edge26" class="edge">
<title>Node1&#45;&gt;Node24</title>
<path fill="none" stroke="midnightblue" d="M1132.69,-193.72C1240.29,-192.43 1442.2,-184.05 1608.5,-143 1611.01,-142.38 1613.58,-141.61 1616.13,-140.74"/>
<polygon fill="midnightblue" stroke="midnightblue" points="1617.59,-143.93 1625.69,-137.09 1615.09,-137.39 1617.59,-143.93"/>
</g>
<!-- Node25 -->
<g id="node25" class="node">
<title>Node25</title>
<g id="a_node25"><a xlink:title=" ">
<polygon fill="none" stroke="#bfbfbf" points="1687.5,-118 1687.5,-137 1737.5,-137 1737.5,-118 1687.5,-118"/>
<text text-anchor="middle" x="1712.5" y="-125" font-family="Helvetica,sans-Serif" font-size="10.00">stdio.h</text>
</a>
</g>
</g>
<!-- Node1&#45;&gt;Node25 -->
<g id="edge27" class="edge">
<title>Node1&#45;&gt;Node25</title>
<path fill="none" stroke="midnightblue" d="M1132.53,-190.38C1275.01,-184.04 1577,-168.06 1678.5,-143 1680.87,-142.42 1683.28,-141.69 1685.67,-140.87"/>
<polygon fill="midnightblue" stroke="midnightblue" points="1687.18,-144.03 1695.22,-137.14 1684.64,-137.51 1687.18,-144.03"/>
</g>
<!-- Node26 -->
<g id="node26" class="node">
<title>Node26</title>
<g id="a_node26"><a xlink:title=" ">
<polygon fill="none" stroke="#bfbfbf" points="1756,-118 1756,-137 1809,-137 1809,-118 1756,-118"/>
<text text-anchor="middle" x="1782.5" y="-125" font-family="Helvetica,sans-Serif" font-size="10.00">stdlib.h</text>
</a>
</g>
</g>
<!-- Node1&#45;&gt;Node26 -->
<g id="edge28" class="edge">
<title>Node1&#45;&gt;Node26</title>
<path fill="none" stroke="midnightblue" d="M1132.66,-190.9C1286.97,-185.13 1631.62,-169.65 1746.5,-143 1749.33,-142.34 1752.23,-141.5 1755.09,-140.54"/>
<polygon fill="midnightblue" stroke="midnightblue" points="1756.4,-143.79 1764.54,-137 1753.95,-137.23 1756.4,-143.79"/>
</g>
<!-- Node3 -->
<g id="node3" class="node">
<title>Node3</title>
<g id="a_node3"><a xlink:title=" ">
<polygon fill="none" stroke="#bfbfbf" points="302.5,-56.5 302.5,-75.5 360.5,-75.5 360.5,-56.5 302.5,-56.5"/>
<text text-anchor="middle" x="331.5" y="-63.5" font-family="Helvetica,sans-Serif" font-size="10.00">memory</text>
</a>
</g>
</g>
<!-- Node2&#45;&gt;Node3 -->
<g id="edge2" class="edge">
<title>Node2&#45;&gt;Node3</title>
<path fill="none" stroke="midnightblue" d="M331.5,-117.98C331.5,-109.58 331.5,-96.48 331.5,-85.66"/>
<polygon fill="midnightblue" stroke="midnightblue" points="335,-85.51 331.5,-75.51 328,-85.51 335,-85.51"/>
</g>
<!-- Node4 -->
<g id="node4" class="node">
<title>Node4</title>
<g id="a_node4"><a xlink:title=" ">
<polygon fill="none" stroke="#bfbfbf" points="310.5,-0.5 310.5,-19.5 348.5,-19.5 348.5,-0.5 310.5,-0.5"/>
<text text-anchor="middle" x="329.5" y="-7.5" font-family="Helvetica,sans-Serif" font-size="10.00">map</text>
</a>
</g>
</g>
<!-- Node2&#45;&gt;Node4 -->
<g id="edge3" class="edge">
<title>Node2&#45;&gt;Node4</title>
<path fill="none" stroke="midnightblue" d="M322.17,-117.89C312.85,-108.6 299.13,-92.86 293.5,-76 290.68,-67.57 290.56,-64.39 293.5,-56 297.29,-45.21 304.87,-35.08 312.1,-27.18"/>
<polygon fill="midnightblue" stroke="midnightblue" points="314.83,-29.4 319.34,-19.81 309.83,-24.49 314.83,-29.4"/>
</g>
<!-- Node2&#45;&gt;Node5 -->
<g id="edge4" class="edge">
<title>Node2&#45;&gt;Node5</title>
<path fill="none" stroke="midnightblue" d="M348.84,-117.98C369.05,-108.03 402.69,-91.49 426.14,-79.96"/>
<polygon fill="midnightblue" stroke="midnightblue" points="427.77,-83.06 435.2,-75.51 424.68,-76.78 427.77,-83.06"/>
</g>
<!-- Node10 -->
<g id="node10" class="node">
<title>Node10</title>
<g id="a_node10"><a xlink:href="PrototypeModel_8h.html" target="_top" xlink:title="Class providing a prototype model for dark brem.">
<polygon fill="none" stroke="black" points="58.5,-56.5 58.5,-75.5 226.5,-75.5 226.5,-56.5 58.5,-56.5"/>
<text text-anchor="middle" x="142.5" y="-63.5" font-family="Helvetica,sans-Serif" font-size="10.00">G4DarkBreM/PrototypeModel.h</text>
</a>
</g>
</g>
<!-- Node2&#45;&gt;Node10 -->
<g id="edge10" class="edge">
<title>Node2&#45;&gt;Node10</title>
<path fill="none" stroke="midnightblue" d="M304.42,-117.98C271.58,-107.64 216.07,-90.16 179.35,-78.6"/>
<polygon fill="midnightblue" stroke="midnightblue" points="180.12,-75.17 169.53,-75.51 178.02,-81.85 180.12,-75.17"/>
</g>
<!-- Node5&#45;&gt;Node4 -->
<g id="edge6" class="edge">
<title>Node5&#45;&gt;Node4</title>
<path fill="none" stroke="midnightblue" d="M433.01,-56.44C412.86,-47.6 381.18,-33.69 358.17,-23.59"/>
<polygon fill="midnightblue" stroke="midnightblue" points="359.46,-20.33 348.9,-19.52 356.65,-26.74 359.46,-20.33"/>
</g>
<!-- Node6 -->
<g id="node6" class="node">
<title>Node6</title>
<g id="a_node6"><a xlink:title=" ">
<polygon fill="none" stroke="#bfbfbf" points="366.5,-0.5 366.5,-19.5 410.5,-19.5 410.5,-0.5 366.5,-0.5"/>
<text text-anchor="middle" x="388.5" y="-7.5" font-family="Helvetica,sans-Serif" font-size="10.00">string</text>
</a>
</g>
</g>
<!-- Node5&#45;&gt;Node6 -->
<g id="edge5" class="edge">
<title>Node5&#45;&gt;Node6</title>
<path fill="none" stroke="midnightblue" d="M442.22,-56.32C432.66,-48.26 418.22,-36.08 406.72,-26.37"/>
<polygon fill="midnightblue" stroke="midnightblue" points="408.87,-23.61 398.97,-19.83 404.36,-28.96 408.87,-23.61"/>
</g>
<!-- Node7 -->
<g id="node7" class="node">
<title>Node7</title>
<g id="a_node7"><a xlink:title=" ">
<polygon fill="none" stroke="#bfbfbf" points="429,-0.5 429,-19.5 476,-19.5 476,-0.5 429,-0.5"/>
<text text-anchor="middle" x="452.5" y="-7.5" font-family="Helvetica,sans-Serif" font-size="10.00">vector</text>
</a>
</g>
</g>
<!-- Node5&#45;&gt;Node7 -->
<g id="edge7" class="edge">
<title>Node5&#45;&gt;Node7</title>
<path fill="none" stroke="midnightblue" d="M452.5,-56.08C452.5,-49.01 452.5,-38.86 452.5,-29.99"/>
<polygon fill="midnightblue" stroke="midnightblue" points="456,-29.75 452.5,-19.75 449,-29.75 456,-29.75"/>
</g>
<!-- Node8 -->
<g id="node8" class="node">
<title>Node8</title>
<g id="a_node8"><a xlink:title=" ">
<polygon fill="none" stroke="#bfbfbf" points="494,-0.5 494,-19.5 551,-19.5 551,-0.5 494,-0.5"/>
<text text-anchor="middle" x="522.5" y="-7.5" font-family="Helvetica,sans-Serif" font-size="10.00">ostream</text>
</a>
</g>
</g>
<!-- Node5&#45;&gt;Node8 -->
<g id="edge8" class="edge">
<title>Node5&#45;&gt;Node8</title>
<path fill="none" stroke="midnightblue" d="M463.75,-56.32C474.3,-48.18 490.3,-35.84 502.94,-26.09"/>
<polygon fill="midnightblue" stroke="midnightblue" points="505.27,-28.71 511.05,-19.83 500.99,-23.17 505.27,-28.71"/>
</g>
<!-- Node9 -->
<g id="node9" class="node">
<title>Node9</title>
<g id="a_node9"><a xlink:title=" ">
<polygon fill="none" stroke="#bfbfbf" points="569.5,-0.5 569.5,-19.5 729.5,-19.5 729.5,-0.5 569.5,-0.5"/>
<text text-anchor="middle" x="649.5" y="-7.5" font-family="Helvetica,sans-Serif" font-size="10.00">CLHEP/Vector/LorentzVector.h</text>
</a>
</g>
</g>
<!-- Node5&#45;&gt;Node9 -->
<g id="edge9" class="edge">
<title>Node5&#45;&gt;Node9</title>
<path fill="none" stroke="midnightblue" d="M483.72,-56.44C517.43,-47.2 571.3,-32.44 608.43,-22.26"/>
<polygon fill="midnightblue" stroke="midnightblue" points="609.71,-25.54 618.43,-19.52 607.86,-18.78 609.71,-25.54"/>
</g>
<!-- Node11 -->
<g id="node11" class="node">
<title>Node11</title>
<g id="a_node11"><a xlink:title=" ">
<polygon fill="none" stroke="#bfbfbf" points="0,-0.5 0,-19.5 71,-19.5 71,-0.5 0,-0.5"/>
<text text-anchor="middle" x="35.5" y="-7.5" font-family="Helvetica,sans-Serif" font-size="10.00">G4Track.hh</text>
</a>
</g>
</g>
<!-- Node10&#45;&gt;Node11 -->
<g id="edge11" class="edge">
<title>Node10&#45;&gt;Node11</title>
<path fill="none" stroke="midnightblue" d="M125.31,-56.32C108.15,-47.66 81.55,-34.24 61.75,-24.25"/>
<polygon fill="midnightblue" stroke="midnightblue" points="63.15,-21.04 52.65,-19.65 60,-27.28 63.15,-21.04"/>
</g>
<!-- Node12 -->
<g id="node12" class="node">
<title>Node12</title>
<g id="a_node12"><a xlink:title=" ">
<polygon fill="none" stroke="#bfbfbf" points="89,-0.5 89,-19.5 156,-19.5 156,-0.5 89,-0.5"/>
<text text-anchor="middle" x="122.5" y="-7.5" font-family="Helvetica,sans-Serif" font-size="10.00">G4Step.hh</text>
</a>
</g>
</g>
<!-- Node10&#45;&gt;Node12 -->
<g id="edge12" class="edge">
<title>Node10&#45;&gt;Node12</title>
<path fill="none" stroke="midnightblue" d="M139.2,-56.08C136.52,-48.85 132.65,-38.41 129.31,-29.4"/>
<polygon fill="midnightblue" stroke="midnightblue" points="132.5,-27.91 125.74,-19.75 125.93,-30.34 132.5,-27.91"/>
</g>
<!-- Node13 -->
<g id="node13" class="node">
<title>Node13</title>
<g id="a_node13"><a xlink:title=" ">
<polygon fill="none" stroke="#bfbfbf" points="174.5,-0.5 174.5,-19.5 292.5,-19.5 292.5,-0.5 174.5,-0.5"/>
<text text-anchor="middle" x="233.5" y="-7.5" font-family="Helvetica,sans-Serif" font-size="10.00">G4ParticleChange.hh</text>
</a>
</g>
</g>
<!-- Node10&#45;&gt;Node13 -->
<g id="edge13" class="edge">
<title>Node10&#45;&gt;Node13</title>
<path fill="none" stroke="midnightblue" d="M157.12,-56.32C171.45,-47.82 193.51,-34.73 210.25,-24.8"/>
<polygon fill="midnightblue" stroke="midnightblue" points="212.1,-27.77 218.92,-19.65 208.53,-21.75 212.1,-27.77"/>
</g>
<!-- Node15 -->
<g id="node15" class="node">
<title>Node15</title>
<g id="a_node15"><a xlink:title=" ">
<polygon fill="none" stroke="#bfbfbf" points="545.5,-56.5 545.5,-75.5 673.5,-75.5 673.5,-56.5 545.5,-56.5"/>
<text text-anchor="middle" x="609.5" y="-63.5" font-family="Helvetica,sans-Serif" font-size="10.00">G4ParticleDefinition.hh</text>
</a>
</g>
</g>
<!-- Node14&#45;&gt;Node15 -->
<g id="edge15" class="edge">
<title>Node14&#45;&gt;Node15</title>
<path fill="none" stroke="midnightblue" d="M609.5,-117.98C609.5,-109.58 609.5,-96.48 609.5,-85.66"/>
<polygon fill="midnightblue" stroke="midnightblue" points="613,-85.51 609.5,-75.51 606,-85.51 613,-85.51"/>
</g>
<!-- Node14&#45;&gt;Node16 -->
<g id="edge16" class="edge">
<title>Node14&#45;&gt;Node16</title>
<path fill="none" stroke="midnightblue" d="M629.85,-117.98C653.89,-107.9 694.1,-91.05 721.66,-79.5"/>
<polygon fill="midnightblue" stroke="midnightblue" points="723.32,-82.6 731.19,-75.51 720.62,-76.15 723.32,-82.6"/>
</g>
</g>
</svg>
