<?xml version="1.0" encoding="UTF-8" standalone="no"?>
<!DOCTYPE svg PUBLIC "-//W3C//DTD SVG 1.1//EN"
 "http://www.w3.org/Graphics/SVG/1.1/DTD/svg11.dtd">
<!-- Generated by graphviz version 2.43.0 (0)
 -->
<!-- Title: include/G4DarkBreM/ParseLibrary.h Pages: 1 -->
<svg width="504pt" height="173pt"
 viewBox="0.00 0.00 503.50 173.00" xmlns="http://www.w3.org/2000/svg" xmlns:xlink="http://www.w3.org/1999/xlink">
<g id="graph0" class="graph" transform="scale(1 1) rotate(0) translate(4 169)">
<title>include/G4DarkBreM/ParseLibrary.h</title>
<!-- Node1 -->
<g id="node1" class="node">
<title>Node1</title>
<g id="a_node1"><a xlink:title=" ">
<polygon fill="#bfbfbf" stroke="black" points="153.5,-134.5 153.5,-164.5 270.5,-164.5 270.5,-134.5 153.5,-134.5"/>
<text text-anchor="start" x="161.5" y="-152.5" font-family="Helvetica,sans-Serif" font-size="10.00">include/G4DarkBreM</text>
<text text-anchor="middle" x="212" y="-141.5" font-family="Helvetica,sans-Serif" font-size="10.00">/ParseLibrary.h</text>
</a>
</g>
</g>
<!-- Node2 -->
<g id="node2" class="node">
<title>Node2</title>
<g id="a_node2"><a xlink:href="G4DarkBreMModel_8cxx.html" target="_top" xlink:title="Source file for dark brem model with some static functions that are helpful to be documented.">
<polygon fill="none" stroke="black" points="0,-0.5 0,-30.5 152,-30.5 152,-0.5 0,-0.5"/>
<text text-anchor="start" x="8" y="-18.5" font-family="Helvetica,sans-Serif" font-size="10.00">src/G4DarkBreM/G4DarkBre</text>
<text text-anchor="middle" x="76" y="-7.5" font-family="Helvetica,sans-Serif" font-size="10.00">MModel.cxx</text>
</a>
</g>
</g>
<!-- Node1&#45;&gt;Node2 -->
<g id="edge1" class="edge">
<title>Node1&#45;&gt;Node2</title>
<path fill="none" stroke="midnightblue" d="M180.96,-128.74C168.29,-120.02 153.85,-109.21 142,-98 119.51,-76.73 97.79,-47.77 85.73,-30.71"/>
<polygon fill="midnightblue" stroke="midnightblue" points="179.15,-131.74 189.4,-134.42 183.06,-125.94 179.15,-131.74"/>
</g>
<!-- Node3 -->
<g id="node3" class="node">
<title>Node3</title>
<g id="a_node3"><a xlink:href="G4DarkBreMModel_8h_source.html" target="_top" xlink:title=" ">
<polygon fill="none" stroke="black" points="151.5,-67.5 151.5,-97.5 272.5,-97.5 272.5,-67.5 151.5,-67.5"/>
<text text-anchor="start" x="159.5" y="-85.5" font-family="Helvetica,sans-Serif" font-size="10.00">include/G4DarkBreM</text>
<text text-anchor="middle" x="212" y="-74.5" font-family="Helvetica,sans-Serif" font-size="10.00">/G4DarkBreMModel.h</text>
</a>
</g>
</g>
<!-- Node1&#45;&gt;Node3 -->
<g id="edge2" class="edge">
<title>Node1&#45;&gt;Node3</title>
<path fill="none" stroke="midnightblue" d="M212,-124.11C212,-115.15 212,-105.32 212,-97.58"/>
<polygon fill="midnightblue" stroke="midnightblue" points="208.5,-124.4 212,-134.4 215.5,-124.4 208.5,-124.4"/>
</g>
<!-- Node7 -->
<g id="node7" class="node">
<title>Node7</title>
<g id="a_node7"><a xlink:href="extract__library_8cxx.html" target="_top" xlink:title=" ">
<polygon fill="none" stroke="black" points="291,-73 291,-92 419,-92 419,-73 291,-73"/>
<text text-anchor="middle" x="355" y="-80" font-family="Helvetica,sans-Serif" font-size="10.00">app/extract_library.cxx</text>
</a>
</g>
</g>
<!-- Node1&#45;&gt;Node7 -->
<g id="edge7" class="edge">
<title>Node1&#45;&gt;Node7</title>
<path fill="none" stroke="midnightblue" d="M252.41,-130.13C279.93,-117.62 315.09,-101.64 336.28,-92.01"/>
<polygon fill="midnightblue" stroke="midnightblue" points="250.68,-127.07 243.03,-134.4 253.58,-133.44 250.68,-127.07"/>
</g>
<!-- Node3&#45;&gt;Node2 -->
<g id="edge3" class="edge">
<title>Node3&#45;&gt;Node2</title>
<path fill="none" stroke="midnightblue" d="M173.28,-62.99C151.72,-52.69 125.31,-40.07 105.45,-30.58"/>
<polygon fill="midnightblue" stroke="midnightblue" points="171.96,-66.24 182.49,-67.4 174.98,-59.93 171.96,-66.24"/>
</g>
<!-- Node4 -->
<g id="node4" class="node">
<title>Node4</title>
<g id="a_node4"><a xlink:href="scale_8cxx.html" target="_top" xlink:title=" ">
<polygon fill="none" stroke="black" points="170.5,-6 170.5,-25 253.5,-25 253.5,-6 170.5,-6"/>
<text text-anchor="middle" x="212" y="-13" font-family="Helvetica,sans-Serif" font-size="10.00">app/scale.cxx</text>
</a>
</g>
</g>
<!-- Node3&#45;&gt;Node4 -->
<g id="edge4" class="edge">
<title>Node3&#45;&gt;Node4</title>
<path fill="none" stroke="midnightblue" d="M212,-57.25C212,-46.02 212,-33.38 212,-25.19"/>
<polygon fill="midnightblue" stroke="midnightblue" points="208.5,-57.4 212,-67.4 215.5,-57.4 208.5,-57.4"/>
</g>
<!-- Node5 -->
<g id="node5" class="node">
<title>Node5</title>
<g id="a_node5"><a xlink:href="simulate_8cxx.html" target="_top" xlink:title=" ">
<polygon fill="none" stroke="black" points="271.5,-6 271.5,-25 372.5,-25 372.5,-6 271.5,-6"/>
<text text-anchor="middle" x="322" y="-13" font-family="Helvetica,sans-Serif" font-size="10.00">app/simulate.cxx</text>
</a>
</g>
</g>
<!-- Node3&#45;&gt;Node5 -->
<g id="edge5" class="edge">
<title>Node3&#45;&gt;Node5</title>
<path fill="none" stroke="midnightblue" d="M244.48,-62.31C265.43,-49.93 291.66,-34.43 307.6,-25.01"/>
<polygon fill="midnightblue" stroke="midnightblue" points="242.7,-59.3 235.87,-67.4 246.26,-65.32 242.7,-59.3"/>
</g>
<!-- Node6 -->
<g id="node6" class="node">
<title>Node6</title>
<g id="a_node6"><a xlink:href="xsec__calc_8cxx.html" target="_top" xlink:title=" ">
<polygon fill="none" stroke="black" points="390.5,-6 390.5,-25 495.5,-25 495.5,-6 390.5,-6"/>
<text text-anchor="middle" x="443" y="-13" font-family="Helvetica,sans-Serif" font-size="10.00">app/xsec_calc.cxx</text>
</a>
</g>
</g>
<!-- Node3&#45;&gt;Node6 -->
<g id="edge6" class="edge">
<title>Node3&#45;&gt;Node6</title>
<path fill="none" stroke="midnightblue" d="M271.53,-64.75C316.7,-52.04 376.95,-35.09 412.69,-25.03"/>
<polygon fill="midnightblue" stroke="midnightblue" points="270.52,-61.4 261.84,-67.48 272.41,-68.14 270.52,-61.4"/>
</g>
</g>
</svg>
