<?xml version="1.0" encoding="UTF-8" standalone="no"?>
<!DOCTYPE svg PUBLIC "-//W3C//DTD SVG 1.1//EN"
 "http://www.w3.org/Graphics/SVG/1.1/DTD/svg11.dtd">
<!-- Generated by graphviz version 2.43.0 (0)
 -->
<!-- Title: include/G4DarkBreM/PrototypeModel.h Pages: 1 -->
<svg width="755pt" height="240pt"
 viewBox="0.00 0.00 754.50 240.00" xmlns="http://www.w3.org/2000/svg" xmlns:xlink="http://www.w3.org/1999/xlink">
<g id="graph0" class="graph" transform="scale(1 1) rotate(0) translate(4 236)">
<title>include/G4DarkBreM/PrototypeModel.h</title>
<!-- Node1 -->
<g id="node1" class="node">
<title>Node1</title>
<g id="a_node1"><a xlink:title="Class providing a prototype model for dark brem.">
<polygon fill="#bfbfbf" stroke="black" points="334,-201.5 334,-231.5 451,-231.5 451,-201.5 334,-201.5"/>
<text text-anchor="start" x="342" y="-219.5" font-family="Helvetica,sans-Serif" font-size="10.00">include/G4DarkBreM</text>
<text text-anchor="middle" x="392.5" y="-208.5" font-family="Helvetica,sans-Serif" font-size="10.00">/PrototypeModel.h</text>
</a>
</g>
</g>
<!-- Node2 -->
<g id="node2" class="node">
<title>Node2</title>
<g id="a_node2"><a xlink:href="ElementXsecCache_8h_source.html" target="_top" xlink:title=" ">
<polygon fill="none" stroke="black" points="242.5,-134.5 242.5,-164.5 364.5,-164.5 364.5,-134.5 242.5,-134.5"/>
<text text-anchor="start" x="250.5" y="-152.5" font-family="Helvetica,sans-Serif" font-size="10.00">include/G4DarkBreM</text>
<text text-anchor="middle" x="303.5" y="-141.5" font-family="Helvetica,sans-Serif" font-size="10.00">/ElementXsecCache.h</text>
</a>
</g>
</g>
<!-- Node1&#45;&gt;Node2 -->
<g id="edge1" class="edge">
<title>Node1&#45;&gt;Node2</title>
<path fill="none" stroke="midnightblue" d="M365.05,-195.45C351.36,-185.45 335.13,-173.6 322.77,-164.58"/>
<polygon fill="midnightblue" stroke="midnightblue" points="363.05,-198.32 373.19,-201.4 367.18,-192.67 363.05,-198.32"/>
</g>
<!-- Node3 -->
<g id="node3" class="node">
<title>Node3</title>
<g id="a_node3"><a xlink:href="G4DarkBremsstrahlung_8h.html" target="_top" xlink:title="Class providing the Dark Bremsstrahlung process class.">
<polygon fill="none" stroke="black" points="232,-67.5 232,-97.5 375,-97.5 375,-67.5 232,-67.5"/>
<text text-anchor="start" x="240" y="-85.5" font-family="Helvetica,sans-Serif" font-size="10.00">include/G4DarkBreM</text>
<text text-anchor="middle" x="303.5" y="-74.5" font-family="Helvetica,sans-Serif" font-size="10.00">/G4DarkBremsstrahlung.h</text>
</a>
</g>
</g>
<!-- Node1&#45;&gt;Node3 -->
<g id="edge11" class="edge">
<title>Node1&#45;&gt;Node3</title>
<path fill="none" stroke="midnightblue" d="M391.29,-190.99C389.42,-173.81 384.8,-150.96 373.5,-134 363.2,-118.53 346.46,-106.2 331.93,-97.6"/>
<polygon fill="midnightblue" stroke="midnightblue" points="387.83,-191.68 392.16,-201.35 394.81,-191.09 387.83,-191.68"/>
</g>
<!-- Node7 -->
<g id="node7" class="node">
<title>Node7</title>
<g id="a_node7"><a xlink:href="G4DarkBreMModel_8h_source.html" target="_top" xlink:title=" ">
<polygon fill="none" stroke="black" points="393,-67.5 393,-97.5 514,-97.5 514,-67.5 393,-67.5"/>
<text text-anchor="start" x="401" y="-85.5" font-family="Helvetica,sans-Serif" font-size="10.00">include/G4DarkBreM</text>
<text text-anchor="middle" x="453.5" y="-74.5" font-family="Helvetica,sans-Serif" font-size="10.00">/G4DarkBreMModel.h</text>
</a>
</g>
</g>
<!-- Node1&#45;&gt;Node7 -->
<g id="edge6" class="edge">
<title>Node1&#45;&gt;Node7</title>
<path fill="none" stroke="midnightblue" d="M403.31,-192.12C415.98,-164.68 436.59,-120.09 447.02,-97.52"/>
<polygon fill="midnightblue" stroke="midnightblue" points="400.05,-190.83 399.03,-201.37 406.4,-193.76 400.05,-190.83"/>
</g>
<!-- Node2&#45;&gt;Node3 -->
<g id="edge2" class="edge">
<title>Node2&#45;&gt;Node3</title>
<path fill="none" stroke="midnightblue" d="M303.5,-124.11C303.5,-115.15 303.5,-105.32 303.5,-97.58"/>
<polygon fill="midnightblue" stroke="midnightblue" points="300,-124.4 303.5,-134.4 307,-124.4 300,-124.4"/>
</g>
<!-- Node4 -->
<g id="node4" class="node">
<title>Node4</title>
<g id="a_node4"><a xlink:href="G4DarkBremsstrahlung_8cxx.html" target="_top" xlink:title="Class providing the Dark Bremsstrahlung process class.">
<polygon fill="none" stroke="black" points="0,-6 0,-25 233,-25 233,-6 0,-6"/>
<text text-anchor="middle" x="116.5" y="-13" font-family="Helvetica,sans-Serif" font-size="10.00">src/G4DarkBreM/G4DarkBremsstrahlung.cxx</text>
</a>
</g>
</g>
<!-- Node3&#45;&gt;Node4 -->
<g id="edge3" class="edge">
<title>Node3&#45;&gt;Node4</title>
<path fill="none" stroke="midnightblue" d="M253.46,-64.11C217.08,-51.46 169.41,-34.89 140.97,-25.01"/>
<polygon fill="midnightblue" stroke="midnightblue" points="252.33,-67.42 262.92,-67.4 254.63,-60.81 252.33,-67.42"/>
</g>
<!-- Node5 -->
<g id="node5" class="node">
<title>Node5</title>
<g id="a_node5"><a xlink:href="simulate_8cxx.html" target="_top" xlink:title=" ">
<polygon fill="none" stroke="black" points="374,-6 374,-25 475,-25 475,-6 374,-6"/>
<text text-anchor="middle" x="424.5" y="-13" font-family="Helvetica,sans-Serif" font-size="10.00">app/simulate.cxx</text>
</a>
</g>
</g>
<!-- Node3&#45;&gt;Node5 -->
<g id="edge4" class="edge">
<title>Node3&#45;&gt;Node5</title>
<path fill="none" stroke="midnightblue" d="M338.61,-62.64C361.76,-50.2 390.97,-34.51 408.66,-25.01"/>
<polygon fill="midnightblue" stroke="midnightblue" points="336.91,-59.58 329.76,-67.4 340.22,-65.75 336.91,-59.58"/>
</g>
<!-- Node6 -->
<g id="node6" class="node">
<title>Node6</title>
<g id="a_node6"><a xlink:href="xsec__calc_8cxx.html" target="_top" xlink:title=" ">
<polygon fill="none" stroke="black" points="251,-6 251,-25 356,-25 356,-6 251,-6"/>
<text text-anchor="middle" x="303.5" y="-13" font-family="Helvetica,sans-Serif" font-size="10.00">app/xsec_calc.cxx</text>
</a>
</g>
</g>
<!-- Node3&#45;&gt;Node6 -->
<g id="edge5" class="edge">
<title>Node3&#45;&gt;Node6</title>
<path fill="none" stroke="midnightblue" d="M303.5,-57.25C303.5,-46.02 303.5,-33.38 303.5,-25.19"/>
<polygon fill="midnightblue" stroke="midnightblue" points="300,-57.4 303.5,-67.4 307,-57.4 300,-57.4"/>
</g>
<!-- Node7&#45;&gt;Node5 -->
<g id="edge9" class="edge">
<title>Node7&#45;&gt;Node5</title>
<path fill="none" stroke="midnightblue" d="M442.99,-57.94C437.9,-46.54 432.1,-33.55 428.38,-25.19"/>
<polygon fill="midnightblue" stroke="midnightblue" points="439.94,-59.69 447.21,-67.4 446.33,-56.84 439.94,-59.69"/>
</g>
<!-- Node7&#45;&gt;Node6 -->
<g id="edge10" class="edge">
<title>Node7&#45;&gt;Node6</title>
<path fill="none" stroke="midnightblue" d="M411.49,-63.3C382.56,-50.76 345.46,-34.68 323.13,-25.01"/>
<polygon fill="midnightblue" stroke="midnightblue" points="410.39,-66.63 420.95,-67.4 413.17,-60.21 410.39,-66.63"/>
</g>
<!-- Node8 -->
<g id="node8" class="node">
<title>Node8</title>
<g id="a_node8"><a xlink:href="G4DarkBreMModel_8cxx.html" target="_top" xlink:title="Source file for dark brem model with some static functions that are helpful to be documented.">
<polygon fill="none" stroke="black" points="594.5,-0.5 594.5,-30.5 746.5,-30.5 746.5,-0.5 594.5,-0.5"/>
<text text-anchor="start" x="602.5" y="-18.5" font-family="Helvetica,sans-Serif" font-size="10.00">src/G4DarkBreM/G4DarkBre</text>
<text text-anchor="middle" x="670.5" y="-7.5" font-family="Helvetica,sans-Serif" font-size="10.00">MModel.cxx</text>
</a>
</g>
</g>
<!-- Node7&#45;&gt;Node8 -->
<g id="edge7" class="edge">
<title>Node7&#45;&gt;Node8</title>
<path fill="none" stroke="midnightblue" d="M509.99,-64.58C545.23,-54.02 590.07,-40.59 623.39,-30.61"/>
<polygon fill="midnightblue" stroke="midnightblue" points="508.89,-61.25 500.32,-67.48 510.9,-67.96 508.89,-61.25"/>
</g>
<!-- Node9 -->
<g id="node9" class="node">
<title>Node9</title>
<g id="a_node9"><a xlink:href="scale_8cxx.html" target="_top" xlink:title=" ">
<polygon fill="none" stroke="black" points="493,-6 493,-25 576,-25 576,-6 493,-6"/>
<text text-anchor="middle" x="534.5" y="-13" font-family="Helvetica,sans-Serif" font-size="10.00">app/scale.cxx</text>
</a>
</g>
</g>
<!-- Node7&#45;&gt;Node9 -->
<g id="edge8" class="edge">
<title>Node7&#45;&gt;Node9</title>
<path fill="none" stroke="midnightblue" d="M479.04,-61.01C494.07,-48.94 512.31,-34.3 523.67,-25.19"/>
<polygon fill="midnightblue" stroke="midnightblue" points="476.68,-58.41 471.08,-67.4 481.07,-63.87 476.68,-58.41"/>
</g>
</g>
</svg>
