<?xml version="1.0" encoding="UTF-8" standalone="no"?>
<!DOCTYPE svg PUBLIC "-//W3C//DTD SVG 1.1//EN"
 "http://www.w3.org/Graphics/SVG/1.1/DTD/svg11.dtd">
<!-- Generated by graphviz version 2.43.0 (0)
 -->
<!-- Title: include/G4DarkBreM/PrototypeModel.h Pages: 1 -->
<svg width="645pt" height="229pt"
 viewBox="0.00 0.00 644.50 229.00" xmlns="http://www.w3.org/2000/svg" xmlns:xlink="http://www.w3.org/1999/xlink">
<g id="graph0" class="graph" transform="scale(1 1) rotate(0) translate(4 225)">
<title>include/G4DarkBreM/PrototypeModel.h</title>
<!-- Node1 -->
<g id="node1" class="node">
<title>Node1</title>
<g id="a_node1"><a xlink:title="Class providing a prototype model for dark brem.">
<polygon fill="#bfbfbf" stroke="black" points="144.5,-190.5 144.5,-220.5 261.5,-220.5 261.5,-190.5 144.5,-190.5"/>
<text text-anchor="start" x="152.5" y="-208.5" font-family="Helvetica,sans-Serif" font-size="10.00">include/G4DarkBreM</text>
<text text-anchor="middle" x="203" y="-197.5" font-family="Helvetica,sans-Serif" font-size="10.00">/PrototypeModel.h</text>
</a>
</g>
</g>
<!-- Node2 -->
<g id="node2" class="node">
<title>Node2</title>
<g id="a_node2"><a xlink:href="ElementXsecCache_8h_source.html" target="_top" xlink:title=" ">
<polygon fill="none" stroke="black" points="0,-123.5 0,-153.5 122,-153.5 122,-123.5 0,-123.5"/>
<text text-anchor="start" x="8" y="-141.5" font-family="Helvetica,sans-Serif" font-size="10.00">include/G4DarkBreM</text>
<text text-anchor="middle" x="61" y="-130.5" font-family="Helvetica,sans-Serif" font-size="10.00">/ElementXsecCache.h</text>
</a>
</g>
</g>
<!-- Node1&#45;&gt;Node2 -->
<g id="edge1" class="edge">
<title>Node1&#45;&gt;Node2</title>
<path fill="none" stroke="midnightblue" d="M162.87,-186.13C140.31,-175.8 112.58,-163.11 91.75,-153.58"/>
<polygon fill="midnightblue" stroke="midnightblue" points="161.64,-189.42 172.19,-190.4 164.55,-183.05 161.64,-189.42"/>
</g>
<!-- Node3 -->
<g id="node3" class="node">
<title>Node3</title>
<g id="a_node3"><a xlink:href="G4DarkBremsstrahlung_8h.html" target="_top" xlink:title="Class providing the Dark Bremsstrahlung process class.">
<polygon fill="none" stroke="black" points="60.5,-56.5 60.5,-86.5 203.5,-86.5 203.5,-56.5 60.5,-56.5"/>
<text text-anchor="start" x="68.5" y="-74.5" font-family="Helvetica,sans-Serif" font-size="10.00">include/G4DarkBreM</text>
<text text-anchor="middle" x="132" y="-63.5" font-family="Helvetica,sans-Serif" font-size="10.00">/G4DarkBremsstrahlung.h</text>
</a>
</g>
</g>
<!-- Node1&#45;&gt;Node3 -->
<g id="edge13" class="edge">
<title>Node1&#45;&gt;Node3</title>
<path fill="none" stroke="midnightblue" d="M186.67,-181.99C180.78,-173.42 174.28,-163.45 169,-154 156.27,-131.21 144.31,-103.23 137.6,-86.69"/>
<polygon fill="midnightblue" stroke="midnightblue" points="183.91,-184.15 192.52,-190.32 189.64,-180.12 183.91,-184.15"/>
</g>
<!-- Node6 -->
<g id="node6" class="node">
<title>Node6</title>
<g id="a_node6"><a xlink:href="ElementXsecInterpolation_8h_source.html" target="_top" xlink:title=" ">
<polygon fill="none" stroke="black" points="178.5,-123.5 178.5,-153.5 333.5,-153.5 333.5,-123.5 178.5,-123.5"/>
<text text-anchor="start" x="186.5" y="-141.5" font-family="Helvetica,sans-Serif" font-size="10.00">include/G4DarkBreM</text>
<text text-anchor="middle" x="256" y="-130.5" font-family="Helvetica,sans-Serif" font-size="10.00">/ElementXsecInterpolation.h</text>
</a>
</g>
</g>
<!-- Node1&#45;&gt;Node6 -->
<g id="edge5" class="edge">
<title>Node1&#45;&gt;Node6</title>
<path fill="none" stroke="midnightblue" d="M220.98,-182.45C228.77,-172.9 237.65,-162 244.52,-153.58"/>
<polygon fill="midnightblue" stroke="midnightblue" points="218.11,-180.43 214.5,-190.4 223.53,-184.86 218.11,-180.43"/>
</g>
<!-- Node8 -->
<g id="node8" class="node">
<title>Node8</title>
<g id="a_node8"><a xlink:href="G4DarkBreMModel_8h_source.html" target="_top" xlink:title=" ">
<polygon fill="none" stroke="black" points="351.5,-123.5 351.5,-153.5 472.5,-153.5 472.5,-123.5 351.5,-123.5"/>
<text text-anchor="start" x="359.5" y="-141.5" font-family="Helvetica,sans-Serif" font-size="10.00">include/G4DarkBreM</text>
<text text-anchor="middle" x="412" y="-130.5" font-family="Helvetica,sans-Serif" font-size="10.00">/G4DarkBreMModel.h</text>
</a>
</g>
</g>
<!-- Node1&#45;&gt;Node8 -->
<g id="edge8" class="edge">
<title>Node1&#45;&gt;Node8</title>
<path fill="none" stroke="midnightblue" d="M257.84,-187.44C291.72,-176.91 334.67,-163.55 366.63,-153.61"/>
<polygon fill="midnightblue" stroke="midnightblue" points="256.6,-184.16 248.09,-190.48 258.68,-190.85 256.6,-184.16"/>
</g>
<!-- Node2&#45;&gt;Node3 -->
<g id="edge2" class="edge">
<title>Node2&#45;&gt;Node3</title>
<path fill="none" stroke="midnightblue" d="M83.83,-116.6C94.55,-106.78 107.05,-95.34 116.62,-86.58"/>
<polygon fill="midnightblue" stroke="midnightblue" points="81.42,-114.06 76.41,-123.4 86.15,-119.22 81.42,-114.06"/>
</g>
<!-- Node4 -->
<g id="node4" class="node">
<title>Node4</title>
<g id="a_node4"><a xlink:href="G4DarkBremsstrahlung_8cxx.html" target="_top" xlink:title="Class providing the Dark Bremsstrahlung process class.">
<polygon fill="none" stroke="black" points="15.5,-0.5 15.5,-19.5 248.5,-19.5 248.5,-0.5 15.5,-0.5"/>
<text text-anchor="middle" x="132" y="-7.5" font-family="Helvetica,sans-Serif" font-size="10.00">src/G4DarkBreM/G4DarkBremsstrahlung.cxx</text>
</a>
</g>
</g>
<!-- Node3&#45;&gt;Node4 -->
<g id="edge3" class="edge">
<title>Node3&#45;&gt;Node4</title>
<path fill="none" stroke="midnightblue" d="M132,-46.29C132,-36.86 132,-26.65 132,-19.66"/>
<polygon fill="midnightblue" stroke="midnightblue" points="128.5,-46.4 132,-56.4 135.5,-46.4 128.5,-46.4"/>
</g>
<!-- Node5 -->
<g id="node5" class="node">
<title>Node5</title>
<g id="a_node5"><a xlink:href="simulate_8cxx.html" target="_top" xlink:title=" ">
<polygon fill="none" stroke="black" points="285.5,-0.5 285.5,-19.5 386.5,-19.5 386.5,-0.5 285.5,-0.5"/>
<text text-anchor="middle" x="336" y="-7.5" font-family="Helvetica,sans-Serif" font-size="10.00">app/simulate.cxx</text>
</a>
</g>
</g>
<!-- Node3&#45;&gt;Node5 -->
<g id="edge4" class="edge">
<title>Node3&#45;&gt;Node5</title>
<path fill="none" stroke="midnightblue" d="M190.05,-53.57C228.21,-42.44 276.5,-28.35 306.84,-19.51"/>
<polygon fill="midnightblue" stroke="midnightblue" points="188.71,-50.31 180.09,-56.47 190.67,-57.03 188.71,-50.31"/>
</g>
<!-- Node6&#45;&gt;Node3 -->
<g id="edge6" class="edge">
<title>Node6&#45;&gt;Node3</title>
<path fill="none" stroke="midnightblue" d="M220.16,-118.71C200.61,-108.46 176.8,-95.98 158.85,-86.58"/>
<polygon fill="midnightblue" stroke="midnightblue" points="218.61,-121.85 229.09,-123.4 221.86,-115.65 218.61,-121.85"/>
</g>
<!-- Node7 -->
<g id="node7" class="node">
<title>Node7</title>
<g id="a_node7"><a xlink:href="xsec__calc_8cxx.html" target="_top" xlink:title=" ">
<polygon fill="none" stroke="black" points="221.5,-62 221.5,-81 326.5,-81 326.5,-62 221.5,-62"/>
<text text-anchor="middle" x="274" y="-69" font-family="Helvetica,sans-Serif" font-size="10.00">app/xsec_calc.cxx</text>
</a>
</g>
</g>
<!-- Node6&#45;&gt;Node7 -->
<g id="edge7" class="edge">
<title>Node6&#45;&gt;Node7</title>
<path fill="none" stroke="midnightblue" d="M262.62,-113.6C265.75,-102.28 269.3,-89.46 271.59,-81.19"/>
<polygon fill="midnightblue" stroke="midnightblue" points="259.2,-112.82 259.91,-123.4 265.95,-114.69 259.2,-112.82"/>
</g>
<!-- Node8&#45;&gt;Node5 -->
<g id="edge11" class="edge">
<title>Node8&#45;&gt;Node5</title>
<path fill="none" stroke="midnightblue" d="M393.98,-115.37C387.33,-106.76 379.98,-96.66 374,-87 359.56,-63.67 346.04,-34.12 339.73,-19.71"/>
<polygon fill="midnightblue" stroke="midnightblue" points="391.37,-117.71 400.3,-123.41 396.87,-113.39 391.37,-117.71"/>
</g>
<!-- Node8&#45;&gt;Node7 -->
<g id="edge12" class="edge">
<title>Node8&#45;&gt;Node7</title>
<path fill="none" stroke="midnightblue" d="M373,-119.13C346.44,-106.62 312.51,-90.64 292.06,-81.01"/>
<polygon fill="midnightblue" stroke="midnightblue" points="371.52,-122.3 382.06,-123.4 374.5,-115.97 371.52,-122.3"/>
</g>
<!-- Node9 -->
<g id="node9" class="node">
<title>Node9</title>
<g id="a_node9"><a xlink:href="G4DarkBreMModel_8cxx.html" target="_top" xlink:title="Source file for dark brem model with some static functions that are helpful to be documented.">
<polygon fill="none" stroke="black" points="383,-56.5 383,-86.5 535,-86.5 535,-56.5 383,-56.5"/>
<text text-anchor="start" x="391" y="-74.5" font-family="Helvetica,sans-Serif" font-size="10.00">src/G4DarkBreM/G4DarkBre</text>
<text text-anchor="middle" x="459" y="-63.5" font-family="Helvetica,sans-Serif" font-size="10.00">MModel.cxx</text>
</a>
</g>
</g>
<!-- Node8&#45;&gt;Node9 -->
<g id="edge9" class="edge">
<title>Node8&#45;&gt;Node9</title>
<path fill="none" stroke="midnightblue" d="M428.16,-115.16C435.01,-105.68 442.79,-94.92 448.82,-86.58"/>
<polygon fill="midnightblue" stroke="midnightblue" points="425.22,-113.24 422.2,-123.4 430.89,-117.34 425.22,-113.24"/>
</g>
<!-- Node10 -->
<g id="node10" class="node">
<title>Node10</title>
<g id="a_node10"><a xlink:href="scale_8cxx.html" target="_top" xlink:title=" ">
<polygon fill="none" stroke="black" points="553.5,-62 553.5,-81 636.5,-81 636.5,-62 553.5,-62"/>
<text text-anchor="middle" x="595" y="-69" font-family="Helvetica,sans-Serif" font-size="10.00">app/scale.cxx</text>
</a>
</g>
</g>
<!-- Node8&#45;&gt;Node10 -->
<g id="edge10" class="edge">
<title>Node8&#45;&gt;Node10</title>
<path fill="none" stroke="midnightblue" d="M461.42,-119.95C496.96,-107.32 543.34,-90.85 571.05,-81.01"/>
<polygon fill="midnightblue" stroke="midnightblue" points="459.96,-116.75 451.71,-123.4 462.3,-123.35 459.96,-116.75"/>
</g>
</g>
</svg>
