<?xml version="1.0" encoding="UTF-8" standalone="no"?>
<!DOCTYPE svg PUBLIC "-//W3C//DTD SVG 1.1//EN"
 "http://www.w3.org/Graphics/SVG/1.1/DTD/svg11.dtd">
<!-- Generated by graphviz version 2.43.0 (0)
 -->
<!-- Title: include/G4DarkBreM/PrototypeModel.h Pages: 1 -->
<svg width="301pt" height="95pt"
 viewBox="0.00 0.00 300.50 95.00" xmlns="http://www.w3.org/2000/svg" xmlns:xlink="http://www.w3.org/1999/xlink">
<g id="graph0" class="graph" transform="scale(1 1) rotate(0) translate(4 91)">
<title>include/G4DarkBreM/PrototypeModel.h</title>
<!-- Node1 -->
<g id="node1" class="node">
<title>Node1</title>
<g id="a_node1"><a xlink:title="Class providing a prototype model for dark brem.">
<polygon fill="#bfbfbf" stroke="black" points="111.5,-56.5 111.5,-86.5 228.5,-86.5 228.5,-56.5 111.5,-56.5"/>
<text text-anchor="start" x="119.5" y="-74.5" font-family="Helvetica,sans-Serif" font-size="10.00">include/G4DarkBreM</text>
<text text-anchor="middle" x="170" y="-63.5" font-family="Helvetica,sans-Serif" font-size="10.00">/PrototypeModel.h</text>
</a>
</g>
</g>
<!-- Node2 -->
<g id="node2" class="node">
<title>Node2</title>
<g id="a_node2"><a xlink:title=" ">
<polygon fill="none" stroke="#bfbfbf" points="0,-0.5 0,-19.5 118,-19.5 118,-0.5 0,-0.5"/>
<text text-anchor="middle" x="59" y="-7.5" font-family="Helvetica,sans-Serif" font-size="10.00">G4ParticleChange.hh</text>
</a>
</g>
</g>
<!-- Node1&#45;&gt;Node2 -->
<g id="edge1" class="edge">
<title>Node1&#45;&gt;Node2</title>
<path fill="none" stroke="midnightblue" d="M143.69,-56.4C125.74,-46.77 102.08,-34.09 84.33,-24.58"/>
<polygon fill="midnightblue" stroke="midnightblue" points="85.62,-21.3 75.15,-19.66 82.31,-27.47 85.62,-21.3"/>
</g>
<!-- Node3 -->
<g id="node3" class="node">
<title>Node3</title>
<g id="a_node3"><a xlink:title=" ">
<polygon fill="none" stroke="#bfbfbf" points="136.5,-0.5 136.5,-19.5 203.5,-19.5 203.5,-0.5 136.5,-0.5"/>
<text text-anchor="middle" x="170" y="-7.5" font-family="Helvetica,sans-Serif" font-size="10.00">G4Step.hh</text>
</a>
</g>
</g>
<!-- Node1&#45;&gt;Node3 -->
<g id="edge2" class="edge">
<title>Node1&#45;&gt;Node3</title>
<path fill="none" stroke="midnightblue" d="M170,-56.4C170,-48.47 170,-38.46 170,-29.86"/>
<polygon fill="midnightblue" stroke="midnightblue" points="173.5,-29.66 170,-19.66 166.5,-29.66 173.5,-29.66"/>
</g>
<!-- Node4 -->
<g id="node4" class="node">
<title>Node4</title>
<g id="a_node4"><a xlink:title=" ">
<polygon fill="none" stroke="#bfbfbf" points="221.5,-0.5 221.5,-19.5 292.5,-19.5 292.5,-0.5 221.5,-0.5"/>
<text text-anchor="middle" x="257" y="-7.5" font-family="Helvetica,sans-Serif" font-size="10.00">G4Track.hh</text>
</a>
</g>
</g>
<!-- Node1&#45;&gt;Node4 -->
<g id="edge3" class="edge">
<title>Node1&#45;&gt;Node4</title>
<path fill="none" stroke="midnightblue" d="M190.62,-56.4C204.3,-47.04 222.21,-34.79 235.98,-25.38"/>
<polygon fill="midnightblue" stroke="midnightblue" points="238.06,-28.19 244.34,-19.66 234.11,-22.41 238.06,-28.19"/>
</g>
</g>
</svg>
