<?xml version="1.0" encoding="UTF-8" standalone="no"?>
<!DOCTYPE svg PUBLIC "-//W3C//DTD SVG 1.1//EN"
 "http://www.w3.org/Graphics/SVG/1.1/DTD/svg11.dtd">
<!-- Generated by graphviz version 2.43.0 (0)
 -->
<!-- Title: app/scale.cxx Pages: 1 -->
<svg width="1055pt" height="196pt"
 viewBox="0.00 0.00 1055.00 196.00" xmlns="http://www.w3.org/2000/svg" xmlns:xlink="http://www.w3.org/1999/xlink">
<g id="graph0" class="graph" transform="scale(1 1) rotate(0) translate(4 192)">
<title>app/scale.cxx</title>
<!-- Node1 -->
<g id="node1" class="node">
<title>Node1</title>
<g id="a_node1"><a xlink:title=" ">
<polygon fill="#bfbfbf" stroke="black" points="270,-168.5 270,-187.5 353,-187.5 353,-168.5 270,-168.5"/>
<text text-anchor="middle" x="311.5" y="-175.5" font-family="Helvetica,sans-Serif" font-size="10.00">app/scale.cxx</text>
</a>
</g>
</g>
<!-- Node2 -->
<g id="node2" class="node">
<title>Node2</title>
<g id="a_node2"><a xlink:title=" ">
<polygon fill="none" stroke="#bfbfbf" points="0,-112.5 0,-131.5 55,-131.5 55,-112.5 0,-112.5"/>
<text text-anchor="middle" x="27.5" y="-119.5" font-family="Helvetica,sans-Serif" font-size="10.00">fstream</text>
</a>
</g>
</g>
<!-- Node1&#45;&gt;Node2 -->
<g id="edge1" class="edge">
<title>Node1&#45;&gt;Node2</title>
<path fill="none" stroke="midnightblue" d="M269.84,-170.17C222.64,-162.27 143.2,-148.46 65.32,-132.07"/>
<polygon fill="midnightblue" stroke="midnightblue" points="65.85,-128.61 55.34,-129.96 64.4,-135.45 65.85,-128.61"/>
</g>
<!-- Node3 -->
<g id="node3" class="node">
<title>Node3</title>
<g id="a_node3"><a xlink:title=" ">
<polygon fill="none" stroke="#bfbfbf" points="73.5,-112.5 73.5,-131.5 133.5,-131.5 133.5,-112.5 73.5,-112.5"/>
<text text-anchor="middle" x="103.5" y="-119.5" font-family="Helvetica,sans-Serif" font-size="10.00">iostream</text>
</a>
</g>
</g>
<!-- Node1&#45;&gt;Node3 -->
<g id="edge2" class="edge">
<title>Node1&#45;&gt;Node3</title>
<path fill="none" stroke="midnightblue" d="M278.54,-168.44C241.87,-158.92 182.62,-143.54 143.37,-133.35"/>
<polygon fill="midnightblue" stroke="midnightblue" points="144.16,-129.94 133.6,-130.82 142.4,-136.72 144.16,-129.94"/>
</g>
<!-- Node4 -->
<g id="node4" class="node">
<title>Node4</title>
<g id="a_node4"><a xlink:href="G4APrime_8h.html" target="_top" xlink:title="Class creating the A&#39; particle in Geant.">
<polygon fill="none" stroke="black" points="151.5,-112.5 151.5,-131.5 291.5,-131.5 291.5,-112.5 151.5,-112.5"/>
<text text-anchor="middle" x="221.5" y="-119.5" font-family="Helvetica,sans-Serif" font-size="10.00">G4DarkBreM/G4APrime.h</text>
</a>
</g>
</g>
<!-- Node1&#45;&gt;Node4 -->
<g id="edge3" class="edge">
<title>Node1&#45;&gt;Node4</title>
<path fill="none" stroke="midnightblue" d="M297.04,-168.32C283,-159.9 261.45,-146.97 244.96,-137.07"/>
<polygon fill="midnightblue" stroke="midnightblue" points="246.3,-133.8 235.92,-131.65 242.7,-139.8 246.3,-133.8"/>
</g>
<!-- Node7 -->
<g id="node7" class="node">
<title>Node7</title>
<g id="a_node7"><a xlink:href="G4DarkBreMModel_8h_source.html" target="_top" xlink:title=" ">
<polygon fill="none" stroke="black" points="310,-112.5 310,-131.5 493,-131.5 493,-112.5 310,-112.5"/>
<text text-anchor="middle" x="401.5" y="-119.5" font-family="Helvetica,sans-Serif" font-size="10.00">G4DarkBreM/G4DarkBreMModel.h</text>
</a>
</g>
</g>
<!-- Node1&#45;&gt;Node7 -->
<g id="edge6" class="edge">
<title>Node1&#45;&gt;Node7</title>
<path fill="none" stroke="midnightblue" d="M325.96,-168.32C340,-159.9 361.55,-146.97 378.04,-137.07"/>
<polygon fill="midnightblue" stroke="midnightblue" points="380.3,-139.8 387.08,-131.65 376.7,-133.8 380.3,-139.8"/>
</g>
<!-- Node19 -->
<g id="node19" class="node">
<title>Node19</title>
<g id="a_node19"><a xlink:title=" ">
<polygon fill="none" stroke="#bfbfbf" points="511,-112.5 511,-131.5 596,-131.5 596,-112.5 511,-112.5"/>
<text text-anchor="middle" x="553.5" y="-119.5" font-family="Helvetica,sans-Serif" font-size="10.00">G4Electron.hh</text>
</a>
</g>
</g>
<!-- Node1&#45;&gt;Node19 -->
<g id="edge19" class="edge">
<title>Node1&#45;&gt;Node19</title>
<path fill="none" stroke="midnightblue" d="M349.85,-168.44C391.97,-159.04 459.71,-143.93 505.37,-133.74"/>
<polygon fill="midnightblue" stroke="midnightblue" points="506.34,-137.11 515.33,-131.52 504.81,-130.28 506.34,-137.11"/>
</g>
<!-- Node20 -->
<g id="node20" class="node">
<title>Node20</title>
<g id="a_node20"><a xlink:title=" ">
<polygon fill="none" stroke="#bfbfbf" points="614,-112.5 614,-131.5 715,-131.5 715,-112.5 614,-112.5"/>
<text text-anchor="middle" x="664.5" y="-119.5" font-family="Helvetica,sans-Serif" font-size="10.00">G4MuonMinus.hh</text>
</a>
</g>
</g>
<!-- Node1&#45;&gt;Node20 -->
<g id="edge20" class="edge">
<title>Node1&#45;&gt;Node20</title>
<path fill="none" stroke="midnightblue" d="M353.03,-170.65C414.96,-161.17 531.87,-143.29 603.51,-132.33"/>
<polygon fill="midnightblue" stroke="midnightblue" points="604.38,-135.74 613.74,-130.76 603.33,-128.82 604.38,-135.74"/>
</g>
<!-- Node5 -->
<g id="node5" class="node">
<title>Node5</title>
<g id="a_node5"><a xlink:title=" ">
<polygon fill="none" stroke="#bfbfbf" points="24.5,-56.5 24.5,-75.5 152.5,-75.5 152.5,-56.5 24.5,-56.5"/>
<text text-anchor="middle" x="88.5" y="-63.5" font-family="Helvetica,sans-Serif" font-size="10.00">G4ParticleDefinition.hh</text>
</a>
</g>
</g>
<!-- Node4&#45;&gt;Node5 -->
<g id="edge4" class="edge">
<title>Node4&#45;&gt;Node5</title>
<path fill="none" stroke="midnightblue" d="M200.43,-112.44C178.44,-103.52 143.77,-89.44 118.84,-79.32"/>
<polygon fill="midnightblue" stroke="midnightblue" points="120.06,-76.04 109.48,-75.52 117.42,-82.52 120.06,-76.04"/>
</g>
<!-- Node6 -->
<g id="node6" class="node">
<title>Node6</title>
<g id="a_node6"><a xlink:title=" ">
<polygon fill="none" stroke="#bfbfbf" points="171,-56.5 171,-75.5 290,-75.5 290,-56.5 171,-56.5"/>
<text text-anchor="middle" x="230.5" y="-63.5" font-family="Helvetica,sans-Serif" font-size="10.00">G4SystemOfUnits.hh</text>
</a>
</g>
</g>
<!-- Node4&#45;&gt;Node6 -->
<g id="edge5" class="edge">
<title>Node4&#45;&gt;Node6</title>
<path fill="none" stroke="midnightblue" d="M222.99,-112.08C224.18,-104.93 225.89,-94.64 227.38,-85.69"/>
<polygon fill="midnightblue" stroke="midnightblue" points="230.85,-86.19 229.04,-75.75 223.95,-85.04 230.85,-86.19"/>
</g>
<!-- Node8 -->
<g id="node8" class="node">
<title>Node8</title>
<g id="a_node8"><a xlink:title=" ">
<polygon fill="none" stroke="#bfbfbf" points="316.5,-0.5 316.5,-19.5 354.5,-19.5 354.5,-0.5 316.5,-0.5"/>
<text text-anchor="middle" x="335.5" y="-7.5" font-family="Helvetica,sans-Serif" font-size="10.00">map</text>
</a>
</g>
</g>
<!-- Node7&#45;&gt;Node8 -->
<g id="edge7" class="edge">
<title>Node7&#45;&gt;Node8</title>
<path fill="none" stroke="midnightblue" d="M389.36,-112.34C378.7,-104.13 363.53,-90.87 354.5,-76 345.82,-61.71 340.92,-43.24 338.28,-29.65"/>
<polygon fill="midnightblue" stroke="midnightblue" points="341.69,-28.84 336.56,-19.57 334.79,-30.02 341.69,-28.84"/>
</g>
<!-- Node9 -->
<g id="node9" class="node">
<title>Node9</title>
<g id="a_node9"><a xlink:title=" ">
<polygon fill="none" stroke="#bfbfbf" points="363.5,-56.5 363.5,-75.5 421.5,-75.5 421.5,-56.5 363.5,-56.5"/>
<text text-anchor="middle" x="392.5" y="-63.5" font-family="Helvetica,sans-Serif" font-size="10.00">memory</text>
</a>
</g>
</g>
<!-- Node7&#45;&gt;Node9 -->
<g id="edge8" class="edge">
<title>Node7&#45;&gt;Node9</title>
<path fill="none" stroke="midnightblue" d="M400.01,-112.08C398.82,-104.93 397.11,-94.64 395.62,-85.69"/>
<polygon fill="midnightblue" stroke="midnightblue" points="399.05,-85.04 393.96,-75.75 392.15,-86.19 399.05,-85.04"/>
</g>
<!-- Node10 -->
<g id="node10" class="node">
<title>Node10</title>
<g id="a_node10"><a xlink:href="ParseLibrary_8h.html" target="_top" xlink:title=" ">
<polygon fill="none" stroke="black" points="439,-56.5 439,-75.5 588,-75.5 588,-56.5 439,-56.5"/>
<text text-anchor="middle" x="513.5" y="-63.5" font-family="Helvetica,sans-Serif" font-size="10.00">G4DarkBreM/ParseLibrary.h</text>
</a>
</g>
</g>
<!-- Node7&#45;&gt;Node10 -->
<g id="edge9" class="edge">
<title>Node7&#45;&gt;Node10</title>
<path fill="none" stroke="midnightblue" d="M419.49,-112.32C437.54,-103.62 465.55,-90.12 486.3,-80.11"/>
<polygon fill="midnightblue" stroke="midnightblue" points="488.06,-83.15 495.55,-75.65 485.02,-76.84 488.06,-83.15"/>
</g>
<!-- Node15 -->
<g id="node15" class="node">
<title>Node15</title>
<g id="a_node15"><a xlink:href="PrototypeModel_8h.html" target="_top" xlink:title="Class providing a prototype model for dark brem.">
<polygon fill="none" stroke="black" points="785.5,-56.5 785.5,-75.5 953.5,-75.5 953.5,-56.5 785.5,-56.5"/>
<text text-anchor="middle" x="869.5" y="-63.5" font-family="Helvetica,sans-Serif" font-size="10.00">G4DarkBreM/PrototypeModel.h</text>
</a>
</g>
</g>
<!-- Node7&#45;&gt;Node15 -->
<g id="edge15" class="edge">
<title>Node7&#45;&gt;Node15</title>
<path fill="none" stroke="midnightblue" d="M475.4,-112.47C559.72,-102.74 697.34,-86.86 785.62,-76.68"/>
<polygon fill="midnightblue" stroke="midnightblue" points="786.07,-80.15 795.6,-75.53 785.27,-73.2 786.07,-80.15"/>
</g>
<!-- Node10&#45;&gt;Node8 -->
<g id="edge10" class="edge">
<title>Node10&#45;&gt;Node8</title>
<path fill="none" stroke="midnightblue" d="M484.41,-56.46C456.11,-48.1 411.64,-34.87 364.53,-20.28"/>
<polygon fill="midnightblue" stroke="midnightblue" points="365.35,-16.87 354.76,-17.25 363.28,-23.56 365.35,-16.87"/>
</g>
<!-- Node11 -->
<g id="node11" class="node">
<title>Node11</title>
<g id="a_node11"><a xlink:title=" ">
<polygon fill="none" stroke="#bfbfbf" points="373,-0.5 373,-19.5 430,-19.5 430,-0.5 373,-0.5"/>
<text text-anchor="middle" x="401.5" y="-7.5" font-family="Helvetica,sans-Serif" font-size="10.00">ostream</text>
</a>
</g>
</g>
<!-- Node10&#45;&gt;Node11 -->
<g id="edge11" class="edge">
<title>Node10&#45;&gt;Node11</title>
<path fill="none" stroke="midnightblue" d="M495.51,-56.32C477.46,-47.62 449.45,-34.12 428.7,-24.11"/>
<polygon fill="midnightblue" stroke="midnightblue" points="429.98,-20.84 419.45,-19.65 426.94,-27.15 429.98,-20.84"/>
</g>
<!-- Node12 -->
<g id="node12" class="node">
<title>Node12</title>
<g id="a_node12"><a xlink:title=" ">
<polygon fill="none" stroke="#bfbfbf" points="448.5,-0.5 448.5,-19.5 492.5,-19.5 492.5,-0.5 448.5,-0.5"/>
<text text-anchor="middle" x="470.5" y="-7.5" font-family="Helvetica,sans-Serif" font-size="10.00">string</text>
</a>
</g>
</g>
<!-- Node10&#45;&gt;Node12 -->
<g id="edge12" class="edge">
<title>Node10&#45;&gt;Node12</title>
<path fill="none" stroke="midnightblue" d="M506.4,-56.08C500.26,-48.38 491.23,-37.03 483.76,-27.65"/>
<polygon fill="midnightblue" stroke="midnightblue" points="486.44,-25.39 477.47,-19.75 480.96,-29.75 486.44,-25.39"/>
</g>
<!-- Node13 -->
<g id="node13" class="node">
<title>Node13</title>
<g id="a_node13"><a xlink:title=" ">
<polygon fill="none" stroke="#bfbfbf" points="511,-0.5 511,-19.5 558,-19.5 558,-0.5 511,-0.5"/>
<text text-anchor="middle" x="534.5" y="-7.5" font-family="Helvetica,sans-Serif" font-size="10.00">vector</text>
</a>
</g>
</g>
<!-- Node10&#45;&gt;Node13 -->
<g id="edge13" class="edge">
<title>Node10&#45;&gt;Node13</title>
<path fill="none" stroke="midnightblue" d="M516.97,-56.08C519.81,-48.77 523.93,-38.18 527.46,-29.1"/>
<polygon fill="midnightblue" stroke="midnightblue" points="530.73,-30.34 531.1,-19.75 524.21,-27.8 530.73,-30.34"/>
</g>
<!-- Node14 -->
<g id="node14" class="node">
<title>Node14</title>
<g id="a_node14"><a xlink:title=" ">
<polygon fill="none" stroke="#bfbfbf" points="576.5,-0.5 576.5,-19.5 736.5,-19.5 736.5,-0.5 576.5,-0.5"/>
<text text-anchor="middle" x="656.5" y="-7.5" font-family="Helvetica,sans-Serif" font-size="10.00">CLHEP/Vector/LorentzVector.h</text>
</a>
</g>
</g>
<!-- Node10&#45;&gt;Node14 -->
<g id="edge14" class="edge">
<title>Node10&#45;&gt;Node14</title>
<path fill="none" stroke="midnightblue" d="M536.16,-56.44C559.9,-47.48 597.41,-33.31 624.24,-23.18"/>
<polygon fill="midnightblue" stroke="midnightblue" points="625.83,-26.32 633.95,-19.52 623.36,-19.77 625.83,-26.32"/>
</g>
<!-- Node16 -->
<g id="node16" class="node">
<title>Node16</title>
<g id="a_node16"><a xlink:title=" ">
<polygon fill="none" stroke="#bfbfbf" points="754.5,-0.5 754.5,-19.5 872.5,-19.5 872.5,-0.5 754.5,-0.5"/>
<text text-anchor="middle" x="813.5" y="-7.5" font-family="Helvetica,sans-Serif" font-size="10.00">G4ParticleChange.hh</text>
</a>
</g>
</g>
<!-- Node15&#45;&gt;Node16 -->
<g id="edge16" class="edge">
<title>Node15&#45;&gt;Node16</title>
<path fill="none" stroke="midnightblue" d="M860.5,-56.32C852.31,-48.42 839.99,-36.55 830.03,-26.94"/>
<polygon fill="midnightblue" stroke="midnightblue" points="832.29,-24.26 822.66,-19.83 827.43,-29.29 832.29,-24.26"/>
</g>
<!-- Node17 -->
<g id="node17" class="node">
<title>Node17</title>
<g id="a_node17"><a xlink:title=" ">
<polygon fill="none" stroke="#bfbfbf" points="891,-0.5 891,-19.5 958,-19.5 958,-0.5 891,-0.5"/>
<text text-anchor="middle" x="924.5" y="-7.5" font-family="Helvetica,sans-Serif" font-size="10.00">G4Step.hh</text>
</a>
</g>
</g>
<!-- Node15&#45;&gt;Node17 -->
<g id="edge17" class="edge">
<title>Node15&#45;&gt;Node17</title>
<path fill="none" stroke="midnightblue" d="M878.58,-56.08C886.67,-48.14 898.7,-36.34 908.41,-26.8"/>
<polygon fill="midnightblue" stroke="midnightblue" points="910.9,-29.25 915.59,-19.75 906,-24.26 910.9,-29.25"/>
</g>
<!-- Node18 -->
<g id="node18" class="node">
<title>Node18</title>
<g id="a_node18"><a xlink:title=" ">
<polygon fill="none" stroke="#bfbfbf" points="976,-0.5 976,-19.5 1047,-19.5 1047,-0.5 976,-0.5"/>
<text text-anchor="middle" x="1011.5" y="-7.5" font-family="Helvetica,sans-Serif" font-size="10.00">G4Track.hh</text>
</a>
</g>
</g>
<!-- Node15&#45;&gt;Node18 -->
<g id="edge18" class="edge">
<title>Node15&#45;&gt;Node18</title>
<path fill="none" stroke="midnightblue" d="M892,-56.44C915.58,-47.48 952.82,-33.31 979.46,-23.18"/>
<polygon fill="midnightblue" stroke="midnightblue" points="981,-26.34 989.1,-19.52 978.51,-19.8 981,-26.34"/>
</g>
</g>
</svg>
