<?xml version="1.0" encoding="UTF-8" standalone="no"?>
<!DOCTYPE svg PUBLIC "-//W3C//DTD SVG 1.1//EN"
 "http://www.w3.org/Graphics/SVG/1.1/DTD/svg11.dtd">
<!-- Generated by graphviz version 2.43.0 (0)
 -->
<!-- Title: app/simulate.cxx Pages: 1 -->
<svg width="2712pt" height="252pt"
 viewBox="0.00 0.00 2712.00 252.00" xmlns="http://www.w3.org/2000/svg" xmlns:xlink="http://www.w3.org/1999/xlink">
<g id="graph0" class="graph" transform="scale(1 1) rotate(0) translate(4 248)">
<title>app/simulate.cxx</title>
<!-- Node1 -->
<g id="node1" class="node">
<title>Node1</title>
<g id="a_node1"><a xlink:title=" ">
<polygon fill="#bfbfbf" stroke="black" points="1234,-224.5 1234,-243.5 1335,-243.5 1335,-224.5 1234,-224.5"/>
<text text-anchor="middle" x="1284.5" y="-231.5" font-family="Helvetica,sans-Serif" font-size="10.00">app/simulate.cxx</text>
</a>
</g>
</g>
<!-- Node2 -->
<g id="node2" class="node">
<title>Node2</title>
<g id="a_node2"><a xlink:title=" ">
<polygon fill="none" stroke="#bfbfbf" points="0,-168.5 0,-187.5 55,-187.5 55,-168.5 0,-168.5"/>
<text text-anchor="middle" x="27.5" y="-175.5" font-family="Helvetica,sans-Serif" font-size="10.00">fstream</text>
</a>
</g>
</g>
<!-- Node1&#45;&gt;Node2 -->
<g id="edge1" class="edge">
<title>Node1&#45;&gt;Node2</title>
<path fill="none" stroke="midnightblue" d="M1233.98,-232.49C1036.53,-230.31 316.04,-220.36 65.41,-187.76"/>
<polygon fill="midnightblue" stroke="midnightblue" points="65.64,-184.26 55.26,-186.39 64.71,-191.2 65.64,-184.26"/>
</g>
<!-- Node3 -->
<g id="node3" class="node">
<title>Node3</title>
<g id="a_node3"><a xlink:title=" ">
<polygon fill="none" stroke="#bfbfbf" points="73.5,-168.5 73.5,-187.5 133.5,-187.5 133.5,-168.5 73.5,-168.5"/>
<text text-anchor="middle" x="103.5" y="-175.5" font-family="Helvetica,sans-Serif" font-size="10.00">iostream</text>
</a>
</g>
</g>
<!-- Node1&#45;&gt;Node3 -->
<g id="edge2" class="edge">
<title>Node1&#45;&gt;Node3</title>
<path fill="none" stroke="midnightblue" d="M1233.9,-232.09C1042.44,-228.48 362.37,-214.05 147.5,-188 146.24,-187.85 144.96,-187.68 143.67,-187.49"/>
<polygon fill="midnightblue" stroke="midnightblue" points="144.13,-184.02 133.69,-185.85 142.99,-190.93 144.13,-184.02"/>
</g>
<!-- Node4 -->
<g id="node4" class="node">
<title>Node4</title>
<g id="a_node4"><a xlink:title=" ">
<polygon fill="none" stroke="#bfbfbf" points="338.5,-56.5 338.5,-75.5 396.5,-75.5 396.5,-56.5 338.5,-56.5"/>
<text text-anchor="middle" x="367.5" y="-63.5" font-family="Helvetica,sans-Serif" font-size="10.00">memory</text>
</a>
</g>
</g>
<!-- Node1&#45;&gt;Node4 -->
<g id="edge3" class="edge">
<title>Node1&#45;&gt;Node4</title>
<path fill="none" stroke="midnightblue" d="M1233.95,-232.03C1043.61,-228.22 376.32,-213.16 284.5,-188 233.49,-174.02 206.71,-177.35 179.5,-132 146.01,-76.18 263.77,-67.32 328.2,-66.53"/>
<polygon fill="midnightblue" stroke="midnightblue" points="328.45,-70.03 338.43,-66.47 328.41,-63.03 328.45,-70.03"/>
</g>
<!-- Node5 -->
<g id="node5" class="node">
<title>Node5</title>
<g id="a_node5"><a xlink:title=" ">
<polygon fill="none" stroke="#bfbfbf" points="555.5,-168.5 555.5,-187.5 597.5,-187.5 597.5,-168.5 555.5,-168.5"/>
<text text-anchor="middle" x="576.5" y="-175.5" font-family="Helvetica,sans-Serif" font-size="10.00">array</text>
</a>
</g>
</g>
<!-- Node1&#45;&gt;Node5 -->
<g id="edge4" class="edge">
<title>Node1&#45;&gt;Node5</title>
<path fill="none" stroke="midnightblue" d="M1233.84,-233.51C1122.03,-233.81 845.78,-229.98 607.55,-187.77"/>
<polygon fill="midnightblue" stroke="midnightblue" points="608.12,-184.32 597.66,-185.99 606.88,-191.21 608.12,-184.32"/>
</g>
<!-- Node6 -->
<g id="node6" class="node">
<title>Node6</title>
<g id="a_node6"><a xlink:title=" ">
<polygon fill="none" stroke="#bfbfbf" points="616,-168.5 616,-187.5 675,-187.5 675,-168.5 616,-168.5"/>
<text text-anchor="middle" x="645.5" y="-175.5" font-family="Helvetica,sans-Serif" font-size="10.00">QBBC.hh</text>
</a>
</g>
</g>
<!-- Node1&#45;&gt;Node6 -->
<g id="edge5" class="edge">
<title>Node1&#45;&gt;Node6</title>
<path fill="none" stroke="midnightblue" d="M1233.93,-231.9C1131.79,-229.11 893.5,-219.65 685.18,-188.04"/>
<polygon fill="midnightblue" stroke="midnightblue" points="685.7,-184.58 675.28,-186.52 684.63,-191.5 685.7,-184.58"/>
</g>
<!-- Node7 -->
<g id="node7" class="node">
<title>Node7</title>
<g id="a_node7"><a xlink:title=" ">
<polygon fill="none" stroke="#bfbfbf" points="693,-168.5 693,-187.5 812,-187.5 812,-168.5 693,-168.5"/>
<text text-anchor="middle" x="752.5" y="-175.5" font-family="Helvetica,sans-Serif" font-size="10.00">G4PhysListFactory.hh</text>
</a>
</g>
</g>
<!-- Node1&#45;&gt;Node7 -->
<g id="edge6" class="edge">
<title>Node1&#45;&gt;Node7</title>
<path fill="none" stroke="midnightblue" d="M1233.74,-228.62C1150.32,-221.29 978.73,-205.72 822.59,-188.09"/>
<polygon fill="midnightblue" stroke="midnightblue" points="822.66,-184.57 812.32,-186.93 821.87,-191.53 822.66,-184.57"/>
</g>
<!-- Node8 -->
<g id="node8" class="node">
<title>Node8</title>
<g id="a_node8"><a xlink:title=" ">
<polygon fill="none" stroke="#bfbfbf" points="830.5,-168.5 830.5,-187.5 974.5,-187.5 974.5,-168.5 830.5,-168.5"/>
<text text-anchor="middle" x="902.5" y="-175.5" font-family="Helvetica,sans-Serif" font-size="10.00">G4VPhysicsConstructor.hh</text>
</a>
</g>
</g>
<!-- Node1&#45;&gt;Node8 -->
<g id="edge7" class="edge">
<title>Node1&#45;&gt;Node8</title>
<path fill="none" stroke="midnightblue" d="M1233.77,-225.83C1166.76,-216.36 1048.42,-199.63 972.81,-188.94"/>
<polygon fill="midnightblue" stroke="midnightblue" points="973.28,-185.47 962.89,-187.54 972.3,-192.4 973.28,-185.47"/>
</g>
<!-- Node9 -->
<g id="node9" class="node">
<title>Node9</title>
<g id="a_node9"><a xlink:title=" ">
<polygon fill="none" stroke="#bfbfbf" points="992.5,-168.5 992.5,-187.5 1170.5,-187.5 1170.5,-168.5 992.5,-168.5"/>
<text text-anchor="middle" x="1081.5" y="-175.5" font-family="Helvetica,sans-Serif" font-size="10.00">G4VUserDetectorConstruction.hh</text>
</a>
</g>
</g>
<!-- Node1&#45;&gt;Node9 -->
<g id="edge8" class="edge">
<title>Node1&#45;&gt;Node9</title>
<path fill="none" stroke="midnightblue" d="M1252.33,-224.44C1217.44,-215.16 1161.61,-200.31 1123.33,-190.13"/>
<polygon fill="midnightblue" stroke="midnightblue" points="1124.08,-186.7 1113.52,-187.52 1122.28,-193.47 1124.08,-186.7"/>
</g>
<!-- Node10 -->
<g id="node10" class="node">
<title>Node10</title>
<g id="a_node10"><a xlink:title=" ">
<polygon fill="none" stroke="#bfbfbf" points="1188.5,-168.5 1188.5,-187.5 1380.5,-187.5 1380.5,-168.5 1188.5,-168.5"/>
<text text-anchor="middle" x="1284.5" y="-175.5" font-family="Helvetica,sans-Serif" font-size="10.00">G4VUserPrimaryGeneratorAction.hh</text>
</a>
</g>
</g>
<!-- Node1&#45;&gt;Node10 -->
<g id="edge9" class="edge">
<title>Node1&#45;&gt;Node10</title>
<path fill="none" stroke="midnightblue" d="M1284.5,-224.08C1284.5,-217.01 1284.5,-206.86 1284.5,-197.99"/>
<polygon fill="midnightblue" stroke="midnightblue" points="1288,-197.75 1284.5,-187.75 1281,-197.75 1288,-197.75"/>
</g>
<!-- Node11 -->
<g id="node11" class="node">
<title>Node11</title>
<g id="a_node11"><a xlink:title=" ">
<polygon fill="none" stroke="#bfbfbf" points="1399,-168.5 1399,-187.5 1500,-187.5 1500,-168.5 1399,-168.5"/>
<text text-anchor="middle" x="1449.5" y="-175.5" font-family="Helvetica,sans-Serif" font-size="10.00">G4ParticleGun.hh</text>
</a>
</g>
</g>
<!-- Node1&#45;&gt;Node11 -->
<g id="edge10" class="edge">
<title>Node1&#45;&gt;Node11</title>
<path fill="none" stroke="midnightblue" d="M1310.64,-224.44C1338.52,-215.32 1382.85,-200.81 1413.9,-190.65"/>
<polygon fill="midnightblue" stroke="midnightblue" points="1415.06,-193.95 1423.48,-187.52 1412.88,-187.3 1415.06,-193.95"/>
</g>
<!-- Node12 -->
<g id="node12" class="node">
<title>Node12</title>
<g id="a_node12"><a xlink:title=" ">
<polygon fill="none" stroke="#bfbfbf" points="1518.5,-168.5 1518.5,-187.5 1644.5,-187.5 1644.5,-168.5 1518.5,-168.5"/>
<text text-anchor="middle" x="1581.5" y="-175.5" font-family="Helvetica,sans-Serif" font-size="10.00">G4UserEventAction.hh</text>
</a>
</g>
</g>
<!-- Node1&#45;&gt;Node12 -->
<g id="edge11" class="edge">
<title>Node1&#45;&gt;Node12</title>
<path fill="none" stroke="midnightblue" d="M1331.56,-224.44C1383.91,-214.92 1468.49,-199.55 1524.54,-189.36"/>
<polygon fill="midnightblue" stroke="midnightblue" points="1525.45,-192.75 1534.66,-187.52 1524.19,-185.86 1525.45,-192.75"/>
</g>
<!-- Node13 -->
<g id="node13" class="node">
<title>Node13</title>
<g id="a_node13"><a xlink:title=" ">
<polygon fill="none" stroke="#bfbfbf" points="1663,-168.5 1663,-187.5 1802,-187.5 1802,-168.5 1663,-168.5"/>
<text text-anchor="middle" x="1732.5" y="-175.5" font-family="Helvetica,sans-Serif" font-size="10.00">G4UserTrackingAction.hh</text>
</a>
</g>
</g>
<!-- Node1&#45;&gt;Node13 -->
<g id="edge12" class="edge">
<title>Node1&#45;&gt;Node13</title>
<path fill="none" stroke="midnightblue" d="M1335.02,-226.91C1412.33,-217.59 1560.67,-199.71 1652.65,-188.63"/>
<polygon fill="midnightblue" stroke="midnightblue" points="1653.24,-192.08 1662.75,-187.41 1652.4,-185.13 1653.24,-192.08"/>
</g>
<!-- Node14 -->
<g id="node14" class="node">
<title>Node14</title>
<g id="a_node14"><a xlink:title=" ">
<polygon fill="none" stroke="#bfbfbf" points="1820.5,-168.5 1820.5,-187.5 1926.5,-187.5 1926.5,-168.5 1820.5,-168.5"/>
<text text-anchor="middle" x="1873.5" y="-175.5" font-family="Helvetica,sans-Serif" font-size="10.00">G4RunManager.hh</text>
</a>
</g>
</g>
<!-- Node1&#45;&gt;Node14 -->
<g id="edge13" class="edge">
<title>Node1&#45;&gt;Node14</title>
<path fill="none" stroke="midnightblue" d="M1335,-229.63C1427.14,-223.29 1628.88,-208.42 1810.26,-187.96"/>
<polygon fill="midnightblue" stroke="midnightblue" points="1810.71,-191.43 1820.25,-186.82 1809.92,-184.47 1810.71,-191.43"/>
</g>
<!-- Node15 -->
<g id="node15" class="node">
<title>Node15</title>
<g id="a_node15"><a xlink:title=" ">
<polygon fill="none" stroke="#bfbfbf" points="1945,-168.5 1945,-187.5 2046,-187.5 2046,-168.5 1945,-168.5"/>
<text text-anchor="middle" x="1995.5" y="-175.5" font-family="Helvetica,sans-Serif" font-size="10.00">G4MuonMinus.hh</text>
</a>
</g>
</g>
<!-- Node1&#45;&gt;Node15 -->
<g id="edge14" class="edge">
<title>Node1&#45;&gt;Node15</title>
<path fill="none" stroke="midnightblue" d="M1335.27,-230.87C1443.42,-226.04 1704.71,-212.79 1934.57,-188.01"/>
<polygon fill="midnightblue" stroke="midnightblue" points="1935.24,-191.46 1944.8,-186.9 1934.48,-184.5 1935.24,-191.46"/>
</g>
<!-- Node16 -->
<g id="node16" class="node">
<title>Node16</title>
<g id="a_node16"><a xlink:title=" ">
<polygon fill="none" stroke="#bfbfbf" points="2064,-168.5 2064,-187.5 2149,-187.5 2149,-168.5 2064,-168.5"/>
<text text-anchor="middle" x="2106.5" y="-175.5" font-family="Helvetica,sans-Serif" font-size="10.00">G4Electron.hh</text>
</a>
</g>
</g>
<!-- Node1&#45;&gt;Node16 -->
<g id="edge15" class="edge">
<title>Node1&#45;&gt;Node16</title>
<path fill="none" stroke="midnightblue" d="M1335.12,-232.02C1457,-229.23 1776.53,-219.4 2053.73,-187.94"/>
<polygon fill="midnightblue" stroke="midnightblue" points="2054.45,-191.38 2063.99,-186.76 2053.66,-184.42 2054.45,-191.38"/>
</g>
<!-- Node17 -->
<g id="node17" class="node">
<title>Node17</title>
<g id="a_node17"><a xlink:title=" ">
<polygon fill="none" stroke="#bfbfbf" points="2167.5,-168.5 2167.5,-187.5 2231.5,-187.5 2231.5,-168.5 2167.5,-168.5"/>
<text text-anchor="middle" x="2199.5" y="-175.5" font-family="Helvetica,sans-Serif" font-size="10.00">G4Box.hh</text>
</a>
</g>
</g>
<!-- Node1&#45;&gt;Node17 -->
<g id="edge16" class="edge">
<title>Node1&#45;&gt;Node17</title>
<path fill="none" stroke="midnightblue" d="M1335.44,-233.21C1470.23,-233.14 1847.18,-228.98 2157.5,-188 2157.6,-187.99 2157.7,-187.97 2157.81,-187.96"/>
<polygon fill="midnightblue" stroke="midnightblue" points="2158.17,-191.45 2167.49,-186.41 2157.06,-184.53 2158.17,-191.45"/>
</g>
<!-- Node18 -->
<g id="node18" class="node">
<title>Node18</title>
<g id="a_node18"><a xlink:title=" ">
<polygon fill="none" stroke="#bfbfbf" points="2249.5,-168.5 2249.5,-187.5 2359.5,-187.5 2359.5,-168.5 2249.5,-168.5"/>
<text text-anchor="middle" x="2304.5" y="-175.5" font-family="Helvetica,sans-Serif" font-size="10.00">G4PVPlacement.hh</text>
</a>
</g>
</g>
<!-- Node1&#45;&gt;Node18 -->
<g id="edge17" class="edge">
<title>Node1&#45;&gt;Node18</title>
<path fill="none" stroke="midnightblue" d="M1335.14,-232.27C1476.49,-229.87 1887.44,-220.5 2239.25,-188.02"/>
<polygon fill="midnightblue" stroke="midnightblue" points="2239.75,-191.49 2249.38,-187.08 2239.1,-184.52 2239.75,-191.49"/>
</g>
<!-- Node19 -->
<g id="node19" class="node">
<title>Node19</title>
<g id="a_node19"><a xlink:title=" ">
<polygon fill="none" stroke="#bfbfbf" points="2378,-168.5 2378,-187.5 2485,-187.5 2485,-168.5 2378,-168.5"/>
<text text-anchor="middle" x="2431.5" y="-175.5" font-family="Helvetica,sans-Serif" font-size="10.00">G4NistManager.hh</text>
</a>
</g>
</g>
<!-- Node1&#45;&gt;Node19 -->
<g id="edge18" class="edge">
<title>Node1&#45;&gt;Node19</title>
<path fill="none" stroke="midnightblue" d="M1335.14,-232.7C1488.83,-231.42 1963.59,-224.61 2367.79,-187.95"/>
<polygon fill="midnightblue" stroke="midnightblue" points="2368.29,-191.42 2377.93,-187.03 2367.65,-184.45 2368.29,-191.42"/>
</g>
<!-- Node20 -->
<g id="node20" class="node">
<title>Node20</title>
<g id="a_node20"><a xlink:href="G4DarkBremsstrahlung_8h.html" target="_top" xlink:title="Class providing the Dark Bremsstrahlung process class.">
<polygon fill="none" stroke="black" points="294,-168.5 294,-187.5 499,-187.5 499,-168.5 294,-168.5"/>
<text text-anchor="middle" x="396.5" y="-175.5" font-family="Helvetica,sans-Serif" font-size="10.00">G4DarkBreM/G4DarkBremsstrahlung.h</text>
</a>
</g>
</g>
<!-- Node1&#45;&gt;Node20 -->
<g id="edge19" class="edge">
<title>Node1&#45;&gt;Node20</title>
<path fill="none" stroke="midnightblue" d="M1233.96,-230.37C1110.75,-223.9 785.07,-206.37 513.5,-188 512.19,-187.91 510.86,-187.82 509.53,-187.73"/>
<polygon fill="midnightblue" stroke="midnightblue" points="509.44,-184.21 499.22,-187.01 508.95,-191.2 509.44,-184.21"/>
</g>
<!-- Node28 -->
<g id="node28" class="node">
<title>Node28</title>
<g id="a_node28"><a xlink:href="G4DarkBreMModel_8h_source.html" target="_top" xlink:title=" ">
<polygon fill="none" stroke="black" points="814,-112.5 814,-131.5 997,-131.5 997,-112.5 814,-112.5"/>
<text text-anchor="middle" x="905.5" y="-119.5" font-family="Helvetica,sans-Serif" font-size="10.00">G4DarkBreM/G4DarkBreMModel.h</text>
</a>
</g>
</g>
<!-- Node1&#45;&gt;Node28 -->
<g id="edge31" class="edge">
<title>Node1&#45;&gt;Node28</title>
<path fill="none" stroke="midnightblue" d="M1233.9,-231.8C1071.1,-227.69 570.06,-213.04 546.5,-188 540.41,-181.53 540.62,-174.66 546.5,-168 555.03,-158.33 700.45,-142.54 803.56,-132.47"/>
<polygon fill="midnightblue" stroke="midnightblue" points="804.1,-135.93 813.71,-131.48 803.42,-128.96 804.1,-135.93"/>
</g>
<!-- Node35 -->
<g id="node35" class="node">
<title>Node35</title>
<g id="a_node35"><a xlink:href="G4APrime_8h.html" target="_top" xlink:title="Class creating the A&#39; particle in Geant.">
<polygon fill="none" stroke="black" points="2503.5,-168.5 2503.5,-187.5 2643.5,-187.5 2643.5,-168.5 2503.5,-168.5"/>
<text text-anchor="middle" x="2573.5" y="-175.5" font-family="Helvetica,sans-Serif" font-size="10.00">G4DarkBreM/G4APrime.h</text>
</a>
</g>
</g>
<!-- Node1&#45;&gt;Node35 -->
<g id="edge41" class="edge">
<title>Node1&#45;&gt;Node35</title>
<path fill="none" stroke="midnightblue" d="M1335.25,-232.47C1500.36,-230.46 2037.32,-221.64 2493.21,-187.95"/>
<polygon fill="midnightblue" stroke="midnightblue" points="2493.58,-191.43 2503.29,-187.2 2493.06,-184.45 2493.58,-191.43"/>
</g>
<!-- Node21 -->
<g id="node21" class="node">
<title>Node21</title>
<g id="a_node21"><a xlink:title=" ">
<polygon fill="none" stroke="#bfbfbf" points="665.5,-112.5 665.5,-131.5 795.5,-131.5 795.5,-112.5 665.5,-112.5"/>
<text text-anchor="middle" x="730.5" y="-119.5" font-family="Helvetica,sans-Serif" font-size="10.00">G4VDiscreteProcess.hh</text>
</a>
</g>
</g>
<!-- Node20&#45;&gt;Node21 -->
<g id="edge20" class="edge">
<title>Node20&#45;&gt;Node21</title>
<path fill="none" stroke="midnightblue" d="M449.42,-168.44C508.67,-158.87 604.6,-143.36 667.62,-133.17"/>
<polygon fill="midnightblue" stroke="midnightblue" points="668.51,-136.57 677.82,-131.52 667.39,-129.66 668.51,-136.57"/>
</g>
<!-- Node22 -->
<g id="node22" class="node">
<title>Node22</title>
<g id="a_node22"><a xlink:href="PrototypeModel_8h.html" target="_top" xlink:title="Class providing a prototype model for dark brem.">
<polygon fill="none" stroke="black" points="458.5,-56.5 458.5,-75.5 626.5,-75.5 626.5,-56.5 458.5,-56.5"/>
<text text-anchor="middle" x="542.5" y="-63.5" font-family="Helvetica,sans-Serif" font-size="10.00">G4DarkBreM/PrototypeModel.h</text>
</a>
</g>
</g>
<!-- Node20&#45;&gt;Node22 -->
<g id="edge21" class="edge">
<title>Node20&#45;&gt;Node22</title>
<path fill="none" stroke="midnightblue" d="M499.02,-168.56C549.18,-162.08 602.05,-150.91 617.5,-132 634.47,-111.23 603.08,-91.69 575.86,-79.56"/>
<polygon fill="midnightblue" stroke="midnightblue" points="577.07,-76.27 566.49,-75.59 574.33,-82.71 577.07,-76.27"/>
</g>
<!-- Node26 -->
<g id="node26" class="node">
<title>Node26</title>
<g id="a_node26"><a xlink:href="ElementXsecCache_8h_source.html" target="_top" xlink:title=" ">
<polygon fill="none" stroke="black" points="189,-112.5 189,-131.5 374,-131.5 374,-112.5 189,-112.5"/>
<text text-anchor="middle" x="281.5" y="-119.5" font-family="Helvetica,sans-Serif" font-size="10.00">G4DarkBreM/ElementXsecCache.h</text>
</a>
</g>
</g>
<!-- Node20&#45;&gt;Node26 -->
<g id="edge25" class="edge">
<title>Node20&#45;&gt;Node26</title>
<path fill="none" stroke="midnightblue" d="M378.28,-168.44C359.6,-159.68 330.34,-145.94 308.88,-135.86"/>
<polygon fill="midnightblue" stroke="midnightblue" points="310.18,-132.6 299.64,-131.52 307.2,-138.93 310.18,-132.6"/>
</g>
<!-- Node27 -->
<g id="node27" class="node">
<title>Node27</title>
<g id="a_node27"><a xlink:href="ElementXsecInterpolation_8h_source.html" target="_top" xlink:title=" ">
<polygon fill="none" stroke="black" points="392,-112.5 392,-131.5 609,-131.5 609,-112.5 392,-112.5"/>
<text text-anchor="middle" x="500.5" y="-119.5" font-family="Helvetica,sans-Serif" font-size="10.00">G4DarkBreM/ElementXsecInterpolation.h</text>
</a>
</g>
</g>
<!-- Node20&#45;&gt;Node27 -->
<g id="edge28" class="edge">
<title>Node20&#45;&gt;Node27</title>
<path fill="none" stroke="midnightblue" d="M413.21,-168.32C429.81,-159.7 455.5,-146.36 474.72,-136.39"/>
<polygon fill="midnightblue" stroke="midnightblue" points="476.57,-139.37 483.83,-131.65 473.34,-133.16 476.57,-139.37"/>
</g>
<!-- Node23 -->
<g id="node23" class="node">
<title>Node23</title>
<g id="a_node23"><a xlink:title=" ">
<polygon fill="none" stroke="#bfbfbf" points="420,-0.5 420,-19.5 491,-19.5 491,-0.5 420,-0.5"/>
<text text-anchor="middle" x="455.5" y="-7.5" font-family="Helvetica,sans-Serif" font-size="10.00">G4Track.hh</text>
</a>
</g>
</g>
<!-- Node22&#45;&gt;Node23 -->
<g id="edge22" class="edge">
<title>Node22&#45;&gt;Node23</title>
<path fill="none" stroke="midnightblue" d="M528.52,-56.32C514.95,-47.9 494.12,-34.97 478.18,-25.07"/>
<polygon fill="midnightblue" stroke="midnightblue" points="479.79,-21.95 469.44,-19.65 476.09,-27.9 479.79,-21.95"/>
</g>
<!-- Node24 -->
<g id="node24" class="node">
<title>Node24</title>
<g id="a_node24"><a xlink:title=" ">
<polygon fill="none" stroke="#bfbfbf" points="509,-0.5 509,-19.5 576,-19.5 576,-0.5 509,-0.5"/>
<text text-anchor="middle" x="542.5" y="-7.5" font-family="Helvetica,sans-Serif" font-size="10.00">G4Step.hh</text>
</a>
</g>
</g>
<!-- Node22&#45;&gt;Node24 -->
<g id="edge23" class="edge">
<title>Node22&#45;&gt;Node24</title>
<path fill="none" stroke="midnightblue" d="M542.5,-56.08C542.5,-49.01 542.5,-38.86 542.5,-29.99"/>
<polygon fill="midnightblue" stroke="midnightblue" points="546,-29.75 542.5,-19.75 539,-29.75 546,-29.75"/>
</g>
<!-- Node25 -->
<g id="node25" class="node">
<title>Node25</title>
<g id="a_node25"><a xlink:title=" ">
<polygon fill="none" stroke="#bfbfbf" points="594.5,-0.5 594.5,-19.5 712.5,-19.5 712.5,-0.5 594.5,-0.5"/>
<text text-anchor="middle" x="653.5" y="-7.5" font-family="Helvetica,sans-Serif" font-size="10.00">G4ParticleChange.hh</text>
</a>
</g>
</g>
<!-- Node22&#45;&gt;Node25 -->
<g id="edge24" class="edge">
<title>Node22&#45;&gt;Node25</title>
<path fill="none" stroke="midnightblue" d="M560.33,-56.32C578.22,-47.62 605.98,-34.12 626.55,-24.11"/>
<polygon fill="midnightblue" stroke="midnightblue" points="628.25,-27.18 635.71,-19.65 625.19,-20.88 628.25,-27.18"/>
</g>
<!-- Node26&#45;&gt;Node4 -->
<g id="edge26" class="edge">
<title>Node26&#45;&gt;Node4</title>
<path fill="none" stroke="midnightblue" d="M295.32,-112.32C308.73,-103.9 329.32,-90.97 345.09,-81.07"/>
<polygon fill="midnightblue" stroke="midnightblue" points="347.11,-83.94 353.72,-75.65 343.39,-78.01 347.11,-83.94"/>
</g>
<!-- Node26&#45;&gt;Node22 -->
<g id="edge27" class="edge">
<title>Node26&#45;&gt;Node22</title>
<path fill="none" stroke="midnightblue" d="M322.86,-112.44C368.58,-102.98 442.26,-87.74 491.52,-77.55"/>
<polygon fill="midnightblue" stroke="midnightblue" points="492.25,-80.97 501.34,-75.52 490.84,-74.12 492.25,-80.97"/>
</g>
<!-- Node27&#45;&gt;Node4 -->
<g id="edge29" class="edge">
<title>Node27&#45;&gt;Node4</title>
<path fill="none" stroke="midnightblue" d="M479.43,-112.44C457.44,-103.52 422.77,-89.44 397.84,-79.32"/>
<polygon fill="midnightblue" stroke="midnightblue" points="399.06,-76.04 388.48,-75.52 396.42,-82.52 399.06,-76.04"/>
</g>
<!-- Node27&#45;&gt;Node22 -->
<g id="edge30" class="edge">
<title>Node27&#45;&gt;Node22</title>
<path fill="none" stroke="midnightblue" d="M507.44,-112.08C513.43,-104.38 522.25,-93.03 529.55,-83.65"/>
<polygon fill="midnightblue" stroke="midnightblue" points="532.32,-85.79 535.69,-75.75 526.79,-81.5 532.32,-85.79"/>
</g>
<!-- Node28&#45;&gt;Node4 -->
<g id="edge32" class="edge">
<title>Node28&#45;&gt;Node4</title>
<path fill="none" stroke="midnightblue" d="M816.35,-112.49C724.4,-103.65 576.89,-89.28 449.5,-76 435.54,-74.54 420.25,-72.88 406.69,-71.39"/>
<polygon fill="midnightblue" stroke="midnightblue" points="407.04,-67.91 396.71,-70.28 406.27,-74.86 407.04,-67.91"/>
</g>
<!-- Node28&#45;&gt;Node22 -->
<g id="edge40" class="edge">
<title>Node28&#45;&gt;Node22</title>
<path fill="none" stroke="midnightblue" d="M847.98,-112.44C783.33,-102.83 678.47,-87.23 610,-77.04"/>
<polygon fill="midnightblue" stroke="midnightblue" points="610.16,-73.53 599.75,-75.52 609.13,-80.45 610.16,-73.53"/>
</g>
<!-- Node29 -->
<g id="node29" class="node">
<title>Node29</title>
<g id="a_node29"><a xlink:title=" ">
<polygon fill="none" stroke="#bfbfbf" points="826.5,-0.5 826.5,-19.5 864.5,-19.5 864.5,-0.5 826.5,-0.5"/>
<text text-anchor="middle" x="845.5" y="-7.5" font-family="Helvetica,sans-Serif" font-size="10.00">map</text>
</a>
</g>
</g>
<!-- Node28&#45;&gt;Node29 -->
<g id="edge33" class="edge">
<title>Node28&#45;&gt;Node29</title>
<path fill="none" stroke="midnightblue" d="M898.83,-112.35C892.18,-103.51 881.93,-89.24 874.5,-76 865.91,-60.7 857.93,-42.36 852.52,-29.08"/>
<polygon fill="midnightblue" stroke="midnightblue" points="855.72,-27.66 848.77,-19.66 849.21,-30.24 855.72,-27.66"/>
</g>
<!-- Node30 -->
<g id="node30" class="node">
<title>Node30</title>
<g id="a_node30"><a xlink:href="ParseLibrary_8h.html" target="_top" xlink:title=" ">
<polygon fill="none" stroke="black" points="884,-56.5 884,-75.5 1033,-75.5 1033,-56.5 884,-56.5"/>
<text text-anchor="middle" x="958.5" y="-63.5" font-family="Helvetica,sans-Serif" font-size="10.00">G4DarkBreM/ParseLibrary.h</text>
</a>
</g>
</g>
<!-- Node28&#45;&gt;Node30 -->
<g id="edge34" class="edge">
<title>Node28&#45;&gt;Node30</title>
<path fill="none" stroke="midnightblue" d="M914.25,-112.08C921.97,-104.22 933.4,-92.57 942.72,-83.08"/>
<polygon fill="midnightblue" stroke="midnightblue" points="945.4,-85.34 949.91,-75.75 940.41,-80.44 945.4,-85.34"/>
</g>
<!-- Node30&#45;&gt;Node29 -->
<g id="edge36" class="edge">
<title>Node30&#45;&gt;Node29</title>
<path fill="none" stroke="midnightblue" d="M940.59,-56.44C922.25,-47.68 893.49,-33.94 872.41,-23.86"/>
<polygon fill="midnightblue" stroke="midnightblue" points="873.85,-20.67 863.32,-19.52 870.83,-26.99 873.85,-20.67"/>
</g>
<!-- Node31 -->
<g id="node31" class="node">
<title>Node31</title>
<g id="a_node31"><a xlink:title=" ">
<polygon fill="none" stroke="#bfbfbf" points="882.5,-0.5 882.5,-19.5 926.5,-19.5 926.5,-0.5 882.5,-0.5"/>
<text text-anchor="middle" x="904.5" y="-7.5" font-family="Helvetica,sans-Serif" font-size="10.00">string</text>
</a>
</g>
</g>
<!-- Node30&#45;&gt;Node31 -->
<g id="edge35" class="edge">
<title>Node30&#45;&gt;Node31</title>
<path fill="none" stroke="midnightblue" d="M949.58,-56.08C941.72,-48.22 930.07,-36.57 920.58,-27.08"/>
<polygon fill="midnightblue" stroke="midnightblue" points="922.8,-24.35 913.25,-19.75 917.85,-29.3 922.8,-24.35"/>
</g>
<!-- Node32 -->
<g id="node32" class="node">
<title>Node32</title>
<g id="a_node32"><a xlink:title=" ">
<polygon fill="none" stroke="#bfbfbf" points="945,-0.5 945,-19.5 992,-19.5 992,-0.5 945,-0.5"/>
<text text-anchor="middle" x="968.5" y="-7.5" font-family="Helvetica,sans-Serif" font-size="10.00">vector</text>
</a>
</g>
</g>
<!-- Node30&#45;&gt;Node32 -->
<g id="edge37" class="edge">
<title>Node30&#45;&gt;Node32</title>
<path fill="none" stroke="midnightblue" d="M960.15,-56.08C961.48,-48.93 963.38,-38.64 965.04,-29.69"/>
<polygon fill="midnightblue" stroke="midnightblue" points="968.5,-30.22 966.88,-19.75 961.62,-28.95 968.5,-30.22"/>
</g>
<!-- Node33 -->
<g id="node33" class="node">
<title>Node33</title>
<g id="a_node33"><a xlink:title=" ">
<polygon fill="none" stroke="#bfbfbf" points="1010,-0.5 1010,-19.5 1067,-19.5 1067,-0.5 1010,-0.5"/>
<text text-anchor="middle" x="1038.5" y="-7.5" font-family="Helvetica,sans-Serif" font-size="10.00">ostream</text>
</a>
</g>
</g>
<!-- Node30&#45;&gt;Node33 -->
<g id="edge38" class="edge">
<title>Node30&#45;&gt;Node33</title>
<path fill="none" stroke="midnightblue" d="M971.35,-56.32C983.72,-47.98 1002.63,-35.21 1017.24,-25.35"/>
<polygon fill="midnightblue" stroke="midnightblue" points="1019.35,-28.15 1025.68,-19.65 1015.43,-22.35 1019.35,-28.15"/>
</g>
<!-- Node34 -->
<g id="node34" class="node">
<title>Node34</title>
<g id="a_node34"><a xlink:title=" ">
<polygon fill="none" stroke="#bfbfbf" points="1085.5,-0.5 1085.5,-19.5 1245.5,-19.5 1245.5,-0.5 1085.5,-0.5"/>
<text text-anchor="middle" x="1165.5" y="-7.5" font-family="Helvetica,sans-Serif" font-size="10.00">CLHEP/Vector/LorentzVector.h</text>
</a>
</g>
</g>
<!-- Node30&#45;&gt;Node34 -->
<g id="edge39" class="edge">
<title>Node30&#45;&gt;Node34</title>
<path fill="none" stroke="midnightblue" d="M991.3,-56.44C1026.88,-47.16 1083.81,-32.31 1122.85,-22.13"/>
<polygon fill="midnightblue" stroke="midnightblue" points="1124.06,-25.43 1132.85,-19.52 1122.29,-18.65 1124.06,-25.43"/>
</g>
<!-- Node36 -->
<g id="node36" class="node">
<title>Node36</title>
<g id="a_node36"><a xlink:title=" ">
<polygon fill="none" stroke="#bfbfbf" points="2438.5,-112.5 2438.5,-131.5 2566.5,-131.5 2566.5,-112.5 2438.5,-112.5"/>
<text text-anchor="middle" x="2502.5" y="-119.5" font-family="Helvetica,sans-Serif" font-size="10.00">G4ParticleDefinition.hh</text>
</a>
</g>
</g>
<!-- Node35&#45;&gt;Node36 -->
<g id="edge42" class="edge">
<title>Node35&#45;&gt;Node36</title>
<path fill="none" stroke="midnightblue" d="M2562.09,-168.32C2551.39,-160.18 2535.16,-147.84 2522.34,-138.09"/>
<polygon fill="midnightblue" stroke="midnightblue" points="2524.19,-135.1 2514.11,-131.83 2519.96,-140.67 2524.19,-135.1"/>
</g>
<!-- Node37 -->
<g id="node37" class="node">
<title>Node37</title>
<g id="a_node37"><a xlink:title=" ">
<polygon fill="none" stroke="#bfbfbf" points="2585,-112.5 2585,-131.5 2704,-131.5 2704,-112.5 2585,-112.5"/>
<text text-anchor="middle" x="2644.5" y="-119.5" font-family="Helvetica,sans-Serif" font-size="10.00">G4SystemOfUnits.hh</text>
</a>
</g>
</g>
<!-- Node35&#45;&gt;Node37 -->
<g id="edge43" class="edge">
<title>Node35&#45;&gt;Node37</title>
<path fill="none" stroke="midnightblue" d="M2584.91,-168.32C2595.61,-160.18 2611.84,-147.84 2624.66,-138.09"/>
<polygon fill="midnightblue" stroke="midnightblue" points="2627.04,-140.67 2632.89,-131.83 2622.81,-135.1 2627.04,-140.67"/>
</g>
</g>
</svg>
