<?xml version="1.0" encoding="UTF-8" standalone="no"?>
<!DOCTYPE svg PUBLIC "-//W3C//DTD SVG 1.1//EN"
 "http://www.w3.org/Graphics/SVG/1.1/DTD/svg11.dtd">
<!-- Generated by graphviz version 2.43.0 (0)
 -->
<!-- Title: app/simulate.cxx Pages: 1 -->
<svg width="2558pt" height="252pt"
 viewBox="0.00 0.00 2557.50 252.00" xmlns="http://www.w3.org/2000/svg" xmlns:xlink="http://www.w3.org/1999/xlink">
<g id="graph0" class="graph" transform="scale(1 1) rotate(0) translate(4 248)">
<title>app/simulate.cxx</title>
<!-- Node1 -->
<g id="node1" class="node">
<title>Node1</title>
<g id="a_node1"><a xlink:title=" ">
<polygon fill="#bfbfbf" stroke="black" points="988.5,-224.5 988.5,-243.5 1089.5,-243.5 1089.5,-224.5 988.5,-224.5"/>
<text text-anchor="middle" x="1039" y="-231.5" font-family="Helvetica,sans-Serif" font-size="10.00">app/simulate.cxx</text>
</a>
</g>
</g>
<!-- Node2 -->
<g id="node2" class="node">
<title>Node2</title>
<g id="a_node2"><a xlink:title=" ">
<polygon fill="none" stroke="#bfbfbf" points="11,-168.5 11,-187.5 53,-187.5 53,-168.5 11,-168.5"/>
<text text-anchor="middle" x="32" y="-175.5" font-family="Helvetica,sans-Serif" font-size="10.00">array</text>
</a>
</g>
</g>
<!-- Node1&#45;&gt;Node2 -->
<g id="edge1" class="edge">
<title>Node1&#45;&gt;Node2</title>
<path fill="none" stroke="midnightblue" d="M988.44,-232.31C817.66,-229.72 262.31,-219.18 63.21,-187.71"/>
<polygon fill="midnightblue" stroke="midnightblue" points="63.59,-184.22 53.15,-186.05 62.45,-191.13 63.59,-184.22"/>
</g>
<!-- Node3 -->
<g id="node3" class="node">
<title>Node3</title>
<g id="a_node3"><a xlink:title=" ">
<polygon fill="none" stroke="#bfbfbf" points="71.5,-168.5 71.5,-187.5 126.5,-187.5 126.5,-168.5 71.5,-168.5"/>
<text text-anchor="middle" x="99" y="-175.5" font-family="Helvetica,sans-Serif" font-size="10.00">fstream</text>
</a>
</g>
</g>
<!-- Node1&#45;&gt;Node3 -->
<g id="edge2" class="edge">
<title>Node1&#45;&gt;Node3</title>
<path fill="none" stroke="midnightblue" d="M988.35,-231.74C826.43,-227.5 321.71,-212.74 136.9,-187.78"/>
<polygon fill="midnightblue" stroke="midnightblue" points="137.16,-184.28 126.77,-186.35 136.18,-191.21 137.16,-184.28"/>
</g>
<!-- Node4 -->
<g id="node4" class="node">
<title>Node4</title>
<g id="a_node4"><a xlink:title=" ">
<polygon fill="none" stroke="#bfbfbf" points="145,-168.5 145,-187.5 205,-187.5 205,-168.5 145,-168.5"/>
<text text-anchor="middle" x="175" y="-175.5" font-family="Helvetica,sans-Serif" font-size="10.00">iostream</text>
</a>
</g>
</g>
<!-- Node1&#45;&gt;Node4 -->
<g id="edge3" class="edge">
<title>Node1&#45;&gt;Node4</title>
<path fill="none" stroke="midnightblue" d="M988.38,-232.8C859.47,-231.74 508.52,-225.35 219,-188 217.74,-187.84 216.46,-187.66 215.17,-187.47"/>
<polygon fill="midnightblue" stroke="midnightblue" points="215.64,-184 205.2,-185.79 214.48,-190.9 215.64,-184"/>
</g>
<!-- Node5 -->
<g id="node5" class="node">
<title>Node5</title>
<g id="a_node5"><a xlink:title=" ">
<polygon fill="none" stroke="#bfbfbf" points="303,-56.5 303,-75.5 361,-75.5 361,-56.5 303,-56.5"/>
<text text-anchor="middle" x="332" y="-63.5" font-family="Helvetica,sans-Serif" font-size="10.00">memory</text>
</a>
</g>
</g>
<!-- Node1&#45;&gt;Node5 -->
<g id="edge4" class="edge">
<title>Node1&#45;&gt;Node5</title>
<path fill="none" stroke="midnightblue" d="M988.24,-231.82C823.68,-227.77 314.17,-213.21 290,-188 266.62,-163.62 276.43,-143.35 289,-112 293.68,-100.33 302.99,-89.97 311.76,-82.14"/>
<polygon fill="midnightblue" stroke="midnightblue" points="314.05,-84.78 319.5,-75.7 309.58,-79.4 314.05,-84.78"/>
</g>
<!-- Node6 -->
<g id="node6" class="node">
<title>Node6</title>
<g id="a_node6"><a xlink:title=" ">
<polygon fill="none" stroke="#bfbfbf" points="523,-168.5 523,-187.5 587,-187.5 587,-168.5 523,-168.5"/>
<text text-anchor="middle" x="555" y="-175.5" font-family="Helvetica,sans-Serif" font-size="10.00">G4Box.hh</text>
</a>
</g>
</g>
<!-- Node1&#45;&gt;Node6 -->
<g id="edge5" class="edge">
<title>Node1&#45;&gt;Node6</title>
<path fill="none" stroke="midnightblue" d="M988.26,-229.75C907.54,-224.16 744.74,-211.2 597.3,-188.04"/>
<polygon fill="midnightblue" stroke="midnightblue" points="597.59,-184.54 587.16,-186.43 596.49,-191.45 597.59,-184.54"/>
</g>
<!-- Node7 -->
<g id="node7" class="node">
<title>Node7</title>
<g id="a_node7"><a xlink:href="G4APrime_8h.html" target="_top" xlink:title="Class creating the A&#39; particle in Geant.">
<polygon fill="none" stroke="black" points="605,-168.5 605,-187.5 745,-187.5 745,-168.5 605,-168.5"/>
<text text-anchor="middle" x="675" y="-175.5" font-family="Helvetica,sans-Serif" font-size="10.00">G4DarkBreM/G4APrime.h</text>
</a>
</g>
</g>
<!-- Node1&#45;&gt;Node7 -->
<g id="edge6" class="edge">
<title>Node1&#45;&gt;Node7</title>
<path fill="none" stroke="midnightblue" d="M988.39,-225.49C924.34,-215.99 813.8,-199.59 742.59,-189.03"/>
<polygon fill="midnightblue" stroke="midnightblue" points="742.78,-185.52 732.38,-187.51 741.75,-192.44 742.78,-185.52"/>
</g>
<!-- Node10 -->
<g id="node10" class="node">
<title>Node10</title>
<g id="a_node10"><a xlink:href="G4DarkBreMModel_8h_source.html" target="_top" xlink:title=" ">
<polygon fill="none" stroke="black" points="59.5,-112.5 59.5,-131.5 242.5,-131.5 242.5,-112.5 59.5,-112.5"/>
<text text-anchor="middle" x="151" y="-119.5" font-family="Helvetica,sans-Serif" font-size="10.00">G4DarkBreM/G4DarkBreMModel.h</text>
</a>
</g>
</g>
<!-- Node1&#45;&gt;Node10 -->
<g id="edge9" class="edge">
<title>Node1&#45;&gt;Node10</title>
<path fill="none" stroke="midnightblue" d="M988.5,-233.29C837.94,-233.67 394.14,-230.99 257,-188 239.22,-182.43 197.21,-154.81 171.74,-137.41"/>
<polygon fill="midnightblue" stroke="midnightblue" points="173.71,-134.52 163.49,-131.74 169.75,-140.29 173.71,-134.52"/>
</g>
<!-- Node21 -->
<g id="node21" class="node">
<title>Node21</title>
<g id="a_node21"><a xlink:href="G4DarkBremsstrahlung_8h.html" target="_top" xlink:title="Class providing the Dark Bremsstrahlung process class.">
<polygon fill="none" stroke="black" points="299.5,-168.5 299.5,-187.5 504.5,-187.5 504.5,-168.5 299.5,-168.5"/>
<text text-anchor="middle" x="402" y="-175.5" font-family="Helvetica,sans-Serif" font-size="10.00">G4DarkBreM/G4DarkBremsstrahlung.h</text>
</a>
</g>
</g>
<!-- Node1&#45;&gt;Node21 -->
<g id="edge22" class="edge">
<title>Node1&#45;&gt;Node21</title>
<path fill="none" stroke="midnightblue" d="M988.48,-228.72C886.14,-220.04 652.21,-200.21 512.7,-188.38"/>
<polygon fill="midnightblue" stroke="midnightblue" points="512.66,-184.87 502.4,-187.51 512.07,-191.84 512.66,-184.87"/>
</g>
<!-- Node25 -->
<g id="node25" class="node">
<title>Node25</title>
<g id="a_node25"><a xlink:title=" ">
<polygon fill="none" stroke="#bfbfbf" points="763.5,-168.5 763.5,-187.5 848.5,-187.5 848.5,-168.5 763.5,-168.5"/>
<text text-anchor="middle" x="806" y="-175.5" font-family="Helvetica,sans-Serif" font-size="10.00">G4Electron.hh</text>
</a>
</g>
</g>
<!-- Node1&#45;&gt;Node25 -->
<g id="edge31" class="edge">
<title>Node1&#45;&gt;Node25</title>
<path fill="none" stroke="midnightblue" d="M1002.08,-224.44C961.6,-215.06 896.58,-199.99 852.62,-189.8"/>
<polygon fill="midnightblue" stroke="midnightblue" points="853.28,-186.36 842.75,-187.52 851.7,-193.18 853.28,-186.36"/>
</g>
<!-- Node26 -->
<g id="node26" class="node">
<title>Node26</title>
<g id="a_node26"><a xlink:title=" ">
<polygon fill="none" stroke="#bfbfbf" points="866.5,-168.5 866.5,-187.5 967.5,-187.5 967.5,-168.5 866.5,-168.5"/>
<text text-anchor="middle" x="917" y="-175.5" font-family="Helvetica,sans-Serif" font-size="10.00">G4MuonMinus.hh</text>
</a>
</g>
</g>
<!-- Node1&#45;&gt;Node26 -->
<g id="edge32" class="edge">
<title>Node1&#45;&gt;Node26</title>
<path fill="none" stroke="midnightblue" d="M1019.67,-224.44C999.68,-215.6 968.26,-201.69 945.44,-191.59"/>
<polygon fill="midnightblue" stroke="midnightblue" points="946.8,-188.36 936.24,-187.52 943.97,-194.76 946.8,-188.36"/>
</g>
<!-- Node27 -->
<g id="node27" class="node">
<title>Node27</title>
<g id="a_node27"><a xlink:title=" ">
<polygon fill="none" stroke="#bfbfbf" points="985.5,-168.5 985.5,-187.5 1092.5,-187.5 1092.5,-168.5 985.5,-168.5"/>
<text text-anchor="middle" x="1039" y="-175.5" font-family="Helvetica,sans-Serif" font-size="10.00">G4NistManager.hh</text>
</a>
</g>
</g>
<!-- Node1&#45;&gt;Node27 -->
<g id="edge33" class="edge">
<title>Node1&#45;&gt;Node27</title>
<path fill="none" stroke="midnightblue" d="M1039,-224.08C1039,-217.01 1039,-206.86 1039,-197.99"/>
<polygon fill="midnightblue" stroke="midnightblue" points="1042.5,-197.75 1039,-187.75 1035.5,-197.75 1042.5,-197.75"/>
</g>
<!-- Node28 -->
<g id="node28" class="node">
<title>Node28</title>
<g id="a_node28"><a xlink:title=" ">
<polygon fill="none" stroke="#bfbfbf" points="1111,-168.5 1111,-187.5 1221,-187.5 1221,-168.5 1111,-168.5"/>
<text text-anchor="middle" x="1166" y="-175.5" font-family="Helvetica,sans-Serif" font-size="10.00">G4PVPlacement.hh</text>
</a>
</g>
</g>
<!-- Node1&#45;&gt;Node28 -->
<g id="edge34" class="edge">
<title>Node1&#45;&gt;Node28</title>
<path fill="none" stroke="midnightblue" d="M1059.12,-224.44C1080.02,-215.56 1112.93,-201.56 1136.72,-191.45"/>
<polygon fill="midnightblue" stroke="midnightblue" points="1138.14,-194.65 1145.97,-187.52 1135.4,-188.21 1138.14,-194.65"/>
</g>
<!-- Node29 -->
<g id="node29" class="node">
<title>Node29</title>
<g id="a_node29"><a xlink:title=" ">
<polygon fill="none" stroke="#bfbfbf" points="1239.5,-168.5 1239.5,-187.5 1340.5,-187.5 1340.5,-168.5 1239.5,-168.5"/>
<text text-anchor="middle" x="1290" y="-175.5" font-family="Helvetica,sans-Serif" font-size="10.00">G4ParticleGun.hh</text>
</a>
</g>
</g>
<!-- Node1&#45;&gt;Node29 -->
<g id="edge35" class="edge">
<title>Node1&#45;&gt;Node29</title>
<path fill="none" stroke="midnightblue" d="M1078.77,-224.44C1122.56,-215.02 1193.01,-199.87 1240.38,-189.68"/>
<polygon fill="midnightblue" stroke="midnightblue" points="1241.37,-193.04 1250.41,-187.52 1239.9,-186.2 1241.37,-193.04"/>
</g>
<!-- Node30 -->
<g id="node30" class="node">
<title>Node30</title>
<g id="a_node30"><a xlink:title=" ">
<polygon fill="none" stroke="#bfbfbf" points="1358.5,-168.5 1358.5,-187.5 1477.5,-187.5 1477.5,-168.5 1358.5,-168.5"/>
<text text-anchor="middle" x="1418" y="-175.5" font-family="Helvetica,sans-Serif" font-size="10.00">G4PhysListFactory.hh</text>
</a>
</g>
</g>
<!-- Node1&#45;&gt;Node30 -->
<g id="edge36" class="edge">
<title>Node1&#45;&gt;Node30</title>
<path fill="none" stroke="midnightblue" d="M1089.72,-225.77C1156.18,-216.3 1273.06,-199.65 1347.94,-188.98"/>
<polygon fill="midnightblue" stroke="midnightblue" points="1348.81,-192.39 1358.22,-187.52 1347.82,-185.46 1348.81,-192.39"/>
</g>
<!-- Node31 -->
<g id="node31" class="node">
<title>Node31</title>
<g id="a_node31"><a xlink:title=" ">
<polygon fill="none" stroke="#bfbfbf" points="1496,-168.5 1496,-187.5 1602,-187.5 1602,-168.5 1496,-168.5"/>
<text text-anchor="middle" x="1549" y="-175.5" font-family="Helvetica,sans-Serif" font-size="10.00">G4RunManager.hh</text>
</a>
</g>
</g>
<!-- Node1&#45;&gt;Node31 -->
<g id="edge37" class="edge">
<title>Node1&#45;&gt;Node31</title>
<path fill="none" stroke="midnightblue" d="M1089.81,-228.63C1171.1,-221.48 1335.66,-206.34 1485.61,-188.12"/>
<polygon fill="midnightblue" stroke="midnightblue" points="1486.42,-191.55 1495.92,-186.86 1485.57,-184.6 1486.42,-191.55"/>
</g>
<!-- Node32 -->
<g id="node32" class="node">
<title>Node32</title>
<g id="a_node32"><a xlink:title=" ">
<polygon fill="none" stroke="#bfbfbf" points="1620,-168.5 1620,-187.5 1746,-187.5 1746,-168.5 1620,-168.5"/>
<text text-anchor="middle" x="1683" y="-175.5" font-family="Helvetica,sans-Serif" font-size="10.00">G4UserEventAction.hh</text>
</a>
</g>
</g>
<!-- Node1&#45;&gt;Node32 -->
<g id="edge38" class="edge">
<title>Node1&#45;&gt;Node32</title>
<path fill="none" stroke="midnightblue" d="M1089.57,-229.8C1187.73,-223.43 1411.17,-208.09 1609.77,-188.08"/>
<polygon fill="midnightblue" stroke="midnightblue" points="1610.21,-191.56 1619.8,-187.07 1609.5,-184.59 1610.21,-191.56"/>
</g>
<!-- Node33 -->
<g id="node33" class="node">
<title>Node33</title>
<g id="a_node33"><a xlink:title=" ">
<polygon fill="none" stroke="#bfbfbf" points="1764.5,-168.5 1764.5,-187.5 1903.5,-187.5 1903.5,-168.5 1764.5,-168.5"/>
<text text-anchor="middle" x="1834" y="-175.5" font-family="Helvetica,sans-Serif" font-size="10.00">G4UserTrackingAction.hh</text>
</a>
</g>
</g>
<!-- Node1&#45;&gt;Node33 -->
<g id="edge39" class="edge">
<title>Node1&#45;&gt;Node33</title>
<path fill="none" stroke="midnightblue" d="M1089.85,-230.69C1205.65,-225.24 1498.09,-210.4 1754,-188.04"/>
<polygon fill="midnightblue" stroke="midnightblue" points="1754.58,-191.5 1764.23,-187.14 1753.96,-184.53 1754.58,-191.5"/>
</g>
<!-- Node34 -->
<g id="node34" class="node">
<title>Node34</title>
<g id="a_node34"><a xlink:title=" ">
<polygon fill="none" stroke="#bfbfbf" points="1922,-168.5 1922,-187.5 2066,-187.5 2066,-168.5 1922,-168.5"/>
<text text-anchor="middle" x="1994" y="-175.5" font-family="Helvetica,sans-Serif" font-size="10.00">G4VPhysicsConstructor.hh</text>
</a>
</g>
</g>
<!-- Node1&#45;&gt;Node34 -->
<g id="edge40" class="edge">
<title>Node1&#45;&gt;Node34</title>
<path fill="none" stroke="midnightblue" d="M1089.81,-231.44C1222.85,-227.12 1592.6,-213.66 1911.24,-188.1"/>
<polygon fill="midnightblue" stroke="midnightblue" points="1911.91,-191.55 1921.6,-187.26 1911.35,-184.58 1911.91,-191.55"/>
</g>
<!-- Node35 -->
<g id="node35" class="node">
<title>Node35</title>
<g id="a_node35"><a xlink:title=" ">
<polygon fill="none" stroke="#bfbfbf" points="2084,-168.5 2084,-187.5 2262,-187.5 2262,-168.5 2084,-168.5"/>
<text text-anchor="middle" x="2173" y="-175.5" font-family="Helvetica,sans-Serif" font-size="10.00">G4VUserDetectorConstruction.hh</text>
</a>
</g>
</g>
<!-- Node1&#45;&gt;Node35 -->
<g id="edge41" class="edge">
<title>Node1&#45;&gt;Node35</title>
<path fill="none" stroke="midnightblue" d="M1089.71,-231.66C1238.81,-227.55 1688.89,-213.8 2073.6,-188.06"/>
<polygon fill="midnightblue" stroke="midnightblue" points="2074.07,-191.54 2083.82,-187.37 2073.6,-184.55 2074.07,-191.54"/>
</g>
<!-- Node36 -->
<g id="node36" class="node">
<title>Node36</title>
<g id="a_node36"><a xlink:title=" ">
<polygon fill="none" stroke="#bfbfbf" points="2280,-168.5 2280,-187.5 2472,-187.5 2472,-168.5 2280,-168.5"/>
<text text-anchor="middle" x="2376" y="-175.5" font-family="Helvetica,sans-Serif" font-size="10.00">G4VUserPrimaryGeneratorAction.hh</text>
</a>
</g>
</g>
<!-- Node1&#45;&gt;Node36 -->
<g id="edge42" class="edge">
<title>Node1&#45;&gt;Node36</title>
<path fill="none" stroke="midnightblue" d="M1089.5,-232.04C1256.26,-228.69 1804.64,-216.18 2269.61,-188.05"/>
<polygon fill="midnightblue" stroke="midnightblue" points="2270.11,-191.53 2279.88,-187.43 2269.69,-184.54 2270.11,-191.53"/>
</g>
<!-- Node37 -->
<g id="node37" class="node">
<title>Node37</title>
<g id="a_node37"><a xlink:title=" ">
<polygon fill="none" stroke="#bfbfbf" points="2490.5,-168.5 2490.5,-187.5 2549.5,-187.5 2549.5,-168.5 2490.5,-168.5"/>
<text text-anchor="middle" x="2520" y="-175.5" font-family="Helvetica,sans-Serif" font-size="10.00">QBBC.hh</text>
</a>
</g>
</g>
<!-- Node1&#45;&gt;Node37 -->
<g id="edge43" class="edge">
<title>Node1&#45;&gt;Node37</title>
<path fill="none" stroke="midnightblue" d="M1089.77,-232.75C1309.8,-231.45 2182.79,-224.16 2479.97,-187.79"/>
<polygon fill="midnightblue" stroke="midnightblue" points="2480.82,-191.21 2490.3,-186.48 2479.94,-184.27 2480.82,-191.21"/>
</g>
<!-- Node8 -->
<g id="node8" class="node">
<title>Node8</title>
<g id="a_node8"><a xlink:title=" ">
<polygon fill="none" stroke="#bfbfbf" points="923,-112.5 923,-131.5 1051,-131.5 1051,-112.5 923,-112.5"/>
<text text-anchor="middle" x="987" y="-119.5" font-family="Helvetica,sans-Serif" font-size="10.00">G4ParticleDefinition.hh</text>
</a>
</g>
</g>
<!-- Node7&#45;&gt;Node8 -->
<g id="edge7" class="edge">
<title>Node7&#45;&gt;Node8</title>
<path fill="none" stroke="midnightblue" d="M724.44,-168.44C779.66,-158.89 869.02,-143.42 927.89,-133.23"/>
<polygon fill="midnightblue" stroke="midnightblue" points="928.54,-136.67 937.79,-131.52 927.34,-129.77 928.54,-136.67"/>
</g>
<!-- Node9 -->
<g id="node9" class="node">
<title>Node9</title>
<g id="a_node9"><a xlink:title=" ">
<polygon fill="none" stroke="#bfbfbf" points="1069.5,-112.5 1069.5,-131.5 1188.5,-131.5 1188.5,-112.5 1069.5,-112.5"/>
<text text-anchor="middle" x="1129" y="-119.5" font-family="Helvetica,sans-Serif" font-size="10.00">G4SystemOfUnits.hh</text>
</a>
</g>
</g>
<!-- Node7&#45;&gt;Node9 -->
<g id="edge8" class="edge">
<title>Node7&#45;&gt;Node9</title>
<path fill="none" stroke="midnightblue" d="M745.29,-169.07C820.31,-160.54 942.95,-146.41 1059.03,-132.11"/>
<polygon fill="midnightblue" stroke="midnightblue" points="1059.67,-135.55 1069.17,-130.85 1058.81,-128.61 1059.67,-135.55"/>
</g>
<!-- Node10&#45;&gt;Node5 -->
<g id="edge11" class="edge">
<title>Node10&#45;&gt;Node5</title>
<path fill="none" stroke="midnightblue" d="M179.68,-112.44C210.53,-103.24 259.73,-88.56 293.83,-78.39"/>
<polygon fill="midnightblue" stroke="midnightblue" points="294.87,-81.73 303.45,-75.52 292.87,-75.02 294.87,-81.73"/>
</g>
<!-- Node11 -->
<g id="node11" class="node">
<title>Node11</title>
<g id="a_node11"><a xlink:title=" ">
<polygon fill="none" stroke="#bfbfbf" points="0,-0.5 0,-19.5 38,-19.5 38,-0.5 0,-0.5"/>
<text text-anchor="middle" x="19" y="-7.5" font-family="Helvetica,sans-Serif" font-size="10.00">map</text>
</a>
</g>
</g>
<!-- Node10&#45;&gt;Node11 -->
<g id="edge10" class="edge">
<title>Node10&#45;&gt;Node11</title>
<path fill="none" stroke="midnightblue" d="M129.68,-112.49C111.93,-104.73 86.63,-92.04 68,-76 51.99,-62.22 37.97,-42.36 29.07,-28.23"/>
<polygon fill="midnightblue" stroke="midnightblue" points="31.96,-26.24 23.77,-19.51 25.97,-29.87 31.96,-26.24"/>
</g>
<!-- Node12 -->
<g id="node12" class="node">
<title>Node12</title>
<g id="a_node12"><a xlink:href="ParseLibrary_8h.html" target="_top" xlink:title=" ">
<polygon fill="none" stroke="black" points="77.5,-56.5 77.5,-75.5 226.5,-75.5 226.5,-56.5 77.5,-56.5"/>
<text text-anchor="middle" x="152" y="-63.5" font-family="Helvetica,sans-Serif" font-size="10.00">G4DarkBreM/ParseLibrary.h</text>
</a>
</g>
</g>
<!-- Node10&#45;&gt;Node12 -->
<g id="edge12" class="edge">
<title>Node10&#45;&gt;Node12</title>
<path fill="none" stroke="midnightblue" d="M151.17,-112.08C151.3,-105.01 151.48,-94.86 151.65,-85.99"/>
<polygon fill="midnightblue" stroke="midnightblue" points="155.15,-85.81 151.84,-75.75 148.15,-85.68 155.15,-85.81"/>
</g>
<!-- Node17 -->
<g id="node17" class="node">
<title>Node17</title>
<g id="a_node17"><a xlink:href="PrototypeModel_8h.html" target="_top" xlink:title="Class providing a prototype model for dark brem.">
<polygon fill="none" stroke="black" points="525,-56.5 525,-75.5 693,-75.5 693,-56.5 525,-56.5"/>
<text text-anchor="middle" x="609" y="-63.5" font-family="Helvetica,sans-Serif" font-size="10.00">G4DarkBreM/PrototypeModel.h</text>
</a>
</g>
</g>
<!-- Node10&#45;&gt;Node17 -->
<g id="edge18" class="edge">
<title>Node10&#45;&gt;Node17</title>
<path fill="none" stroke="midnightblue" d="M223.32,-112.47C305.76,-102.75 440.25,-86.9 526.65,-76.71"/>
<polygon fill="midnightblue" stroke="midnightblue" points="527.16,-80.17 536.68,-75.53 526.34,-73.22 527.16,-80.17"/>
</g>
<!-- Node12&#45;&gt;Node11 -->
<g id="edge13" class="edge">
<title>Node12&#45;&gt;Node11</title>
<path fill="none" stroke="midnightblue" d="M130.93,-56.44C108.42,-47.31 72.63,-32.77 47.59,-22.61"/>
<polygon fill="midnightblue" stroke="midnightblue" points="48.83,-19.33 38.25,-18.82 46.2,-25.82 48.83,-19.33"/>
</g>
<!-- Node13 -->
<g id="node13" class="node">
<title>Node13</title>
<g id="a_node13"><a xlink:title=" ">
<polygon fill="none" stroke="#bfbfbf" points="56.5,-0.5 56.5,-19.5 113.5,-19.5 113.5,-0.5 56.5,-0.5"/>
<text text-anchor="middle" x="85" y="-7.5" font-family="Helvetica,sans-Serif" font-size="10.00">ostream</text>
</a>
</g>
</g>
<!-- Node12&#45;&gt;Node13 -->
<g id="edge14" class="edge">
<title>Node12&#45;&gt;Node13</title>
<path fill="none" stroke="midnightblue" d="M141.24,-56.32C131.23,-48.26 116.11,-36.08 104.07,-26.37"/>
<polygon fill="midnightblue" stroke="midnightblue" points="105.94,-23.38 95.96,-19.83 101.55,-28.83 105.94,-23.38"/>
</g>
<!-- Node14 -->
<g id="node14" class="node">
<title>Node14</title>
<g id="a_node14"><a xlink:title=" ">
<polygon fill="none" stroke="#bfbfbf" points="132,-0.5 132,-19.5 176,-19.5 176,-0.5 132,-0.5"/>
<text text-anchor="middle" x="154" y="-7.5" font-family="Helvetica,sans-Serif" font-size="10.00">string</text>
</a>
</g>
</g>
<!-- Node12&#45;&gt;Node14 -->
<g id="edge15" class="edge">
<title>Node12&#45;&gt;Node14</title>
<path fill="none" stroke="midnightblue" d="M152.33,-56.08C152.59,-49.01 152.97,-38.86 153.3,-29.99"/>
<polygon fill="midnightblue" stroke="midnightblue" points="156.8,-29.87 153.68,-19.75 149.81,-29.61 156.8,-29.87"/>
</g>
<!-- Node15 -->
<g id="node15" class="node">
<title>Node15</title>
<g id="a_node15"><a xlink:title=" ">
<polygon fill="none" stroke="#bfbfbf" points="194.5,-0.5 194.5,-19.5 241.5,-19.5 241.5,-0.5 194.5,-0.5"/>
<text text-anchor="middle" x="218" y="-7.5" font-family="Helvetica,sans-Serif" font-size="10.00">vector</text>
</a>
</g>
</g>
<!-- Node12&#45;&gt;Node15 -->
<g id="edge16" class="edge">
<title>Node12&#45;&gt;Node15</title>
<path fill="none" stroke="midnightblue" d="M162.6,-56.32C172.46,-48.26 187.35,-36.08 199.22,-26.37"/>
<polygon fill="midnightblue" stroke="midnightblue" points="201.68,-28.88 207.2,-19.83 197.25,-23.46 201.68,-28.88"/>
</g>
<!-- Node16 -->
<g id="node16" class="node">
<title>Node16</title>
<g id="a_node16"><a xlink:title=" ">
<polygon fill="none" stroke="#bfbfbf" points="260,-0.5 260,-19.5 420,-19.5 420,-0.5 260,-0.5"/>
<text text-anchor="middle" x="340" y="-7.5" font-family="Helvetica,sans-Serif" font-size="10.00">CLHEP/Vector/LorentzVector.h</text>
</a>
</g>
</g>
<!-- Node12&#45;&gt;Node16 -->
<g id="edge17" class="edge">
<title>Node12&#45;&gt;Node16</title>
<path fill="none" stroke="midnightblue" d="M181.79,-56.44C213.83,-47.24 264.93,-32.56 300.35,-22.39"/>
<polygon fill="midnightblue" stroke="midnightblue" points="301.71,-25.64 310.35,-19.52 299.77,-18.91 301.71,-25.64"/>
</g>
<!-- Node18 -->
<g id="node18" class="node">
<title>Node18</title>
<g id="a_node18"><a xlink:title=" ">
<polygon fill="none" stroke="#bfbfbf" points="439,-0.5 439,-19.5 557,-19.5 557,-0.5 439,-0.5"/>
<text text-anchor="middle" x="498" y="-7.5" font-family="Helvetica,sans-Serif" font-size="10.00">G4ParticleChange.hh</text>
</a>
</g>
</g>
<!-- Node17&#45;&gt;Node18 -->
<g id="edge19" class="edge">
<title>Node17&#45;&gt;Node18</title>
<path fill="none" stroke="midnightblue" d="M591.17,-56.32C573.28,-47.62 545.52,-34.12 524.95,-24.11"/>
<polygon fill="midnightblue" stroke="midnightblue" points="526.31,-20.88 515.79,-19.65 523.25,-27.18 526.31,-20.88"/>
</g>
<!-- Node19 -->
<g id="node19" class="node">
<title>Node19</title>
<g id="a_node19"><a xlink:title=" ">
<polygon fill="none" stroke="#bfbfbf" points="575.5,-0.5 575.5,-19.5 642.5,-19.5 642.5,-0.5 575.5,-0.5"/>
<text text-anchor="middle" x="609" y="-7.5" font-family="Helvetica,sans-Serif" font-size="10.00">G4Step.hh</text>
</a>
</g>
</g>
<!-- Node17&#45;&gt;Node19 -->
<g id="edge20" class="edge">
<title>Node17&#45;&gt;Node19</title>
<path fill="none" stroke="midnightblue" d="M609,-56.08C609,-49.01 609,-38.86 609,-29.99"/>
<polygon fill="midnightblue" stroke="midnightblue" points="612.5,-29.75 609,-19.75 605.5,-29.75 612.5,-29.75"/>
</g>
<!-- Node20 -->
<g id="node20" class="node">
<title>Node20</title>
<g id="a_node20"><a xlink:title=" ">
<polygon fill="none" stroke="#bfbfbf" points="660.5,-0.5 660.5,-19.5 731.5,-19.5 731.5,-0.5 660.5,-0.5"/>
<text text-anchor="middle" x="696" y="-7.5" font-family="Helvetica,sans-Serif" font-size="10.00">G4Track.hh</text>
</a>
</g>
</g>
<!-- Node17&#45;&gt;Node20 -->
<g id="edge21" class="edge">
<title>Node17&#45;&gt;Node20</title>
<path fill="none" stroke="midnightblue" d="M622.98,-56.32C636.55,-47.9 657.38,-34.97 673.32,-25.07"/>
<polygon fill="midnightblue" stroke="midnightblue" points="675.41,-27.9 682.06,-19.65 671.71,-21.95 675.41,-27.9"/>
</g>
<!-- Node21&#45;&gt;Node17 -->
<g id="edge29" class="edge">
<title>Node21&#45;&gt;Node17</title>
<path fill="none" stroke="midnightblue" d="M483.3,-168.46C577.22,-158.19 719.98,-141.21 728,-132 750.86,-105.77 707.65,-88.16 667.04,-77.96"/>
<polygon fill="midnightblue" stroke="midnightblue" points="667.63,-74.5 657.09,-75.59 666.01,-81.31 667.63,-74.5"/>
</g>
<!-- Node22 -->
<g id="node22" class="node">
<title>Node22</title>
<g id="a_node22"><a xlink:href="ElementXsecCache_8h_source.html" target="_top" xlink:title=" ">
<polygon fill="none" stroke="black" points="298.5,-112.5 298.5,-131.5 483.5,-131.5 483.5,-112.5 298.5,-112.5"/>
<text text-anchor="middle" x="391" y="-119.5" font-family="Helvetica,sans-Serif" font-size="10.00">G4DarkBreM/ElementXsecCache.h</text>
</a>
</g>
</g>
<!-- Node21&#45;&gt;Node22 -->
<g id="edge23" class="edge">
<title>Node21&#45;&gt;Node22</title>
<path fill="none" stroke="midnightblue" d="M400.18,-168.08C398.73,-160.93 396.63,-150.64 394.81,-141.69"/>
<polygon fill="midnightblue" stroke="midnightblue" points="398.21,-140.85 392.78,-131.75 391.35,-142.25 398.21,-140.85"/>
</g>
<!-- Node23 -->
<g id="node23" class="node">
<title>Node23</title>
<g id="a_node23"><a xlink:href="ElementXsecInterpolation_8h_source.html" target="_top" xlink:title=" ">
<polygon fill="none" stroke="black" points="501.5,-112.5 501.5,-131.5 718.5,-131.5 718.5,-112.5 501.5,-112.5"/>
<text text-anchor="middle" x="610" y="-119.5" font-family="Helvetica,sans-Serif" font-size="10.00">G4DarkBreM/ElementXsecInterpolation.h</text>
</a>
</g>
</g>
<!-- Node21&#45;&gt;Node23 -->
<g id="edge26" class="edge">
<title>Node21&#45;&gt;Node23</title>
<path fill="none" stroke="midnightblue" d="M434.96,-168.44C470.79,-159.14 528.16,-144.25 567.39,-134.06"/>
<polygon fill="midnightblue" stroke="midnightblue" points="568.4,-137.42 577.2,-131.52 566.64,-130.64 568.4,-137.42"/>
</g>
<!-- Node24 -->
<g id="node24" class="node">
<title>Node24</title>
<g id="a_node24"><a xlink:title=" ">
<polygon fill="none" stroke="#bfbfbf" points="775,-112.5 775,-131.5 905,-131.5 905,-112.5 775,-112.5"/>
<text text-anchor="middle" x="840" y="-119.5" font-family="Helvetica,sans-Serif" font-size="10.00">G4VDiscreteProcess.hh</text>
</a>
</g>
</g>
<!-- Node21&#45;&gt;Node24 -->
<g id="edge30" class="edge">
<title>Node21&#45;&gt;Node24</title>
<path fill="none" stroke="midnightblue" d="M471.4,-168.44C551.41,-158.58 682.43,-142.43 764.81,-132.27"/>
<polygon fill="midnightblue" stroke="midnightblue" points="765.36,-135.73 774.85,-131.03 764.5,-128.78 765.36,-135.73"/>
</g>
<!-- Node22&#45;&gt;Node5 -->
<g id="edge24" class="edge">
<title>Node22&#45;&gt;Node5</title>
<path fill="none" stroke="midnightblue" d="M381.52,-112.32C372.8,-104.34 359.66,-92.31 349.1,-82.65"/>
<polygon fill="midnightblue" stroke="midnightblue" points="351.39,-80 341.65,-75.83 346.67,-85.17 351.39,-80"/>
</g>
<!-- Node22&#45;&gt;Node17 -->
<g id="edge25" class="edge">
<title>Node22&#45;&gt;Node17</title>
<path fill="none" stroke="midnightblue" d="M425.54,-112.44C463.25,-103.1 523.74,-88.12 564.86,-77.93"/>
<polygon fill="midnightblue" stroke="midnightblue" points="565.75,-81.32 574.62,-75.52 564.07,-74.52 565.75,-81.32"/>
</g>
<!-- Node23&#45;&gt;Node5 -->
<g id="edge27" class="edge">
<title>Node23&#45;&gt;Node5</title>
<path fill="none" stroke="midnightblue" d="M565.95,-112.44C512.38,-102.04 422.77,-84.63 371.4,-74.65"/>
<polygon fill="midnightblue" stroke="midnightblue" points="371.83,-71.17 361.35,-72.7 370.5,-78.04 371.83,-71.17"/>
</g>
<!-- Node23&#45;&gt;Node17 -->
<g id="edge28" class="edge">
<title>Node23&#45;&gt;Node17</title>
<path fill="none" stroke="midnightblue" d="M609.83,-112.08C609.7,-105.01 609.52,-94.86 609.35,-85.99"/>
<polygon fill="midnightblue" stroke="midnightblue" points="612.85,-85.68 609.16,-75.75 605.85,-85.81 612.85,-85.68"/>
</g>
</g>
</svg>
