<?xml version="1.0" encoding="UTF-8" standalone="no"?>
<!DOCTYPE svg PUBLIC "-//W3C//DTD SVG 1.1//EN"
 "http://www.w3.org/Graphics/SVG/1.1/DTD/svg11.dtd">
<!-- Generated by graphviz version 2.43.0 (0)
 -->
<!-- Title: app/xsec_calc.cxx Pages: 1 -->
<svg width="1022pt" height="196pt"
 viewBox="0.00 0.00 1021.50 196.00" xmlns="http://www.w3.org/2000/svg" xmlns:xlink="http://www.w3.org/1999/xlink">
<g id="graph0" class="graph" transform="scale(1 1) rotate(0) translate(4 192)">
<title>app/xsec_calc.cxx</title>
<!-- Node1 -->
<g id="node1" class="node">
<title>Node1</title>
<g id="a_node1"><a xlink:title=" ">
<polygon fill="#bfbfbf" stroke="black" points="203.5,-168.5 203.5,-187.5 308.5,-187.5 308.5,-168.5 203.5,-168.5"/>
<text text-anchor="middle" x="256" y="-175.5" font-family="Helvetica,sans-Serif" font-size="10.00">app/xsec_calc.cxx</text>
</a>
</g>
</g>
<!-- Node2 -->
<g id="node2" class="node">
<title>Node2</title>
<g id="a_node2"><a xlink:title=" ">
<polygon fill="none" stroke="#bfbfbf" points="0,-112.5 0,-131.5 56,-131.5 56,-112.5 0,-112.5"/>
<text text-anchor="middle" x="28" y="-119.5" font-family="Helvetica,sans-Serif" font-size="10.00">unistd.h</text>
</a>
</g>
</g>
<!-- Node1&#45;&gt;Node2 -->
<g id="edge1" class="edge">
<title>Node1&#45;&gt;Node2</title>
<path fill="none" stroke="midnightblue" d="M219.37,-168.45C182.93,-159.93 125.17,-146.38 66.14,-132.26"/>
<polygon fill="midnightblue" stroke="midnightblue" points="66.82,-128.82 56.28,-129.9 65.19,-135.63 66.82,-128.82"/>
</g>
<!-- Node3 -->
<g id="node3" class="node">
<title>Node3</title>
<g id="a_node3"><a xlink:title=" ">
<polygon fill="none" stroke="#bfbfbf" points="74.5,-112.5 74.5,-131.5 129.5,-131.5 129.5,-112.5 74.5,-112.5"/>
<text text-anchor="middle" x="102" y="-119.5" font-family="Helvetica,sans-Serif" font-size="10.00">fstream</text>
</a>
</g>
</g>
<!-- Node1&#45;&gt;Node3 -->
<g id="edge2" class="edge">
<title>Node1&#45;&gt;Node3</title>
<path fill="none" stroke="midnightblue" d="M231.6,-168.44C205.8,-159.4 164.92,-145.06 135.98,-134.92"/>
<polygon fill="midnightblue" stroke="midnightblue" points="136.88,-131.52 126.29,-131.52 134.57,-138.13 136.88,-131.52"/>
</g>
<!-- Node4 -->
<g id="node4" class="node">
<title>Node4</title>
<g id="a_node4"><a xlink:title=" ">
<polygon fill="none" stroke="#bfbfbf" points="148,-112.5 148,-131.5 208,-131.5 208,-112.5 148,-112.5"/>
<text text-anchor="middle" x="178" y="-119.5" font-family="Helvetica,sans-Serif" font-size="10.00">iostream</text>
</a>
</g>
</g>
<!-- Node1&#45;&gt;Node4 -->
<g id="edge3" class="edge">
<title>Node1&#45;&gt;Node4</title>
<path fill="none" stroke="midnightblue" d="M243.47,-168.32C231.41,-159.98 212.97,-147.21 198.73,-137.35"/>
<polygon fill="midnightblue" stroke="midnightblue" points="200.72,-134.47 190.5,-131.65 196.73,-140.22 200.72,-134.47"/>
</g>
<!-- Node5 -->
<g id="node5" class="node">
<title>Node5</title>
<g id="a_node5"><a xlink:href="ElementXsecInterpolation_8h_source.html" target="_top" xlink:title=" ">
<polygon fill="none" stroke="black" points="226.5,-112.5 226.5,-131.5 443.5,-131.5 443.5,-112.5 226.5,-112.5"/>
<text text-anchor="middle" x="335" y="-119.5" font-family="Helvetica,sans-Serif" font-size="10.00">G4DarkBreM/ElementXsecInterpolation.h</text>
</a>
</g>
</g>
<!-- Node1&#45;&gt;Node5 -->
<g id="edge4" class="edge">
<title>Node1&#45;&gt;Node5</title>
<path fill="none" stroke="midnightblue" d="M268.69,-168.32C280.9,-159.98 299.58,-147.21 314,-137.35"/>
<polygon fill="midnightblue" stroke="midnightblue" points="316.06,-140.19 322.34,-131.65 312.11,-134.41 316.06,-140.19"/>
</g>
<!-- Node11 -->
<g id="node11" class="node">
<title>Node11</title>
<g id="a_node11"><a xlink:href="G4APrime_8h.html" target="_top" xlink:title="Class creating the A&#39; particle in Geant.">
<polygon fill="none" stroke="black" points="742,-112.5 742,-131.5 882,-131.5 882,-112.5 742,-112.5"/>
<text text-anchor="middle" x="812" y="-119.5" font-family="Helvetica,sans-Serif" font-size="10.00">G4DarkBreM/G4APrime.h</text>
</a>
</g>
</g>
<!-- Node1&#45;&gt;Node11 -->
<g id="edge10" class="edge">
<title>Node1&#45;&gt;Node11</title>
<path fill="none" stroke="midnightblue" d="M308.56,-171.9C406.18,-162.41 616.03,-142.03 731.59,-130.81"/>
<polygon fill="midnightblue" stroke="midnightblue" points="732.18,-134.27 741.79,-129.82 731.5,-127.3 732.18,-134.27"/>
</g>
<!-- Node14 -->
<g id="node14" class="node">
<title>Node14</title>
<g id="a_node14"><a xlink:href="G4DarkBreMModel_8h_source.html" target="_top" xlink:title=" ">
<polygon fill="none" stroke="black" points="461.5,-112.5 461.5,-131.5 644.5,-131.5 644.5,-112.5 461.5,-112.5"/>
<text text-anchor="middle" x="553" y="-119.5" font-family="Helvetica,sans-Serif" font-size="10.00">G4DarkBreM/G4DarkBreMModel.h</text>
</a>
</g>
</g>
<!-- Node1&#45;&gt;Node14 -->
<g id="edge13" class="edge">
<title>Node1&#45;&gt;Node14</title>
<path fill="none" stroke="midnightblue" d="M303.06,-168.44C355.41,-158.92 439.99,-143.55 496.04,-133.36"/>
<polygon fill="midnightblue" stroke="midnightblue" points="496.95,-136.75 506.16,-131.52 495.69,-129.86 496.95,-136.75"/>
</g>
<!-- Node6 -->
<g id="node6" class="node">
<title>Node6</title>
<g id="a_node6"><a xlink:title=" ">
<polygon fill="none" stroke="#bfbfbf" points="281,-56.5 281,-75.5 339,-75.5 339,-56.5 281,-56.5"/>
<text text-anchor="middle" x="310" y="-63.5" font-family="Helvetica,sans-Serif" font-size="10.00">memory</text>
</a>
</g>
</g>
<!-- Node5&#45;&gt;Node6 -->
<g id="edge5" class="edge">
<title>Node5&#45;&gt;Node6</title>
<path fill="none" stroke="midnightblue" d="M330.87,-112.08C327.49,-104.77 322.58,-94.18 318.38,-85.1"/>
<polygon fill="midnightblue" stroke="midnightblue" points="321.43,-83.36 314.05,-75.75 315.08,-86.3 321.43,-83.36"/>
</g>
<!-- Node7 -->
<g id="node7" class="node">
<title>Node7</title>
<g id="a_node7"><a xlink:href="PrototypeModel_8h.html" target="_top" xlink:title="Class providing a prototype model for dark brem.">
<polygon fill="none" stroke="black" points="357,-56.5 357,-75.5 525,-75.5 525,-56.5 357,-56.5"/>
<text text-anchor="middle" x="441" y="-63.5" font-family="Helvetica,sans-Serif" font-size="10.00">G4DarkBreM/PrototypeModel.h</text>
</a>
</g>
</g>
<!-- Node5&#45;&gt;Node7 -->
<g id="edge6" class="edge">
<title>Node5&#45;&gt;Node7</title>
<path fill="none" stroke="midnightblue" d="M352.03,-112.32C369.03,-103.66 395.38,-90.24 414.99,-80.25"/>
<polygon fill="midnightblue" stroke="midnightblue" points="416.69,-83.31 424.01,-75.65 413.51,-77.08 416.69,-83.31"/>
</g>
<!-- Node8 -->
<g id="node8" class="node">
<title>Node8</title>
<g id="a_node8"><a xlink:title=" ">
<polygon fill="none" stroke="#bfbfbf" points="223,-0.5 223,-19.5 341,-19.5 341,-0.5 223,-0.5"/>
<text text-anchor="middle" x="282" y="-7.5" font-family="Helvetica,sans-Serif" font-size="10.00">G4ParticleChange.hh</text>
</a>
</g>
</g>
<!-- Node7&#45;&gt;Node8 -->
<g id="edge7" class="edge">
<title>Node7&#45;&gt;Node8</title>
<path fill="none" stroke="midnightblue" d="M415.81,-56.44C389.06,-47.36 346.6,-32.94 316.69,-22.78"/>
<polygon fill="midnightblue" stroke="midnightblue" points="317.67,-19.42 307.08,-19.52 315.42,-26.05 317.67,-19.42"/>
</g>
<!-- Node9 -->
<g id="node9" class="node">
<title>Node9</title>
<g id="a_node9"><a xlink:title=" ">
<polygon fill="none" stroke="#bfbfbf" points="359.5,-0.5 359.5,-19.5 426.5,-19.5 426.5,-0.5 359.5,-0.5"/>
<text text-anchor="middle" x="393" y="-7.5" font-family="Helvetica,sans-Serif" font-size="10.00">G4Step.hh</text>
</a>
</g>
</g>
<!-- Node7&#45;&gt;Node9 -->
<g id="edge8" class="edge">
<title>Node7&#45;&gt;Node9</title>
<path fill="none" stroke="midnightblue" d="M433.07,-56.08C426.15,-48.3 415.93,-36.8 407.55,-27.37"/>
<polygon fill="midnightblue" stroke="midnightblue" points="410.04,-24.9 400.78,-19.75 404.81,-29.55 410.04,-24.9"/>
</g>
<!-- Node10 -->
<g id="node10" class="node">
<title>Node10</title>
<g id="a_node10"><a xlink:title=" ">
<polygon fill="none" stroke="#bfbfbf" points="444.5,-0.5 444.5,-19.5 515.5,-19.5 515.5,-0.5 444.5,-0.5"/>
<text text-anchor="middle" x="480" y="-7.5" font-family="Helvetica,sans-Serif" font-size="10.00">G4Track.hh</text>
</a>
</g>
</g>
<!-- Node7&#45;&gt;Node10 -->
<g id="edge9" class="edge">
<title>Node7&#45;&gt;Node10</title>
<path fill="none" stroke="midnightblue" d="M447.44,-56.08C452.95,-48.46 461.03,-37.26 467.76,-27.94"/>
<polygon fill="midnightblue" stroke="midnightblue" points="470.66,-29.91 473.68,-19.75 464.99,-25.81 470.66,-29.91"/>
</g>
<!-- Node12 -->
<g id="node12" class="node">
<title>Node12</title>
<g id="a_node12"><a xlink:title=" ">
<polygon fill="none" stroke="#bfbfbf" points="748,-56.5 748,-75.5 876,-75.5 876,-56.5 748,-56.5"/>
<text text-anchor="middle" x="812" y="-63.5" font-family="Helvetica,sans-Serif" font-size="10.00">G4ParticleDefinition.hh</text>
</a>
</g>
</g>
<!-- Node11&#45;&gt;Node12 -->
<g id="edge11" class="edge">
<title>Node11&#45;&gt;Node12</title>
<path fill="none" stroke="midnightblue" d="M812,-112.08C812,-105.01 812,-94.86 812,-85.99"/>
<polygon fill="midnightblue" stroke="midnightblue" points="815.5,-85.75 812,-75.75 808.5,-85.75 815.5,-85.75"/>
</g>
<!-- Node13 -->
<g id="node13" class="node">
<title>Node13</title>
<g id="a_node13"><a xlink:title=" ">
<polygon fill="none" stroke="#bfbfbf" points="894.5,-56.5 894.5,-75.5 1013.5,-75.5 1013.5,-56.5 894.5,-56.5"/>
<text text-anchor="middle" x="954" y="-63.5" font-family="Helvetica,sans-Serif" font-size="10.00">G4SystemOfUnits.hh</text>
</a>
</g>
</g>
<!-- Node11&#45;&gt;Node13 -->
<g id="edge12" class="edge">
<title>Node11&#45;&gt;Node13</title>
<path fill="none" stroke="midnightblue" d="M834.5,-112.44C858.08,-103.48 895.32,-89.31 921.96,-79.18"/>
<polygon fill="midnightblue" stroke="midnightblue" points="923.5,-82.34 931.6,-75.52 921.01,-75.8 923.5,-82.34"/>
</g>
<!-- Node14&#45;&gt;Node6 -->
<g id="edge15" class="edge">
<title>Node14&#45;&gt;Node6</title>
<path fill="none" stroke="midnightblue" d="M513.27,-112.48C474.04,-104.03 412.07,-90.55 349.14,-76.23"/>
<polygon fill="midnightblue" stroke="midnightblue" points="349.56,-72.74 339.03,-73.93 348.01,-79.56 349.56,-72.74"/>
</g>
<!-- Node14&#45;&gt;Node7 -->
<g id="edge22" class="edge">
<title>Node14&#45;&gt;Node7</title>
<path fill="none" stroke="midnightblue" d="M535.01,-112.32C516.96,-103.62 488.95,-90.12 468.2,-80.11"/>
<polygon fill="midnightblue" stroke="midnightblue" points="469.48,-76.84 458.95,-75.65 466.44,-83.15 469.48,-76.84"/>
</g>
<!-- Node15 -->
<g id="node15" class="node">
<title>Node15</title>
<g id="a_node15"><a xlink:title=" ">
<polygon fill="none" stroke="#bfbfbf" points="534,-0.5 534,-19.5 572,-19.5 572,-0.5 534,-0.5"/>
<text text-anchor="middle" x="553" y="-7.5" font-family="Helvetica,sans-Serif" font-size="10.00">map</text>
</a>
</g>
</g>
<!-- Node14&#45;&gt;Node15 -->
<g id="edge14" class="edge">
<title>Node14&#45;&gt;Node15</title>
<path fill="none" stroke="midnightblue" d="M553,-112.37C553,-94.62 553,-53.67 553,-29.6"/>
<polygon fill="midnightblue" stroke="midnightblue" points="556.5,-29.59 553,-19.59 549.5,-29.59 556.5,-29.59"/>
</g>
<!-- Node16 -->
<g id="node16" class="node">
<title>Node16</title>
<g id="a_node16"><a xlink:href="ParseLibrary_8h.html" target="_top" xlink:title=" ">
<polygon fill="none" stroke="black" points="580.5,-56.5 580.5,-75.5 729.5,-75.5 729.5,-56.5 580.5,-56.5"/>
<text text-anchor="middle" x="655" y="-63.5" font-family="Helvetica,sans-Serif" font-size="10.00">G4DarkBreM/ParseLibrary.h</text>
</a>
</g>
</g>
<!-- Node14&#45;&gt;Node16 -->
<g id="edge16" class="edge">
<title>Node14&#45;&gt;Node16</title>
<path fill="none" stroke="midnightblue" d="M569.39,-112.32C585.67,-103.7 610.87,-90.36 629.72,-80.39"/>
<polygon fill="midnightblue" stroke="midnightblue" points="631.45,-83.43 638.65,-75.65 628.18,-77.24 631.45,-83.43"/>
</g>
<!-- Node16&#45;&gt;Node15 -->
<g id="edge17" class="edge">
<title>Node16&#45;&gt;Node15</title>
<path fill="none" stroke="midnightblue" d="M638.61,-56.32C622.33,-47.7 597.13,-34.36 578.28,-24.39"/>
<polygon fill="midnightblue" stroke="midnightblue" points="579.82,-21.24 569.35,-19.65 576.55,-27.43 579.82,-21.24"/>
</g>
<!-- Node17 -->
<g id="node17" class="node">
<title>Node17</title>
<g id="a_node17"><a xlink:title=" ">
<polygon fill="none" stroke="#bfbfbf" points="590.5,-0.5 590.5,-19.5 647.5,-19.5 647.5,-0.5 590.5,-0.5"/>
<text text-anchor="middle" x="619" y="-7.5" font-family="Helvetica,sans-Serif" font-size="10.00">ostream</text>
</a>
</g>
</g>
<!-- Node16&#45;&gt;Node17 -->
<g id="edge18" class="edge">
<title>Node16&#45;&gt;Node17</title>
<path fill="none" stroke="midnightblue" d="M649.06,-56.08C644.02,-48.53 636.66,-37.49 630.49,-28.23"/>
<polygon fill="midnightblue" stroke="midnightblue" points="633.29,-26.13 624.83,-19.75 627.47,-30.01 633.29,-26.13"/>
</g>
<!-- Node18 -->
<g id="node18" class="node">
<title>Node18</title>
<g id="a_node18"><a xlink:title=" ">
<polygon fill="none" stroke="#bfbfbf" points="666,-0.5 666,-19.5 710,-19.5 710,-0.5 666,-0.5"/>
<text text-anchor="middle" x="688" y="-7.5" font-family="Helvetica,sans-Serif" font-size="10.00">string</text>
</a>
</g>
</g>
<!-- Node16&#45;&gt;Node18 -->
<g id="edge19" class="edge">
<title>Node16&#45;&gt;Node18</title>
<path fill="none" stroke="midnightblue" d="M660.45,-56.08C665.01,-48.61 671.67,-37.72 677.29,-28.52"/>
<polygon fill="midnightblue" stroke="midnightblue" points="680.42,-30.11 682.65,-19.75 674.45,-26.46 680.42,-30.11"/>
</g>
<!-- Node19 -->
<g id="node19" class="node">
<title>Node19</title>
<g id="a_node19"><a xlink:title=" ">
<polygon fill="none" stroke="#bfbfbf" points="728.5,-0.5 728.5,-19.5 775.5,-19.5 775.5,-0.5 728.5,-0.5"/>
<text text-anchor="middle" x="752" y="-7.5" font-family="Helvetica,sans-Serif" font-size="10.00">vector</text>
</a>
</g>
</g>
<!-- Node16&#45;&gt;Node19 -->
<g id="edge20" class="edge">
<title>Node16&#45;&gt;Node19</title>
<path fill="none" stroke="midnightblue" d="M670.58,-56.32C686,-47.74 709.81,-34.49 727.71,-24.52"/>
<polygon fill="midnightblue" stroke="midnightblue" points="729.42,-27.58 736.45,-19.65 726.01,-21.46 729.42,-27.58"/>
</g>
<!-- Node20 -->
<g id="node20" class="node">
<title>Node20</title>
<g id="a_node20"><a xlink:title=" ">
<polygon fill="none" stroke="#bfbfbf" points="794,-0.5 794,-19.5 954,-19.5 954,-0.5 794,-0.5"/>
<text text-anchor="middle" x="874" y="-7.5" font-family="Helvetica,sans-Serif" font-size="10.00">CLHEP/Vector/LorentzVector.h</text>
</a>
</g>
</g>
<!-- Node16&#45;&gt;Node20 -->
<g id="edge21" class="edge">
<title>Node16&#45;&gt;Node20</title>
<path fill="none" stroke="midnightblue" d="M689.7,-56.44C727.58,-47.1 788.35,-32.12 829.66,-21.93"/>
<polygon fill="midnightblue" stroke="midnightblue" points="830.59,-25.31 839.46,-19.52 828.91,-18.51 830.59,-25.31"/>
</g>
</g>
</svg>
