<?xml version="1.0" encoding="UTF-8" standalone="no"?>
<!DOCTYPE svg PUBLIC "-//W3C//DTD SVG 1.1//EN"
 "http://www.w3.org/Graphics/SVG/1.1/DTD/svg11.dtd">
<!-- Generated by graphviz version 2.43.0 (0)
 -->
<!-- Title: app/xsec_calc.cxx Pages: 1 -->
<svg width="1021pt" height="196pt"
 viewBox="0.00 0.00 1021.00 196.00" xmlns="http://www.w3.org/2000/svg" xmlns:xlink="http://www.w3.org/1999/xlink">
<g id="graph0" class="graph" transform="scale(1 1) rotate(0) translate(4 192)">
<title>app/xsec_calc.cxx</title>
<!-- Node1 -->
<g id="node1" class="node">
<title>Node1</title>
<g id="a_node1"><a xlink:title=" ">
<polygon fill="#bfbfbf" stroke="black" points="204,-168.5 204,-187.5 309,-187.5 309,-168.5 204,-168.5"/>
<text text-anchor="middle" x="256.5" y="-175.5" font-family="Helvetica,sans-Serif" font-size="10.00">app/xsec_calc.cxx</text>
</a>
</g>
</g>
<!-- Node2 -->
<g id="node2" class="node">
<title>Node2</title>
<g id="a_node2"><a xlink:title=" ">
<polygon fill="none" stroke="#bfbfbf" points="0,-112.5 0,-131.5 55,-131.5 55,-112.5 0,-112.5"/>
<text text-anchor="middle" x="27.5" y="-119.5" font-family="Helvetica,sans-Serif" font-size="10.00">fstream</text>
</a>
</g>
</g>
<!-- Node1&#45;&gt;Node2 -->
<g id="edge1" class="edge">
<title>Node1&#45;&gt;Node2</title>
<path fill="none" stroke="midnightblue" d="M219.67,-168.46C183.04,-159.95 124.98,-146.41 65.34,-132.19"/>
<polygon fill="midnightblue" stroke="midnightblue" points="65.91,-128.72 55.37,-129.81 64.29,-135.53 65.91,-128.72"/>
</g>
<!-- Node3 -->
<g id="node3" class="node">
<title>Node3</title>
<g id="a_node3"><a xlink:title=" ">
<polygon fill="none" stroke="#bfbfbf" points="73.5,-112.5 73.5,-131.5 133.5,-131.5 133.5,-112.5 73.5,-112.5"/>
<text text-anchor="middle" x="103.5" y="-119.5" font-family="Helvetica,sans-Serif" font-size="10.00">iostream</text>
</a>
</g>
</g>
<!-- Node1&#45;&gt;Node3 -->
<g id="edge2" class="edge">
<title>Node1&#45;&gt;Node3</title>
<path fill="none" stroke="midnightblue" d="M232.26,-168.44C206.63,-159.4 166.01,-145.06 137.26,-134.92"/>
<polygon fill="midnightblue" stroke="midnightblue" points="138.22,-131.54 127.63,-131.52 135.89,-138.15 138.22,-131.54"/>
</g>
<!-- Node4 -->
<g id="node4" class="node">
<title>Node4</title>
<g id="a_node4"><a xlink:title=" ">
<polygon fill="none" stroke="#bfbfbf" points="151.5,-112.5 151.5,-131.5 207.5,-131.5 207.5,-112.5 151.5,-112.5"/>
<text text-anchor="middle" x="179.5" y="-119.5" font-family="Helvetica,sans-Serif" font-size="10.00">unistd.h</text>
</a>
</g>
</g>
<!-- Node1&#45;&gt;Node4 -->
<g id="edge3" class="edge">
<title>Node1&#45;&gt;Node4</title>
<path fill="none" stroke="midnightblue" d="M244.13,-168.32C232.34,-160.06 214.37,-147.45 200.36,-137.63"/>
<polygon fill="midnightblue" stroke="midnightblue" points="202.04,-134.53 191.84,-131.65 198.02,-140.26 202.04,-134.53"/>
</g>
<!-- Node5 -->
<g id="node5" class="node">
<title>Node5</title>
<g id="a_node5"><a xlink:href="ElementXsecInterpolation_8h_source.html" target="_top" xlink:title=" ">
<polygon fill="none" stroke="black" points="226,-112.5 226,-131.5 443,-131.5 443,-112.5 226,-112.5"/>
<text text-anchor="middle" x="334.5" y="-119.5" font-family="Helvetica,sans-Serif" font-size="10.00">G4DarkBreM/ElementXsecInterpolation.h</text>
</a>
</g>
</g>
<!-- Node1&#45;&gt;Node5 -->
<g id="edge4" class="edge">
<title>Node1&#45;&gt;Node5</title>
<path fill="none" stroke="midnightblue" d="M269.03,-168.32C281.09,-159.98 299.53,-147.21 313.77,-137.35"/>
<polygon fill="midnightblue" stroke="midnightblue" points="315.77,-140.22 322,-131.65 311.78,-134.47 315.77,-140.22"/>
</g>
<!-- Node11 -->
<g id="node11" class="node">
<title>Node11</title>
<g id="a_node11"><a xlink:href="G4DarkBreMModel_8h_source.html" target="_top" xlink:title=" ">
<polygon fill="none" stroke="black" points="461,-112.5 461,-131.5 644,-131.5 644,-112.5 461,-112.5"/>
<text text-anchor="middle" x="552.5" y="-119.5" font-family="Helvetica,sans-Serif" font-size="10.00">G4DarkBreM/G4DarkBreMModel.h</text>
</a>
</g>
</g>
<!-- Node1&#45;&gt;Node11 -->
<g id="edge10" class="edge">
<title>Node1&#45;&gt;Node11</title>
<path fill="none" stroke="midnightblue" d="M303.4,-168.44C355.58,-158.92 439.87,-143.55 495.73,-133.36"/>
<polygon fill="midnightblue" stroke="midnightblue" points="496.61,-136.75 505.82,-131.52 495.35,-129.87 496.61,-136.75"/>
</g>
<!-- Node18 -->
<g id="node18" class="node">
<title>Node18</title>
<g id="a_node18"><a xlink:href="G4APrime_8h.html" target="_top" xlink:title="Class creating the A&#39; particle in Geant.">
<polygon fill="none" stroke="black" points="741.5,-112.5 741.5,-131.5 881.5,-131.5 881.5,-112.5 741.5,-112.5"/>
<text text-anchor="middle" x="811.5" y="-119.5" font-family="Helvetica,sans-Serif" font-size="10.00">G4DarkBreM/G4APrime.h</text>
</a>
</g>
</g>
<!-- Node1&#45;&gt;Node18 -->
<g id="edge20" class="edge">
<title>Node1&#45;&gt;Node18</title>
<path fill="none" stroke="midnightblue" d="M309.21,-171.87C406.79,-162.38 616.09,-142.01 731.32,-130.8"/>
<polygon fill="midnightblue" stroke="midnightblue" points="731.88,-134.26 741.5,-129.81 731.2,-127.3 731.88,-134.26"/>
</g>
<!-- Node6 -->
<g id="node6" class="node">
<title>Node6</title>
<g id="a_node6"><a xlink:title=" ">
<polygon fill="none" stroke="#bfbfbf" points="280.5,-56.5 280.5,-75.5 338.5,-75.5 338.5,-56.5 280.5,-56.5"/>
<text text-anchor="middle" x="309.5" y="-63.5" font-family="Helvetica,sans-Serif" font-size="10.00">memory</text>
</a>
</g>
</g>
<!-- Node5&#45;&gt;Node6 -->
<g id="edge5" class="edge">
<title>Node5&#45;&gt;Node6</title>
<path fill="none" stroke="midnightblue" d="M330.37,-112.08C326.99,-104.77 322.08,-94.18 317.88,-85.1"/>
<polygon fill="midnightblue" stroke="midnightblue" points="320.93,-83.36 313.55,-75.75 314.58,-86.3 320.93,-83.36"/>
</g>
<!-- Node7 -->
<g id="node7" class="node">
<title>Node7</title>
<g id="a_node7"><a xlink:href="PrototypeModel_8h.html" target="_top" xlink:title="Class providing a prototype model for dark brem.">
<polygon fill="none" stroke="black" points="356.5,-56.5 356.5,-75.5 524.5,-75.5 524.5,-56.5 356.5,-56.5"/>
<text text-anchor="middle" x="440.5" y="-63.5" font-family="Helvetica,sans-Serif" font-size="10.00">G4DarkBreM/PrototypeModel.h</text>
</a>
</g>
</g>
<!-- Node5&#45;&gt;Node7 -->
<g id="edge6" class="edge">
<title>Node5&#45;&gt;Node7</title>
<path fill="none" stroke="midnightblue" d="M351.53,-112.32C368.53,-103.66 394.88,-90.24 414.49,-80.25"/>
<polygon fill="midnightblue" stroke="midnightblue" points="416.19,-83.31 423.51,-75.65 413.01,-77.08 416.19,-83.31"/>
</g>
<!-- Node8 -->
<g id="node8" class="node">
<title>Node8</title>
<g id="a_node8"><a xlink:title=" ">
<polygon fill="none" stroke="#bfbfbf" points="223,-0.5 223,-19.5 294,-19.5 294,-0.5 223,-0.5"/>
<text text-anchor="middle" x="258.5" y="-7.5" font-family="Helvetica,sans-Serif" font-size="10.00">G4Track.hh</text>
</a>
</g>
</g>
<!-- Node7&#45;&gt;Node8 -->
<g id="edge7" class="edge">
<title>Node7&#45;&gt;Node8</title>
<path fill="none" stroke="midnightblue" d="M411.66,-56.44C380.64,-47.24 331.17,-32.56 296.88,-22.39"/>
<polygon fill="midnightblue" stroke="midnightblue" points="297.79,-19.01 287.2,-19.52 295.79,-25.72 297.79,-19.01"/>
</g>
<!-- Node9 -->
<g id="node9" class="node">
<title>Node9</title>
<g id="a_node9"><a xlink:title=" ">
<polygon fill="none" stroke="#bfbfbf" points="312,-0.5 312,-19.5 379,-19.5 379,-0.5 312,-0.5"/>
<text text-anchor="middle" x="345.5" y="-7.5" font-family="Helvetica,sans-Serif" font-size="10.00">G4Step.hh</text>
</a>
</g>
</g>
<!-- Node7&#45;&gt;Node9 -->
<g id="edge8" class="edge">
<title>Node7&#45;&gt;Node9</title>
<path fill="none" stroke="midnightblue" d="M425.24,-56.32C410.28,-47.82 387.25,-34.73 369.77,-24.8"/>
<polygon fill="midnightblue" stroke="midnightblue" points="371.15,-21.55 360.73,-19.65 367.69,-27.64 371.15,-21.55"/>
</g>
<!-- Node10 -->
<g id="node10" class="node">
<title>Node10</title>
<g id="a_node10"><a xlink:title=" ">
<polygon fill="none" stroke="#bfbfbf" points="397.5,-0.5 397.5,-19.5 515.5,-19.5 515.5,-0.5 397.5,-0.5"/>
<text text-anchor="middle" x="456.5" y="-7.5" font-family="Helvetica,sans-Serif" font-size="10.00">G4ParticleChange.hh</text>
</a>
</g>
</g>
<!-- Node7&#45;&gt;Node10 -->
<g id="edge9" class="edge">
<title>Node7&#45;&gt;Node10</title>
<path fill="none" stroke="midnightblue" d="M443.14,-56.08C445.29,-48.85 448.38,-38.41 451.05,-29.4"/>
<polygon fill="midnightblue" stroke="midnightblue" points="454.42,-30.33 453.91,-19.75 447.71,-28.34 454.42,-30.33"/>
</g>
<!-- Node11&#45;&gt;Node6 -->
<g id="edge11" class="edge">
<title>Node11&#45;&gt;Node6</title>
<path fill="none" stroke="midnightblue" d="M512.77,-112.48C473.54,-104.03 411.57,-90.55 348.64,-76.23"/>
<polygon fill="midnightblue" stroke="midnightblue" points="349.06,-72.74 338.53,-73.93 347.51,-79.56 349.06,-72.74"/>
</g>
<!-- Node11&#45;&gt;Node7 -->
<g id="edge19" class="edge">
<title>Node11&#45;&gt;Node7</title>
<path fill="none" stroke="midnightblue" d="M534.51,-112.32C516.46,-103.62 488.45,-90.12 467.7,-80.11"/>
<polygon fill="midnightblue" stroke="midnightblue" points="468.98,-76.84 458.45,-75.65 465.94,-83.15 468.98,-76.84"/>
</g>
<!-- Node12 -->
<g id="node12" class="node">
<title>Node12</title>
<g id="a_node12"><a xlink:title=" ">
<polygon fill="none" stroke="#bfbfbf" points="533.5,-0.5 533.5,-19.5 571.5,-19.5 571.5,-0.5 533.5,-0.5"/>
<text text-anchor="middle" x="552.5" y="-7.5" font-family="Helvetica,sans-Serif" font-size="10.00">map</text>
</a>
</g>
</g>
<!-- Node11&#45;&gt;Node12 -->
<g id="edge12" class="edge">
<title>Node11&#45;&gt;Node12</title>
<path fill="none" stroke="midnightblue" d="M552.5,-112.37C552.5,-94.62 552.5,-53.67 552.5,-29.6"/>
<polygon fill="midnightblue" stroke="midnightblue" points="556,-29.59 552.5,-19.59 549,-29.59 556,-29.59"/>
</g>
<!-- Node13 -->
<g id="node13" class="node">
<title>Node13</title>
<g id="a_node13"><a xlink:href="ParseLibrary_8h.html" target="_top" xlink:title=" ">
<polygon fill="none" stroke="black" points="580,-56.5 580,-75.5 729,-75.5 729,-56.5 580,-56.5"/>
<text text-anchor="middle" x="654.5" y="-63.5" font-family="Helvetica,sans-Serif" font-size="10.00">G4DarkBreM/ParseLibrary.h</text>
</a>
</g>
</g>
<!-- Node11&#45;&gt;Node13 -->
<g id="edge13" class="edge">
<title>Node11&#45;&gt;Node13</title>
<path fill="none" stroke="midnightblue" d="M568.89,-112.32C585.17,-103.7 610.37,-90.36 629.22,-80.39"/>
<polygon fill="midnightblue" stroke="midnightblue" points="630.95,-83.43 638.15,-75.65 627.68,-77.24 630.95,-83.43"/>
</g>
<!-- Node13&#45;&gt;Node12 -->
<g id="edge15" class="edge">
<title>Node13&#45;&gt;Node12</title>
<path fill="none" stroke="midnightblue" d="M638.11,-56.32C621.83,-47.7 596.63,-34.36 577.78,-24.39"/>
<polygon fill="midnightblue" stroke="midnightblue" points="579.32,-21.24 568.85,-19.65 576.05,-27.43 579.32,-21.24"/>
</g>
<!-- Node14 -->
<g id="node14" class="node">
<title>Node14</title>
<g id="a_node14"><a xlink:title=" ">
<polygon fill="none" stroke="#bfbfbf" points="589.5,-0.5 589.5,-19.5 633.5,-19.5 633.5,-0.5 589.5,-0.5"/>
<text text-anchor="middle" x="611.5" y="-7.5" font-family="Helvetica,sans-Serif" font-size="10.00">string</text>
</a>
</g>
</g>
<!-- Node13&#45;&gt;Node14 -->
<g id="edge14" class="edge">
<title>Node13&#45;&gt;Node14</title>
<path fill="none" stroke="midnightblue" d="M647.4,-56.08C641.26,-48.38 632.23,-37.03 624.76,-27.65"/>
<polygon fill="midnightblue" stroke="midnightblue" points="627.44,-25.39 618.47,-19.75 621.96,-29.75 627.44,-25.39"/>
</g>
<!-- Node15 -->
<g id="node15" class="node">
<title>Node15</title>
<g id="a_node15"><a xlink:title=" ">
<polygon fill="none" stroke="#bfbfbf" points="652,-0.5 652,-19.5 699,-19.5 699,-0.5 652,-0.5"/>
<text text-anchor="middle" x="675.5" y="-7.5" font-family="Helvetica,sans-Serif" font-size="10.00">vector</text>
</a>
</g>
</g>
<!-- Node13&#45;&gt;Node15 -->
<g id="edge16" class="edge">
<title>Node13&#45;&gt;Node15</title>
<path fill="none" stroke="midnightblue" d="M657.97,-56.08C660.81,-48.77 664.93,-38.18 668.46,-29.1"/>
<polygon fill="midnightblue" stroke="midnightblue" points="671.73,-30.34 672.1,-19.75 665.21,-27.8 671.73,-30.34"/>
</g>
<!-- Node16 -->
<g id="node16" class="node">
<title>Node16</title>
<g id="a_node16"><a xlink:title=" ">
<polygon fill="none" stroke="#bfbfbf" points="717,-0.5 717,-19.5 774,-19.5 774,-0.5 717,-0.5"/>
<text text-anchor="middle" x="745.5" y="-7.5" font-family="Helvetica,sans-Serif" font-size="10.00">ostream</text>
</a>
</g>
</g>
<!-- Node13&#45;&gt;Node16 -->
<g id="edge17" class="edge">
<title>Node13&#45;&gt;Node16</title>
<path fill="none" stroke="midnightblue" d="M669.12,-56.32C683.45,-47.82 705.51,-34.73 722.25,-24.8"/>
<polygon fill="midnightblue" stroke="midnightblue" points="724.1,-27.77 730.92,-19.65 720.53,-21.75 724.1,-27.77"/>
</g>
<!-- Node17 -->
<g id="node17" class="node">
<title>Node17</title>
<g id="a_node17"><a xlink:title=" ">
<polygon fill="none" stroke="#bfbfbf" points="792.5,-0.5 792.5,-19.5 952.5,-19.5 952.5,-0.5 792.5,-0.5"/>
<text text-anchor="middle" x="872.5" y="-7.5" font-family="Helvetica,sans-Serif" font-size="10.00">CLHEP/Vector/LorentzVector.h</text>
</a>
</g>
</g>
<!-- Node13&#45;&gt;Node17 -->
<g id="edge18" class="edge">
<title>Node13&#45;&gt;Node17</title>
<path fill="none" stroke="midnightblue" d="M689.04,-56.44C726.75,-47.1 787.24,-32.12 828.36,-21.93"/>
<polygon fill="midnightblue" stroke="midnightblue" points="829.25,-25.32 838.12,-19.52 827.57,-18.52 829.25,-25.32"/>
</g>
<!-- Node19 -->
<g id="node19" class="node">
<title>Node19</title>
<g id="a_node19"><a xlink:title=" ">
<polygon fill="none" stroke="#bfbfbf" points="747.5,-56.5 747.5,-75.5 875.5,-75.5 875.5,-56.5 747.5,-56.5"/>
<text text-anchor="middle" x="811.5" y="-63.5" font-family="Helvetica,sans-Serif" font-size="10.00">G4ParticleDefinition.hh</text>
</a>
</g>
</g>
<!-- Node18&#45;&gt;Node19 -->
<g id="edge21" class="edge">
<title>Node18&#45;&gt;Node19</title>
<path fill="none" stroke="midnightblue" d="M811.5,-112.08C811.5,-105.01 811.5,-94.86 811.5,-85.99"/>
<polygon fill="midnightblue" stroke="midnightblue" points="815,-85.75 811.5,-75.75 808,-85.75 815,-85.75"/>
</g>
<!-- Node20 -->
<g id="node20" class="node">
<title>Node20</title>
<g id="a_node20"><a xlink:title=" ">
<polygon fill="none" stroke="#bfbfbf" points="894,-56.5 894,-75.5 1013,-75.5 1013,-56.5 894,-56.5"/>
<text text-anchor="middle" x="953.5" y="-63.5" font-family="Helvetica,sans-Serif" font-size="10.00">G4SystemOfUnits.hh</text>
</a>
</g>
</g>
<!-- Node18&#45;&gt;Node20 -->
<g id="edge22" class="edge">
<title>Node18&#45;&gt;Node20</title>
<path fill="none" stroke="midnightblue" d="M834,-112.44C857.58,-103.48 894.82,-89.31 921.46,-79.18"/>
<polygon fill="midnightblue" stroke="midnightblue" points="923,-82.34 931.1,-75.52 920.51,-75.8 923,-82.34"/>
</g>
</g>
</svg>
